0
SECTION
2
HEADER
9
$INSUNITS
70
4
9
$ACADVER
1
AC1014
9
$HANDSEED
5
FFFF
0
ENDSEC
0
SECTION
2
TABLES
0
TABLE
2
VPORT
5
8
100
AcDbSymbolTable
0
ENDTAB
0
TABLE
2
LTYPE
5
5
100
AcDbSymbolTable
0
LTYPE
5
14
100
AcDbSymbolTableRecord
100
AcDbLinetypeTableRecord
2
BYBLOCK
70
0
0
LTYPE
5
15
100
AcDbSymbolTableRecord
100
AcDbLinetypeTableRecord
2
BYLAYER
70
0
0
ENDTAB
0
TABLE
2
LAYER
5
2
100
AcDbSymbolTable
70
2
0
LAYER
5
50
100
AcDbSymbolTableRecord
100
AcDbLayerTableRecord
2
0
70
0
6
CONTINUOUS
0
ENDTAB
0
TABLE
2
STYLE
5
3
100
AcDbSymbolTable
70
1
0
STYLE
5
11
100
AcDbSymbolTableRecord
100
AcDbTextStyleTableRecord
2
STANDARD
70
0
0
ENDTAB
0
TABLE
2
VIEW
5
6
100
AcDbSymbolTable
70
0
0
ENDTAB
0
TABLE
2
UCS
5
7
100
AcDbSymbolTable
70
0
0
ENDTAB
0
TABLE
2
APPID
5
9
100
AcDbSymbolTable
70
2
0
APPID
5
12
100
AcDbSymbolTableRecord
100
AcDbRegAppTableRecord
2
ACAD
70
0
0
ENDTAB
0
TABLE
2
DIMSTYLE
5
A
100
AcDbSymbolTable
70
1
0
ENDTAB
0
TABLE
2
BLOCK_RECORD
5
1
100
AcDbSymbolTable
70
1
0
BLOCK_RECORD
5
1F
100
AcDbSymbolTableRecord
100
AcDbBlockTableRecord
2
*MODEL_SPACE
0
BLOCK_RECORD
5
1B
100
AcDbSymbolTableRecord
100
AcDbBlockTableRecord
2
*PAPER_SPACE
0
ENDTAB
0
ENDSEC
0
SECTION
2
BLOCKS
0
BLOCK
5
20
100
AcDbEntity
100
AcDbBlockBegin
2
*MODEL_SPACE
0
ENDBLK
5
21
100
AcDbEntity
100
AcDbBlockEnd
0
BLOCK
5
1C
100
AcDbEntity
100
AcDbBlockBegin
2
*PAPER_SPACE
0
ENDBLK
5
1D
100
AcDbEntity
100
AcDbBlockEnd
0
ENDSEC
0
SECTION
2
ENTITIES
0
CIRCLE
5
100
100
AcDbEntity
8
0
100
AcDbCircle
10
10.443343097882051
20
12.121740177875427
30
0
40
2.0000000000000009
210
0
220
-0
230
1
0
CIRCLE
5
101
100
AcDbEntity
8
0
100
AcDbCircle
10
14.287180076633426
20
7.202533266695057
30
0
40
2.0000000000000018
210
0
220
-0
230
1
0
LWPOLYLINE
5
102
100
AcDbEntity
8
0
100
AcDbPolyline
90
2
70
1
43
0.0
10
-2
20
-1.4999999999999989
42
-1.9999999999999996
10
1.9999999999999991
20
-1.5000000000000009
0
CIRCLE
5
103
100
AcDbEntity
8
0
100
AcDbCircle
10
-12.121740177875427
20
10.443343097882053
30
0
40
2.0000000000000018
210
0
220
-0
230
1
0
CIRCLE
5
104
100
AcDbEntity
8
0
100
AcDbCircle
10
-7.2025332666950614
20
14.287180076633426
30
0
40
2.0000000000000009
210
0
220
-0
230
1
0
CIRCLE
5
105
100
AcDbEntity
8
0
100
AcDbCircle
10
-1.1868059567870126
20
15.955923402327263
30
0
40
2.0000000000000009
210
0
220
-0
230
1
0
CIRCLE
5
106
100
AcDbEntity
8
0
100
AcDbCircle
10
5.00960180161906
20
15.195522030822604
30
0
40
2.0000000000000009
210
0
220
-0
230
1
0
CIRCLE
5
107
100
AcDbEntity
8
0
100
AcDbCircle
10
-15.195522030822604
20
5.0096018016190644
30
0
40
2.0000000000000018
210
0
220
-0
230
1
0
CIRCLE
5
108
100
AcDbEntity
8
0
100
AcDbCircle
10
-15.955923402327269
20
-1.1868059567870126
30
0
40
2.0000000000000018
210
0
220
-0
230
1
0
CIRCLE
5
109
100
AcDbEntity
8
0
100
AcDbCircle
10
-14.287180076633426
20
-7.2025332666950543
30
0
40
2.0000000000000018
210
0
220
-0
230
1
0
CIRCLE
5
110
100
AcDbEntity
8
0
100
AcDbCircle
10
-10.443343097882053
20
-12.121740177875422
30
0
40
2.0000000000000018
210
0
220
-0
230
1
0
CIRCLE
5
111
100
AcDbEntity
8
0
100
AcDbCircle
10
-5.00960180161906
20
-15.195522030822604
30
0
40
2.0000000000000009
210
0
220
-0
230
1
0
CIRCLE
5
112
100
AcDbEntity
8
0
100
AcDbCircle
10
1.1868059567870082
20
-15.955923402327263
30
0
40
2.0000000000000009
210
0
220
-0
230
1
0
CIRCLE
5
113
100
AcDbEntity
8
0
100
AcDbCircle
10
7.2025332666950534
20
-14.287180076633428
30
0
40
2.0000000000000009
210
0
220
-0
230
1
0
CIRCLE
5
114
100
AcDbEntity
8
0
100
AcDbCircle
10
12.121740177875427
20
-10.443343097882053
30
0
40
2.0000000000000018
210
0
220
-0
230
1
0
CIRCLE
5
115
100
AcDbEntity
8
0
100
AcDbCircle
10
15.195522030822604
20
-5.0096018016190662
30
0
40
2.0000000000000018
210
0
220
-0
230
1
0
CIRCLE
5
116
100
AcDbEntity
8
0
100
AcDbCircle
10
15.955923402327269
20
1.1868059567870037
30
0
40
2.0000000000000018
210
0
220
-0
230
1
0
CIRCLE
5
117
100
AcDbEntity
8
0
100
AcDbCircle
10
2.7755575615628914e-16
20
-1.3877787807814457e-16
30
0
40
19
210
-0
220
0
230
1
0
LWPOLYLINE
5
118
100
AcDbEntity
8
0
100
AcDbPolyline
90
4
70
1
43
0.0
10
8.4657098153022368
20
5.2448407566848365
10
-3.484917218999918
20
5.68397936053419
10
-3.3302727554840406
20
9.8924417689814383
10
8.620354278818116
20
9.4533031651320858
0
LINE
5
119
100
AcDbEntity
8
0
100
AcDbLine
10
-2.004754634274529
20
5.8410344881112541
30
0
11
-2.4955556773260978
21
5.8590694986755398
31
0
0
LINE
5
120
100
AcDbEntity
8
0
100
AcDbLine
10
-2.4955556773260978
20
5.8590694986755398
30
0
11
-2.3806325685810004
21
8.9865631833490838
31
0
0
SPLINE
5
121
100
AcDbEntity
8
0
100
AcDbSpline
70
0
71
2
72
6
73
3
74
0
42
0.000000001
43
0.0000000001
44
0.0000000001
40
0
40
0
40
0
40
1
40
1
40
1
10
-2.3806325685810004
20
8.9865631833490838
30
0
10
-2.5640783346633711
20
8.8240221051665522
30
0
10
-2.8579544955117875
20
8.6655389102432743
30
0
0
SPLINE
5
122
100
AcDbEntity
8
0
100
AcDbSpline
70
0
71
2
72
6
73
3
74
0
42
0.000000001
43
0.0000000001
44
0.0000000001
40
0
40
0
40
0
40
1
40
1
40
1
10
-2.8579544955117875
20
8.6655389102432743
30
0
10
-3.1518305074490942
20
8.5070557098480961
30
0
10
-3.383977019864957
20
8.4309450384683728
30
0
0
LINE
5
123
100
AcDbEntity
8
0
100
AcDbLine
10
-3.383977019864957
20
8.4309450384683728
30
0
11
-3.3665431684764267
21
8.9053862601908147
31
0
0
SPLINE
5
124
100
AcDbEntity
8
0
100
AcDbSpline
70
0
71
2
72
6
73
3
74
0
42
0.000000001
43
0.0000000001
44
0.0000000001
40
0
40
0
40
0
40
1
40
1
40
1
10
-3.3665431684764267
20
8.9053862601908147
30
0
10
-2.9477017559050989
20
9.0838505639713478
30
0
10
-2.6294682000139504
20
9.3479224129407239
30
0
0
SPLINE
5
125
100
AcDbEntity
8
0
100
AcDbSpline
70
0
71
2
72
6
73
3
74
0
42
0.000000001
43
0.0000000001
44
0.0000000001
40
0
40
0
40
0
40
1
40
1
40
1
10
-2.6294682000139504
20
9.3479224129407239
30
0
10
-2.311234484267894
20
9.6119945542604217
30
0
10
-2.1735623613114567
20
9.8663192660013426
30
0
0
LINE
5
126
100
AcDbEntity
8
0
100
AcDbLine
10
-2.1735623613114567
20
9.8663192660013426
30
0
11
-1.8572683127705691
21
9.8546967020569216
31
0
0
LINE
5
127
100
AcDbEntity
8
0
100
AcDbLine
10
-1.8572683127705691
20
9.8546967020569216
30
0
11
-2.004754634274529
21
5.841034488111255
31
0
0
SPLINE
5
128
100
AcDbEntity
8
0
100
AcDbSpline
70
0
71
2
72
6
73
3
74
0
42
0.000000001
43
0.0000000001
44
0.0000000001
40
0
40
0
40
0
40
1
40
1
40
1
10
-0.67531793861744405
20
7.7662292752779107
30
0
10
-0.64926736841035393
20
8.4751640986956094
30
0
10
-0.48750964260750318
20
8.9019812638532354
30
0
0
SPLINE
5
129
100
AcDbEntity
8
0
100
AcDbSpline
70
0
71
2
72
6
73
3
74
0
42
0.000000001
43
0.0000000001
44
0.0000000001
40
0
40
0
40
0
40
1
40
1
40
1
10
-0.48750964260750318
20
8.9019812638532354
30
0
10
-0.3257516189824311
20
9.3287984180670662
30
0
10
-0.029471086421824499
20
9.5527218027173131
30
0
0
SPLINE
5
130
100
AcDbEntity
8
0
100
AcDbSpline
70
0
71
2
72
6
73
3
74
0
42
0.000000001
43
0.0000000001
44
0.0000000001
40
0
40
0
40
0
40
1
40
1
40
1
10
-0.029471086421824499
20
9.5527218027173131
30
0
10
0.26680974396100399
20
9.776645176423763
30
0
10
0.70307730469326257
20
9.7606140571381541
30
0
0
SPLINE
5
131
100
AcDbEntity
8
0
100
AcDbSpline
70
0
71
2
72
6
73
3
74
0
42
0.000000001
43
0.0000000001
44
0.0000000001
40
0
40
0
40
0
40
1
40
1
40
1
10
0.70307730469326257
20
9.7606140571381541
30
0
10
1.024824775921636
20
9.7487911013299176
30
0
10
1.2627394221923149
20
9.6103568618048154
30
0
0
SPLINE
5
132
100
AcDbEntity
8
0
100
AcDbSpline
70
0
71
2
72
6
73
3
74
0
42
0.000000001
43
0.0000000001
44
0.0000000001
40
0
40
0
40
0
40
1
40
1
40
1
10
1.2627394221923149
20
9.6103568618048154
30
0
10
1.5006540684629921
20
9.471922622279715
30
0
10
1.649833233212018
20
9.2220740419581766
30
0
0
SPLINE
5
133
100
AcDbEntity
8
0
100
AcDbSpline
70
0
71
2
72
6
73
3
74
0
42
0.000000001
43
0.0000000001
44
0.0000000001
40
0
40
0
40
0
40
1
40
1
40
1
10
1.649833233212018
20
9.2220740419581766
30
0
10
1.7990130045492814
20
8.9722257375712662
30
0
10
1.8761184425734001
20
8.6185418909727876
30
0
0
SPLINE
5
134
100
AcDbEntity
8
0
100
AcDbSpline
70
0
71
2
72
6
73
3
74
0
42
0.000000001
43
0.0000000001
44
0.0000000001
40
0
40
0
40
0
40
1
40
1
40
1
10
1.8761184425734001
20
8.6185418909727876
30
0
10
1.9532238805975177
20
8.2648580443743107
30
0
10
1.9313814738678003
20
7.670443310460497
30
0
0
SPLINE
5
135
100
AcDbEntity
8
0
100
AcDbSpline
70
0
71
2
72
6
73
3
74
0
42
0.000000001
43
0.0000000001
44
0.0000000001
40
0
40
0
40
0
40
1
40
1
40
1
10
1.9313814738678003
20
7.670443310460497
30
0
10
1.9055312845807304
20
6.9669616119080651
30
0
10
1.7451363932608632
20
6.5400943679361268
30
0
0
SPLINE
5
136
100
AcDbEntity
8
0
100
AcDbSpline
70
0
71
2
72
6
73
3
74
0
42
0.000000001
43
0.0000000001
44
0.0000000001
40
0
40
0
40
0
40
1
40
1
40
1
10
1.7451363932608632
20
6.5400943679361268
30
0
10
1.5847420975854398
20
6.1132271020765963
30
0
10
1.2884111665007081
20
5.8879402982427189
30
0
0
SPLINE
5
137
100
AcDbEntity
8
0
100
AcDbSpline
70
0
71
2
72
6
73
3
74
0
42
0.000000001
43
0.0000000001
44
0.0000000001
40
0
40
0
40
0
40
1
40
1
40
1
10
1.2884111665007081
20
5.8879402982427189
30
0
10
0.99208024635977388
20
5.6626537922310636
30
0
10
0.55308612319488193
20
5.6787851019766835
30
0
0
SPLINE
5
138
100
AcDbEntity
8
0
100
AcDbSpline
70
0
71
2
72
6
73
3
74
0
42
0.000000001
43
0.0000000001
44
0.0000000001
40
0
40
0
40
0
40
1
40
1
40
1
10
0.55308612319488193
20
5.6787851019766835
30
0
10
-0.024968342656472298
20
5.7000263331149519
30
0
10
-0.33966623623082615
20
6.1266040390515508
30
0
0
SPLINE
5
139
100
AcDbEntity
8
0
100
AcDbSpline
70
0
71
2
72
6
73
3
74
0
42
0.000000001
43
0.0000000001
44
0.0000000001
40
0
40
0
40
0
40
1
40
1
40
1
10
-0.33966623623082615
20
6.1266040390515508
30
0
10
-0.71669827300248012
20
6.6401134238008241
30
0
10
-0.67531793861744405
20
7.7662292752779107
30
0
0
SPLINE
5
140
100
AcDbEntity
8
0
100
AcDbSpline
70
0
71
2
72
6
73
3
74
0
42
0.000000001
43
0.0000000001
44
0.0000000001
40
0
40
0
40
0
40
1
40
1
40
1
10
-0.17088363666938056
20
7.7476932959978795
30
0
10
-0.20705385920175789
20
6.7633643496398888
30
0
10
0.011376800785509178
20
6.4290604472510129
30
0
0
SPLINE
5
141
100
AcDbEntity
8
0
100
AcDbSpline
70
0
71
2
72
6
73
3
74
0
42
0.000000001
43
0.0000000001
44
0.0000000001
40
0
40
0
40
0
40
1
40
1
40
1
10
0.011376800785509178
20
6.4290604472510129
30
0
10
0.22980746077277625
20
6.0947565448621361
30
0
10
0.56791490224138763
20
6.0823324244062444
30
0
0
SPLINE
5
142
100
AcDbEntity
8
0
100
AcDbSpline
70
0
71
2
72
6
73
3
74
0
42
0.000000001
43
0.0000000001
44
0.0000000001
40
0
40
0
40
0
40
1
40
1
40
1
10
0.56791490224138763
20
6.0823324244062444
30
0
10
0.90602234370999901
20
6.0699083039503527
30
0
10
1.1484493005172502
20
6.3886427702095672
30
0
0
SPLINE
5
143
100
AcDbEntity
8
0
100
AcDbSpline
70
0
71
2
72
6
73
3
74
0
42
0.000000001
43
0.0000000001
44
0.0000000001
40
0
40
0
40
0
40
1
40
1
40
1
10
1.1484493005172502
20
6.3886427702095672
30
0
10
1.3908768420251483
20
6.7073769167589647
30
0
10
1.4269468740975155
20
7.6889793006843243
30
0
0
SPLINE
5
144
100
AcDbEntity
8
0
100
AcDbSpline
70
0
71
2
72
6
73
3
74
0
42
0.000000001
43
0.0000000001
44
0.0000000001
40
0
40
0
40
0
40
1
40
1
40
1
10
1.4269468740975155
20
7.6889793006843243
30
0
10
1.4632172870899018
20
8.6760348094749471
30
0
10
1.2447362285785102
20
9.0089752926801943
30
0
0
SPLINE
5
145
100
AcDbEntity
8
0
100
AcDbSpline
70
0
71
2
72
6
73
3
74
0
42
0.000000001
43
0.0000000001
44
0.0000000001
40
0
40
0
40
0
40
1
40
1
40
1
10
1.2447362285785102
20
9.0089752926801943
30
0
10
1.0262557657115616
20
9.3419157539978475
30
0
10
0.68269490155546397
20
9.3545402663175548
30
0
0
SPLINE
5
146
100
AcDbEntity
8
0
100
AcDbSpline
70
0
71
2
72
6
73
3
74
0
42
0.000000001
43
0.0000000001
44
0.0000000001
40
0
40
0
40
0
40
1
40
1
40
1
10
0.68269490155546397
20
9.3545402663175548
30
0
10
0.34458746008685259
20
9.3669643867734464
30
0
10
0.13229337376294781
20
9.0880781058036533
30
0
0
SPLINE
5
147
100
AcDbEntity
8
0
100
AcDbSpline
70
0
71
2
72
6
73
3
74
0
42
0.000000001
43
0.0000000001
44
0.0000000001
40
0
40
0
40
0
40
1
40
1
40
1
10
0.13229337376294781
20
9.0880781058036533
30
0
10
-0.1347134250808002
20
8.7320219445336491
30
0
10
-0.17088363666938056
20
7.7476932959978795
30
0
0
LINE
5
148
100
AcDbEntity
8
0
100
AcDbLine
10
5.0155494023586957
20
8.6055683117275699
30
0
11
4.526072647313967
21
8.5853297522481871
31
0
0
SPLINE
5
149
100
AcDbEntity
8
0
100
AcDbSpline
70
0
71
2
72
6
73
3
74
0
42
0.000000001
43
0.0000000001
44
0.0000000001
40
0
40
0
40
0
40
1
40
1
40
1
10
4.526072647313967
20
8.5853297522481871
30
0
10
4.4712527862777085
20
8.8767616656520723
30
0
10
4.3560886131551593
20
9.0120505785596059
30
0
0
SPLINE
5
150
100
AcDbEntity
8
0
100
AcDbSpline
70
0
71
2
72
6
73
3
74
0
42
0.000000001
43
0.0000000001
44
0.0000000001
40
0
40
0
40
0
40
1
40
1
40
1
10
4.3560886131551593
20
9.0120505785596059
30
0
10
4.1647564862200888
20
9.2293184239577482
30
0
10
3.8730026908617798
20
9.2400392299868912
30
0
0
SPLINE
5
151
100
AcDbEntity
8
0
100
AcDbSpline
70
0
71
2
72
6
73
3
74
0
42
0.000000001
43
0.0000000001
44
0.0000000001
40
0
40
0
40
0
40
1
40
1
40
1
10
3.8730026908617798
20
9.2400392299868912
30
0
10
3.6385087913443015
20
9.2486559597492484
30
0
10
3.4564654595426312
20
9.1242885535006941
30
0
0
SPLINE
5
152
100
AcDbEntity
8
0
100
AcDbSpline
70
0
71
2
72
6
73
3
74
0
42
0.000000001
43
0.0000000001
44
0.0000000001
40
0
40
0
40
0
40
1
40
1
40
1
10
3.4564654595426312
20
9.1242885535006941
30
0
10
3.2184863600520619
20
8.9637513611249382
30
0
10
3.072956591607058
20
8.6441868460489673
30
0
0
SPLINE
5
153
100
AcDbEntity
8
0
100
AcDbSpline
70
0
71
2
72
6
73
3
74
0
42
0.000000001
43
0.0000000001
44
0.0000000001
40
0
40
0
40
0
40
1
40
1
40
1
10
3.072956591607058
20
8.6441868460489673
30
0
10
2.9274262165738154
20
8.32462205503837
30
0
10
2.8999303040588122
20
7.7249545771793118
30
0
0
SPLINE
5
154
100
AcDbEntity
8
0
100
AcDbSpline
70
0
71
2
72
6
73
3
74
0
42
0.000000001
43
0.0000000001
44
0.0000000001
40
0
40
0
40
0
40
1
40
1
40
1
10
2.8999303040588122
20
7.7249545771793118
30
0
10
3.0870829616086892
20
7.9883823480019212
30
0
10
3.3481992953004913
20
8.1098444302382351
30
0
0
SPLINE
5
155
100
AcDbEntity
8
0
100
AcDbSpline
70
0
71
2
72
6
73
3
74
0
42
0.000000001
43
0.0000000001
44
0.0000000001
40
0
40
0
40
0
40
1
40
1
40
1
10
3.3481992953004913
20
8.1098444302382351
30
0
10
3.6093162246367361
20
8.231306490586956
30
0
10
3.8901631746200738
20
8.2209864682854459
30
0
0
SPLINE
5
156
100
AcDbEntity
8
0
100
AcDbSpline
70
0
71
2
72
6
73
3
74
0
42
0.000000001
43
0.0000000001
44
0.0000000001
40
0
40
0
40
0
40
1
40
1
40
1
10
3.8901631746200738
20
8.2209864682854459
30
0
10
4.3809646644049742
20
8.2029514413054638
30
0
10
4.7126128831970124
20
7.8289925747038875
30
0
0
SPLINE
5
157
100
AcDbEntity
8
0
100
AcDbSpline
70
0
71
2
72
6
73
3
74
0
42
0.000000001
43
0.0000000001
44
0.0000000001
40
0
40
0
40
0
40
1
40
1
40
1
10
4.7126128831970124
20
7.8289925747038875
30
0
10
5.0442611129328476
20
7.4550340059245324
30
0
10
5.0232202627145988
20
6.8824326649384426
30
0
0
SPLINE
5
158
100
AcDbEntity
8
0
100
AcDbSpline
70
0
71
2
72
6
73
3
74
0
42
0.000000001
43
0.0000000001
44
0.0000000001
40
0
40
0
40
0
40
1
40
1
40
1
10
5.0232202627145988
20
6.8824326649384426
30
0
10
5.0093934210995839
20
6.5061518603018698
30
0
10
4.8352835076138465
20
6.1890028244305162
30
0
0
SPLINE
5
159
100
AcDbEntity
8
0
100
AcDbSpline
70
0
71
2
72
6
73
3
74
0
42
0.000000001
43
0.0000000001
44
0.0000000001
40
0
40
0
40
0
40
1
40
1
40
1
10
4.8352835076138465
20
6.1890028244305162
30
0
10
4.6611735831843131
20
5.8718534907369415
30
0
10
4.371286926613724
20
5.7104934531629139
30
0
0
SPLINE
5
160
100
AcDbEntity
8
0
100
AcDbSpline
70
0
71
2
72
6
73
3
74
0
42
0.000000001
43
0.0000000001
44
0.0000000001
40
0
40
0
40
0
40
1
40
1
40
1
10
4.371286926613724
20
5.7104934531629139
30
0
10
4.0814008656875771
20
5.5491333937012923
30
0
10
3.7214803291134624
20
5.5623590597248569
30
0
0
SPLINE
5
161
100
AcDbEntity
8
0
100
AcDbSpline
70
0
71
2
72
6
73
3
74
0
42
0.000000001
43
0.0000000001
44
0.0000000001
40
0
40
0
40
0
40
1
40
1
40
1
10
3.7214803291134624
20
5.5623590597248569
30
0
10
3.1079790625267787
20
5.58490282156224
30
0
10
2.7373733088681695
20
6.0503948565159753
30
0
0
SPLINE
5
162
100
AcDbEntity
8
0
100
AcDbSpline
70
0
71
2
72
6
73
3
74
0
42
0.000000001
43
0.0000000001
44
0.0000000001
40
0
40
0
40
0
40
1
40
1
40
1
10
2.7373733088681695
20
6.0503948565159753
30
0
10
2.3667681399102038
20
6.5158865717598964
30
0
10
2.4048420577893492
20
7.5520222890934559
30
0
0
SPLINE
5
163
100
AcDbEntity
8
0
100
AcDbSpline
70
0
71
2
72
6
73
3
74
0
42
0.000000001
43
0.0000000001
44
0.0000000001
40
0
40
0
40
0
40
1
40
1
40
1
10
2.4048420577893492
20
7.5520222890934559
30
0
10
2.4474247214696918
20
8.7108580810510166
30
0
10
2.8948501416393513
20
9.2213755258434471
30
0
0
SPLINE
5
164
100
AcDbEntity
8
0
100
AcDbSpline
70
0
71
2
72
6
73
3
74
0
42
0.000000001
43
0.0000000001
44
0.0000000001
40
0
40
0
40
0
40
1
40
1
40
1
10
2.8948501416393513
20
9.2213755258434471
30
0
10
3.2852364639959286
20
9.6657298502360174
30
0
10
3.9178245610777038
20
9.6424847223471755
30
0
0
SPLINE
5
165
100
AcDbEntity
8
0
100
AcDbSpline
70
0
71
2
72
6
73
3
74
0
42
0.000000001
43
0.0000000001
44
0.0000000001
40
0
40
0
40
0
40
1
40
1
40
1
10
3.9178245610777038
20
9.6424847223471755
30
0
10
4.3895392203675119
20
9.6251510614186557
30
0
10
4.6811175623757144
20
9.3495922947984607
30
0
0
SPLINE
5
166
100
AcDbEntity
8
0
100
AcDbSpline
70
0
71
2
72
6
73
3
74
0
42
0.000000001
43
0.0000000001
44
0.0000000001
40
0
40
0
40
0
40
1
40
1
40
1
10
4.6811175623757144
20
9.3495922947984607
30
0
10
4.9726965000283583
20
9.0740335062906716
30
0
10
5.0155494023586957
20
8.6055683117275699
30
0
0
SPLINE
5
167
100
AcDbEntity
8
0
100
AcDbSpline
70
0
71
2
72
6
73
3
74
0
42
0.000000001
43
0.0000000001
44
0.0000000001
40
0
40
0
40
0
40
1
40
1
40
1
10
2.9481223729770614
20
6.9559541177803119
30
0
10
2.9388042881070406
20
6.702373685589964
30
0
10
3.037990985493666
20
6.4666486775934686
30
0
0
SPLINE
5
168
100
AcDbEntity
8
0
100
AcDbSpline
70
0
71
2
72
6
73
3
74
0
42
0.000000001
43
0.0000000001
44
0.0000000001
40
0
40
0
40
0
40
1
40
1
40
1
10
3.037990985493666
20
6.4666486775934686
30
0
10
3.1371782785247335
20
6.2309236477093783
30
0
10
3.326313596398526
20
6.102472887247357
30
0
0
SPLINE
5
169
100
AcDbEntity
8
0
100
AcDbSpline
70
0
71
2
72
6
73
3
74
0
42
0.000000001
43
0.0000000001
44
0.0000000001
40
0
40
0
40
0
40
1
40
1
40
1
10
3.326313596398526
20
6.102472887247357
30
0
10
3.5154483186278753
20
5.9740221486729297
30
0
10
3.7281291230398503
20
5.9662069644782463
30
0
0
SPLINE
5
170
100
AcDbEntity
8
0
100
AcDbSpline
70
0
71
2
72
6
73
3
74
0
42
0.000000001
43
0.0000000001
44
0.0000000001
40
0
40
0
40
0
40
1
40
1
40
1
10
3.7281291230398503
20
5.9662069644782463
30
0
10
4.0389697488932512
20
5.9547847923976418
30
0
10
4.2717746974457658
20
6.1974227161206343
30
0
0
SPLINE
5
171
100
AcDbEntity
8
0
100
AcDbSpline
70
0
71
2
72
6
73
3
74
0
42
0.000000001
43
0.0000000001
44
0.0000000001
40
0
40
0
40
0
40
1
40
1
40
1
10
4.2717746974457658
20
6.1974227161206343
30
0
10
4.5045796569420791
20
6.440060937665848
30
0
10
4.5204103843638705
20
6.8708750757106207
30
0
0
SPLINE
5
172
100
AcDbEntity
8
0
100
AcDbSpline
70
0
71
2
72
6
73
3
74
0
42
0.000000001
43
0.0000000001
44
0.0000000001
40
0
40
0
40
0
40
1
40
1
40
1
10
4.5204103843638705
20
6.8708750757106207
30
0
10
4.5356399471380104
20
7.2853292435151555
30
0
10
4.3235467741746287
20
7.5320288802236082
30
0
0
SPLINE
5
173
100
AcDbEntity
8
0
100
AcDbSpline
70
0
71
2
72
6
73
3
74
0
42
0.000000001
43
0.0000000001
44
0.0000000001
40
0
40
0
40
0
40
1
40
1
40
1
10
4.3235467741746287
20
7.5320288802236082
30
0
10
4.1114530055668048
20
7.7787285388196548
30
0
10
3.7760724243530475
20
7.7910524578717402
30
0
0
SPLINE
5
174
100
AcDbEntity
8
0
100
AcDbSpline
70
0
71
2
72
6
73
3
74
0
42
0.000000001
43
0.0000000001
44
0.0000000001
40
0
40
0
40
0
40
1
40
1
40
1
10
3.7760724243530475
20
7.7910524578717402
30
0
10
3.4434181077497019
20
7.8032761974076115
30
0
10
3.2028840475628071
20
7.573208833688625
30
0
0
SPLINE
5
175
100
AcDbEntity
8
0
100
AcDbSpline
70
0
71
2
72
6
73
3
74
0
42
0.000000001
43
0.0000000001
44
0.0000000001
40
0
40
0
40
0
40
1
40
1
40
1
10
3.2028840475628071
20
7.573208833688625
30
0
10
2.9623499873759132
20
7.3431414699696376
30
0
10
2.9481223729770614
20
6.9559541177803119
30
0
0
SPLINE
5
176
100
AcDbEntity
8
0
100
AcDbSpline
70
0
71
2
72
6
73
3
74
0
42
0.000000001
43
0.0000000001
44
0.0000000001
40
0
40
0
40
0
40
1
40
1
40
1
10
6.2985448142394134
20
7.7065525356479103
30
0
10
5.9972658819130809
20
7.8295678319921533
30
0
10
5.8576397507929236
20
8.0422057393207105
30
0
0
SPLINE
5
177
100
AcDbEntity
8
0
100
AcDbSpline
70
0
71
2
72
6
73
3
74
0
42
0.000000001
43
0.0000000001
44
0.0000000001
40
0
40
0
40
0
40
1
40
1
40
1
10
5.8576397507929236
20
8.0422057393207105
30
0
10
5.7180142043734108
20
8.2548433269394543
30
0
10
5.7286348199425454
20
8.5438705598651303
30
0
0
SPLINE
5
178
100
AcDbEntity
8
0
100
AcDbSpline
70
0
71
2
72
6
73
3
74
0
42
0.000000001
43
0.0000000001
44
0.0000000001
40
0
40
0
40
0
40
1
40
1
40
1
10
5.7286348199425454
20
8.5438705598651303
30
0
10
5.7446659392281543
20
8.98013812059739
30
0
10
6.0691552298176088
20
9.2658232410934023
30
0
0
SPLINE
5
179
100
AcDbEntity
8
0
100
AcDbSpline
70
0
71
2
72
6
73
3
74
0
42
0.000000001
43
0.0000000001
44
0.0000000001
40
0
40
0
40
0
40
1
40
1
40
1
10
6.0691552298176088
20
9.2658232410934023
30
0
10
6.3936427225299415
20
9.5515081294299726
30
0
10
6.9144372925404625
20
9.5323709745584928
30
0
0
SPLINE
5
180
100
AcDbEntity
8
0
100
AcDbSpline
70
0
71
2
72
6
73
3
74
0
42
0.000000001
43
0.0000000001
44
0.0000000001
40
0
40
0
40
0
40
1
40
1
40
1
10
6.9144372925404625
20
9.5323709745584928
30
0
10
7.4379587228058401
20
9.5131336182832058
30
0
10
7.7458082389651199
20
9.1973867711304713
30
0
0
SPLINE
5
181
100
AcDbEntity
8
0
100
AcDbSpline
70
0
71
2
72
6
73
3
74
0
42
0.000000001
43
0.0000000001
44
0.0000000001
40
0
40
0
40
0
40
1
40
1
40
1
10
7.7458082389651199
20
9.1973867711304713
30
0
10
8.0536565747793158
20
8.8816402655751467
30
0
10
8.0376254445499065
20
8.4453724070206668
30
0
0
SPLINE
5
182
100
AcDbEntity
8
0
100
AcDbSpline
70
0
71
2
72
6
73
3
74
0
42
0.000000001
43
0.0000000001
44
0.0000000001
40
0
40
0
40
0
40
1
40
1
40
1
10
8.0376254445499065
20
8.4453724070206668
30
0
10
8.0274056127084066
20
8.1672520194699612
30
0
10
7.8739640234002888
20
7.9667484708874721
30
0
0
SPLINE
5
183
100
AcDbEntity
8
0
100
AcDbSpline
70
0
71
2
72
6
73
3
74
0
42
0.000000001
43
0.0000000001
44
0.0000000001
40
0
40
0
40
0
40
1
40
1
40
1
10
7.8739640234002888
20
7.9667484708874721
30
0
10
7.7205224340921692
20
7.766244922304983
30
0
10
7.4192069452067937
20
7.6653726040704875
30
0
0
SPLINE
5
184
100
AcDbEntity
8
0
100
AcDbSpline
70
0
71
2
72
6
73
3
74
0
42
0.000000001
43
0.0000000001
44
0.0000000001
40
0
40
0
40
0
40
1
40
1
40
1
10
7.4192069452067937
20
7.6653726040704875
30
0
10
7.782899507204279
20
7.5318728216441304
30
0
10
7.9653115875805121
20
7.2575952423172652
30
0
0
SPLINE
5
185
100
AcDbEntity
8
0
100
AcDbSpline
70
0
71
2
72
6
73
3
74
0
42
0.000000001
43
0.0000000001
44
0.0000000001
40
0
40
0
40
0
40
1
40
1
40
1
10
7.9653115875805121
20
7.2575952423172652
30
0
10
8.1477224657240672
20
6.9833174089433649
30
0
10
8.1340960159728688
20
6.6124900269942781
30
0
0
SPLINE
5
186
100
AcDbEntity
8
0
100
AcDbSpline
70
0
71
2
72
6
73
3
74
0
42
0.000000001
43
0.0000000001
44
0.0000000001
40
0
40
0
40
0
40
1
40
1
40
1
10
8.1340960159728688
20
6.6124900269942781
30
0
10
8.1152594434252165
20
6.0998754421038743
30
0
10
7.7397871533565183
20
5.7641873205098832
30
0
0
SPLINE
5
187
100
AcDbEntity
8
0
100
AcDbSpline
70
0
71
2
72
6
73
3
74
0
42
0.000000001
43
0.0000000001
44
0.0000000001
40
0
40
0
40
0
40
1
40
1
40
1
10
7.7397871533565183
20
5.7641873205098832
30
0
10
7.3643148632878237
20
5.4284991989158922
30
0
10
6.7726266918066429
20
5.4502414151856016
30
0
0
SPLINE
5
188
100
AcDbEntity
8
0
100
AcDbSpline
70
0
71
2
72
6
73
3
74
0
42
0.000000001
43
0.0000000001
44
0.0000000001
40
0
40
0
40
0
40
1
40
1
40
1
10
6.7726266918066429
20
5.4502414151856016
30
0
10
6.180938520325463
20
5.4719836314553092
30
0
10
5.8311661174381255
20
5.8356869180314703
30
0
0
SPLINE
5
189
100
AcDbEntity
8
0
100
AcDbSpline
70
0
71
2
72
6
73
3
74
0
42
0.000000001
43
0.0000000001
44
0.0000000001
40
0
40
0
40
0
40
1
40
1
40
1
10
5.8311661174381255
20
5.8356869180314703
30
0
10
5.4813937145507898
20
6.1993902046076323
30
0
10
5.5006310598822807
20
6.7229113370507863
30
0
0
SPLINE
5
190
100
AcDbEntity
8
0
100
AcDbSpline
70
0
71
2
72
6
73
3
74
0
42
0.000000001
43
0.0000000001
44
0.0000000001
40
0
40
0
40
0
40
1
40
1
40
1
10
5.5006310598822807
20
6.7229113370507863
30
0
10
5.5149588756849388
20
7.1128255494949659
30
0
10
5.7223113122354103
20
7.3686852985715205
30
0
0
SPLINE
5
191
100
AcDbEntity
8
0
100
AcDbSpline
70
0
71
2
72
6
73
3
74
0
42
0.000000001
43
0.0000000001
44
0.0000000001
40
0
40
0
40
0
40
1
40
1
40
1
10
5.7223113122354103
20
7.3686852985715205
30
0
10
5.9296637487858836
20
7.6245450476480734
30
0
10
6.2985448142394134
20
7.7065525356479103
30
0
0
SPLINE
5
192
100
AcDbEntity
8
0
100
AcDbSpline
70
0
71
2
72
6
73
3
74
0
42
0.000000001
43
0.0000000001
44
0.0000000001
40
0
40
0
40
0
40
1
40
1
40
1
10
6.2309443197500709
20
8.5417947193977533
30
0
10
6.2205240960447528
20
8.2582209091595633
30
0
10
6.3965977849866444
20
8.0715473305222893
30
0
0
SPLINE
5
193
100
AcDbEntity
8
0
100
AcDbSpline
70
0
71
2
72
6
73
3
74
0
42
0.000000001
43
0.0000000001
44
0.0000000001
40
0
40
0
40
0
40
1
40
1
40
1
10
6.3965977849866444
20
8.0715473305222893
30
0
10
6.5726726761612131
20
7.8848740059320495
30
0
10
6.864426471519522
20
7.8741531999029055
30
0
0
SPLINE
5
194
100
AcDbEntity
8
0
100
AcDbSpline
70
0
71
2
72
6
73
3
74
0
42
0.000000001
43
0.0000000001
44
0.0000000001
40
0
40
0
40
0
40
1
40
1
40
1
10
6.864426471519522
20
7.8741531999029055
30
0
10
7.1479996861132733
20
7.8637329980851822
30
0
10
7.335886127781432
20
8.0356672003533465
30
0
0
SPLINE
5
195
100
AcDbEntity
8
0
100
AcDbSpline
70
0
71
2
72
6
73
3
74
0
42
0.000000001
43
0.0000000001
44
0.0000000001
40
0
40
0
40
0
40
1
40
1
40
1
10
7.335886127781432
20
8.0356672003533465
30
0
10
7.5237725694495943
20
8.2076014026215134
30
0
10
7.5332910461834306
20
8.4666352574993464
30
0
0
SPLINE
5
196
100
AcDbEntity
8
0
100
AcDbSpline
70
0
71
2
72
6
73
3
74
0
42
0.000000001
43
0.0000000001
44
0.0000000001
40
0
40
0
40
0
40
1
40
1
40
1
10
7.5332910461834306
20
8.4666352574993464
30
0
10
7.5432102957011038
20
8.7365756599299331
30
0
10
7.3631972031832893
20
8.9274895113453816
30
0
0
SPLINE
5
197
100
AcDbEntity
8
0
100
AcDbSpline
70
0
71
2
72
6
73
3
74
0
42
0.000000001
43
0.0000000001
44
0.0000000001
40
0
40
0
40
0
40
1
40
1
40
1
10
7.3631972031832893
20
8.9274895113453816
30
0
10
7.1831829084327925
20
9.1184031087137978
30
0
10
6.9050622230598657
20
9.1286229514990964
30
0
0
SPLINE
5
198
100
AcDbEntity
8
0
100
AcDbSpline
70
0
71
2
72
6
73
3
74
0
42
0.000000001
43
0.0000000001
44
0.0000000001
40
0
40
0
40
0
40
1
40
1
40
1
10
6.9050622230598657
20
9.1286229514990964
30
0
10
6.6242146774320876
20
9.1389429956882005
30
0
10
6.4321884512679839
20
8.9657959413329458
30
0
0
SPLINE
5
199
100
AcDbEntity
8
0
100
AcDbSpline
70
0
71
2
72
6
73
3
74
0
42
0.000000001
43
0.0000000001
44
0.0000000001
40
0
40
0
40
0
40
1
40
1
40
1
10
6.4321884512679839
20
8.9657959413329458
30
0
10
6.2401622141600814
20
8.7926485891554691
30
0
10
6.2309443197500709
20
8.5417947193977533
30
0
0
SPLINE
5
200
100
AcDbEntity
8
0
100
AcDbSpline
70
0
71
2
72
6
73
3
74
0
42
0.000000001
43
0.0000000001
44
0.0000000001
40
0
40
0
40
0
40
1
40
1
40
1
10
6.0049654691925554
20
6.7016487843943278
30
0
10
5.9972504864016782
20
6.491694840237205
30
0
10
6.0895603359555377
20
6.2917174912344915
30
0
0
SPLINE
5
201
100
AcDbEntity
8
0
100
AcDbSpline
70
0
71
2
72
6
73
3
74
0
42
0.000000001
43
0.0000000001
44
0.0000000001
40
0
40
0
40
0
40
1
40
1
40
1
10
6.0895603359555377
20
6.2917174912344915
30
0
10
6.1818689832767149
20
6.0917398881847458
30
0
10
6.3742321355930054
20
5.9768223341265241
30
0
0
SPLINE
5
202
100
AcDbEntity
8
0
100
AcDbSpline
70
0
71
2
72
6
73
3
74
0
42
0.000000001
43
0.0000000001
44
0.0000000001
40
0
40
0
40
0
40
1
40
1
40
1
10
6.3742321355930054
20
5.9768223341265241
30
0
10
6.5665952769654972
20
5.8619044822460795
30
0
10
6.7929091913628543
20
5.8535883348075499
30
0
0
SPLINE
5
203
100
AcDbEntity
8
0
100
AcDbSpline
70
0
71
2
72
6
73
3
74
0
42
0.000000001
43
0.0000000001
44
0.0000000001
40
0
40
0
40
0
40
1
40
1
40
1
10
6.7929091913628543
20
5.8535883348075499
30
0
10
7.1446491471724105
20
5.8406632729954051
30
0
10
7.3820060692631522
20
6.0585608385504264
30
0
0
SPLINE
5
204
100
AcDbEntity
8
0
100
AcDbSpline
70
0
71
2
72
6
73
3
74
0
42
0.000000001
43
0.0000000001
44
0.0000000001
40
0
40
0
40
0
40
1
40
1
40
1
10
7.3820060692631522
20
6.0585608385504264
30
0
10
7.6193629913538929
20
6.2764584041054494
30
0
10
7.6321878845936215
20
6.6254723931268122
30
0
0
SPLINE
5
205
100
AcDbEntity
8
0
100
AcDbSpline
70
0
71
2
72
6
73
3
74
0
42
0.000000001
43
0.0000000001
44
0.0000000001
40
0
40
0
40
0
40
1
40
1
40
1
10
7.6321878845936215
20
6.6254723931268122
30
0
10
7.6452131696971666
20
6.9799398048356611
30
0
10
7.4178723793546091
20
7.220373972384766
30
0
0
SPLINE
5
206
100
AcDbEntity
8
0
100
AcDbSpline
70
0
71
2
72
6
73
3
74
0
42
0.000000001
43
0.0000000001
44
0.0000000001
40
0
40
0
40
0
40
1
40
1
40
1
10
7.4178723793546091
20
7.220373972384766
30
0
10
7.1905315780682555
20
7.4608078421116497
30
0
10
6.8360647620038488
20
7.4738331053276008
30
0
0
SPLINE
5
207
100
AcDbEntity
8
0
100
AcDbSpline
70
0
71
2
72
6
73
3
74
0
42
0.000000001
43
0.0000000001
44
0.0000000001
40
0
40
0
40
0
40
1
40
1
40
1
10
6.8360647620038488
20
7.4738331053276008
30
0
10
6.4897773354151163
20
7.4865578081073192
30
0
10
6.2536830573473505
20
7.2658836013053554
30
0
0
SPLINE
5
208
100
AcDbEntity
8
0
100
AcDbSpline
70
0
71
2
72
6
73
3
74
0
42
0.000000001
43
0.0000000001
44
0.0000000001
40
0
40
0
40
0
40
1
40
1
40
1
10
6.2536830573473505
20
7.2658836013053554
30
0
10
6.0175899705684666
20
7.0452093507282036
30
0
10
6.0049654691925554
20
6.7016487843943278
30
0
0
ENDSEC
0
SECTION
2
OBJECTS
0
DICTIONARY
5
C
100
AcDbDictionary
3
ACAD_GROUP
350
D
3
ACAD_MLINESTYLE
350
17
0
DICTIONARY
5
D
100
AcDbDictionary
0
DICTIONARY
5
1A
330
C
100
AcDbDictionary
0
DICTIONARY
5
17
100
AcDbDictionary
0
ENDSEC
0
EOF
