0
SECTION
2
HEADER
9
$INSUNITS
70
4
9
$ACADVER
1
AC1014
9
$HANDSEED
5
FFFF
0
ENDSEC
0
SECTION
2
TABLES
0
TABLE
2
VPORT
5
8
100
AcDbSymbolTable
0
ENDTAB
0
TABLE
2
LTYPE
5
5
100
AcDbSymbolTable
0
LTYPE
5
14
100
AcDbSymbolTableRecord
100
AcDbLinetypeTableRecord
2
BYBLOCK
70
0
0
LTYPE
5
15
100
AcDbSymbolTableRecord
100
AcDbLinetypeTableRecord
2
BYLAYER
70
0
0
ENDTAB
0
TABLE
2
LAYER
5
2
100
AcDbSymbolTable
70
2
0
LAYER
5
50
100
AcDbSymbolTableRecord
100
AcDbLayerTableRecord
2
0
70
0
6
CONTINUOUS
0
ENDTAB
0
TABLE
2
STYLE
5
3
100
AcDbSymbolTable
70
1
0
STYLE
5
11
100
AcDbSymbolTableRecord
100
AcDbTextStyleTableRecord
2
STANDARD
70
0
0
ENDTAB
0
TABLE
2
VIEW
5
6
100
AcDbSymbolTable
70
0
0
ENDTAB
0
TABLE
2
UCS
5
7
100
AcDbSymbolTable
70
0
0
ENDTAB
0
TABLE
2
APPID
5
9
100
AcDbSymbolTable
70
2
0
APPID
5
12
100
AcDbSymbolTableRecord
100
AcDbRegAppTableRecord
2
ACAD
70
0
0
ENDTAB
0
TABLE
2
DIMSTYLE
5
A
100
AcDbSymbolTable
70
1
0
ENDTAB
0
TABLE
2
BLOCK_RECORD
5
1
100
AcDbSymbolTable
70
1
0
BLOCK_RECORD
5
1F
100
AcDbSymbolTableRecord
100
AcDbBlockTableRecord
2
*MODEL_SPACE
0
BLOCK_RECORD
5
1B
100
AcDbSymbolTableRecord
100
AcDbBlockTableRecord
2
*PAPER_SPACE
0
ENDTAB
0
ENDSEC
0
SECTION
2
BLOCKS
0
BLOCK
5
20
100
AcDbEntity
100
AcDbBlockBegin
2
*MODEL_SPACE
0
ENDBLK
5
21
100
AcDbEntity
100
AcDbBlockEnd
0
BLOCK
5
1C
100
AcDbEntity
100
AcDbBlockBegin
2
*PAPER_SPACE
0
ENDBLK
5
1D
100
AcDbEntity
100
AcDbBlockEnd
0
ENDSEC
0
SECTION
2
ENTITIES
0
CIRCLE
5
100
100
AcDbEntity
8
0
100
AcDbCircle
10
-15.265993680826462
20
26.362300205187701
30
0
40
3.0000000000000004
210
0
220
0
230
1
0
LWPOLYLINE
5
101
100
AcDbEntity
8
0
100
AcDbPolyline
90
36
70
1
43
0.0
10
-35.265993680826462
20
39.862300205187701
10
-40.265993680826462
20
39.862300205187701
10
-40.265993680826462
20
48.862300205187701
10
-30.265993680826462
20
48.862300205187701
10
-30.265993680826462
20
43.862300205187701
10
-20.265993680826462
20
43.862300205187701
10
-20.265993680826462
20
48.862300205187701
10
-10.265993680826462
20
48.862300205187701
10
-10.265993680826462
20
43.862300205187701
10
-0.2659936808264618
20
43.862300205187701
10
-0.2659936808264618
20
48.862300205187701
10
9.7340063191735382
20
48.862300205187701
10
9.7340063191735382
20
39.862300205187701
10
4.7340063191735382
20
39.862300205187701
10
4.7340063191735382
20
30.862300205187701
10
9.7340063191735382
20
30.862300205187701
10
9.7340063191735382
20
21.862300205187708
10
4.7340063191735382
20
21.862300205187708
10
4.7340063191735382
20
12.862300205187701
10
9.7340063191735382
20
12.862300205187701
10
9.7340063191735382
20
3.8623002051877009
10
-0.2659936808264618
20
3.8623002051877009
10
-0.2659936808264618
20
8.8623002051877009
10
-10.265993680826462
20
8.8623002051877009
10
-10.265993680826462
20
3.8623002051877009
10
-20.265993680826462
20
3.8623002051877009
10
-20.265993680826462
20
8.8623002051877009
10
-30.265993680826462
20
8.8623002051877009
10
-30.265993680826462
20
3.8623002051877009
10
-40.265993680826462
20
3.8623002051877009
10
-40.265993680826462
20
12.862300205187701
10
-35.265993680826462
20
12.862300205187701
10
-35.265993680826462
20
21.862300205187704
10
-40.265993680826462
20
21.862300205187704
10
-40.265993680826462
20
30.862300205187701
10
-35.265993680826462
20
30.862300205187701
0
LWPOLYLINE
5
102
100
AcDbEntity
8
0
100
AcDbPolyline
90
4
70
1
43
0.0
10
-13.635634810418853
20
34.303340560319874
10
-28.875846579291654
20
34.303340560319874
10
-28.875846579291654
20
39.674677174828751
10
-13.635634810418853
20
39.674677174828751
0
LINE
5
103
100
AcDbEntity
8
0
100
AcDbLine
10
-27.03410045764668
20
34.674677174828751
30
0
11
-27.648015781857801
21
34.674677174828751
31
0
0
LINE
5
104
100
AcDbEntity
8
0
100
AcDbLine
10
-27.648015781857801
20
34.674677174828751
30
0
11
-27.648015781857801
21
38.586682599328263
31
0
0
SPLINE
5
105
100
AcDbEntity
8
0
100
AcDbSpline
70
0
71
2
72
6
73
3
74
0
42
0.000000001
43
0.0000000001
44
0.0000000001
40
0
40
0
40
0
40
1
40
1
40
1
10
-27.648015781857801
20
38.586682599328263
30
0
10
-27.869707509496045
20
38.375222903035386
30
0
10
-28.229530021169019
20
38.163763206742509
30
0
0
SPLINE
5
106
100
AcDbEntity
8
0
100
AcDbSpline
70
0
71
2
72
6
73
3
74
0
42
0.000000001
43
0.0000000001
44
0.0000000001
40
0
40
0
40
0
40
1
40
1
40
1
10
-28.229530021169019
20
38.163763206742509
30
0
10
-28.589352681853605
20
37.952303510449632
30
0
10
-28.875846579291654
20
37.846573513291581
30
0
0
LINE
5
107
100
AcDbEntity
8
0
100
AcDbLine
10
-28.875846579291654
20
37.846573513291581
30
0
11
-28.875846579291654
21
38.440025072835191
31
0
0
SPLINE
5
108
100
AcDbEntity
8
0
100
AcDbSpline
70
0
71
2
72
6
73
3
74
0
42
0.000000001
43
0.0000000001
44
0.0000000001
40
0
40
0
40
0
40
1
40
1
40
1
10
-28.875846579291654
20
38.440025072835191
30
0
10
-28.360839798667264
20
38.682180565140946
30
0
10
-27.975437208630872
20
39.026655476830705
30
0
0
SPLINE
5
109
100
AcDbEntity
8
0
100
AcDbSpline
70
0
71
2
72
6
73
3
74
0
42
0.000000001
43
0.0000000001
44
0.0000000001
40
0
40
0
40
0
40
1
40
1
40
1
10
-27.975437208630872
20
39.026655476830705
30
0
10
-27.590034767606092
20
39.371130090497239
30
0
10
-27.429734631993604
20
39.695141237519486
30
0
0
LINE
5
110
100
AcDbEntity
8
0
100
AcDbLine
10
-27.429734631993604
20
39.695141237519486
30
0
11
-27.03410045764668
21
39.695141237519486
31
0
0
LINE
5
111
100
AcDbEntity
8
0
100
AcDbLine
10
-27.03410045764668
20
39.695141237519486
30
0
11
-27.03410045764668
21
34.674677174828751
31
0
0
SPLINE
5
112
100
AcDbEntity
8
0
100
AcDbSpline
70
0
71
2
72
6
73
3
74
0
42
0.000000001
43
0.0000000001
44
0.0000000001
40
0
40
0
40
0
40
1
40
1
40
1
10
-25.461794897534681
20
37.140570801041825
30
0
10
-25.461794897534681
20
38.027337711594804
30
0
10
-25.279325708367658
20
38.567924123547776
30
0
0
SPLINE
5
113
100
AcDbEntity
8
0
100
AcDbSpline
70
0
71
2
72
6
73
3
74
0
42
0.000000001
43
0.0000000001
44
0.0000000001
40
0
40
0
40
0
40
1
40
1
40
1
10
-25.279325708367658
20
38.567924123547776
30
0
10
-25.096856221177411
20
39.108510833523972
30
0
10
-24.737033411481214
20
39.401825886510117
30
0
0
SPLINE
5
114
100
AcDbEntity
8
0
100
AcDbSpline
70
0
71
2
72
6
73
3
74
0
42
0.000000001
43
0.0000000001
44
0.0000000001
40
0
40
0
40
0
40
1
40
1
40
1
10
-24.737033411481214
20
39.401825886510117
30
0
10
-24.37721089980824
20
39.695140641473039
30
0
10
-23.831508323170972
20
39.695140641473039
30
0
0
SPLINE
5
115
100
AcDbEntity
8
0
100
AcDbSpline
70
0
71
2
72
6
73
3
74
0
42
0.000000001
43
0.0000000001
44
0.0000000001
40
0
40
0
40
0
40
1
40
1
40
1
10
-23.831508323170972
20
39.695140641473039
30
0
10
-23.429052397229505
20
39.695140641473039
30
0
10
-23.125505610921216
20
39.533135813019975
30
0
0
SPLINE
5
116
100
AcDbEntity
8
0
100
AcDbSpline
70
0
71
2
72
6
73
3
74
0
42
0.000000001
43
0.0000000001
44
0.0000000001
40
0
40
0
40
0
40
1
40
1
40
1
10
-23.125505610921216
20
39.533135813019975
30
0
10
-22.82195822856648
20
39.371130090497239
30
0
10
-22.624141141393018
20
39.065877717278703
30
0
0
SPLINE
5
117
100
AcDbEntity
8
0
100
AcDbSpline
70
0
71
2
72
6
73
3
74
0
42
0.000000001
43
0.0000000001
44
0.0000000001
40
0
40
0
40
0
40
1
40
1
40
1
10
-22.624141141393018
20
39.065877717278703
30
0
10
-22.426324054219556
20
38.760625344060166
30
0
10
-22.313773199536634
20
38.322358053467973
30
0
0
SPLINE
5
118
100
AcDbEntity
8
0
100
AcDbSpline
70
0
71
2
72
6
73
3
74
0
42
0.000000001
43
0.0000000001
44
0.0000000001
40
0
40
0
40
0
40
1
40
1
40
1
10
-22.313773199536634
20
38.322358053467973
30
0
10
-22.201221748807264
20
37.884090762875779
30
0
10
-22.201221748807264
20
37.140570801041825
30
0
0
SPLINE
5
119
100
AcDbEntity
8
0
100
AcDbSpline
70
0
71
2
72
6
73
3
74
0
42
0.000000001
43
0.0000000001
44
0.0000000001
40
0
40
0
40
0
40
1
40
1
40
1
10
-22.201221748807264
20
37.140570801041825
30
0
10
-22.201221748807264
20
36.260625344060166
30
0
10
-22.381985947110486
20
35.720038932107194
30
0
0
SPLINE
5
120
100
AcDbEntity
8
0
100
AcDbSpline
70
0
71
2
72
6
73
3
74
0
42
0.000000001
43
0.0000000001
44
0.0000000001
40
0
40
0
40
0
40
1
40
1
40
1
10
-22.381985947110486
20
35.720038932107194
30
0
10
-22.562749549367261
20
35.179452222130998
30
0
10
-22.922572657086683
20
34.884431880257829
30
0
0
SPLINE
5
121
100
AcDbEntity
8
0
100
AcDbSpline
70
0
71
2
72
6
73
3
74
0
42
0.000000001
43
0.0000000001
44
0.0000000001
40
0
40
0
40
0
40
1
40
1
40
1
10
-22.922572657086683
20
34.884431880257829
30
0
10
-23.282395168759656
20
34.589410942338212
30
0
10
-23.831508323170972
20
34.589410942338212
30
0
0
SPLINE
5
122
100
AcDbEntity
8
0
100
AcDbSpline
70
0
71
2
72
6
73
3
74
0
42
0.000000001
43
0.0000000001
44
0.0000000001
40
0
40
0
40
0
40
1
40
1
40
1
10
-23.831508323170972
20
34.589410942338212
30
0
10
-24.554564520337415
20
34.589410942338212
30
0
10
-24.967251881577802
20
35.107828300736649
30
0
0
SPLINE
5
123
100
AcDbEntity
8
0
100
AcDbSpline
70
0
71
2
72
6
73
3
74
0
42
0.000000001
43
0.0000000001
44
0.0000000001
40
0
40
0
40
0
40
1
40
1
40
1
10
-24.967251881577802
20
35.107828300736649
30
0
10
-25.461794897534681
20
35.731975954316361
30
0
10
-25.461794897534681
20
37.140570801041825
30
0
0
SPLINE
5
124
100
AcDbEntity
8
0
100
AcDbSpline
70
0
71
2
72
6
73
3
74
0
42
0.000000001
43
0.0000000001
44
0.0000000001
40
0
40
0
40
0
40
1
40
1
40
1
10
-24.830826088406873
20
37.140570801041825
30
0
10
-24.830826088406873
20
35.909329574845536
30
0
10
-24.5426269020818
20
35.501757782242997
30
0
0
SPLINE
5
125
100
AcDbEntity
8
0
100
AcDbSpline
70
0
71
2
72
6
73
3
74
0
42
0.000000001
43
0.0000000001
44
0.0000000001
40
0
40
0
40
0
40
1
40
1
40
1
10
-24.5426269020818
20
35.501757782242997
30
0
10
-24.254427715756727
20
35.094185989640458
30
0
10
-23.831508323170972
20
35.094185989640458
30
0
0
SPLINE
5
126
100
AcDbEntity
8
0
100
AcDbSpline
70
0
71
2
72
6
73
3
74
0
42
0.000000001
43
0.0000000001
44
0.0000000001
40
0
40
0
40
0
40
1
40
1
40
1
10
-23.831508323170972
20
35.094185989640458
30
0
10
-23.408588930585218
20
35.094185989640458
30
0
10
-23.120389744260144
20
35.503463071130021
30
0
0
SPLINE
5
127
100
AcDbEntity
8
0
100
AcDbSpline
70
0
71
2
72
6
73
3
74
0
42
0.000000001
43
0.0000000001
44
0.0000000001
40
0
40
0
40
0
40
1
40
1
40
1
10
-23.120389744260144
20
35.503463071130021
30
0
10
-22.832190557935071
20
35.912740152619584
30
0
10
-22.832190557935071
20
37.140570801041825
30
0
0
SPLINE
5
128
100
AcDbEntity
8
0
100
AcDbSpline
70
0
71
2
72
6
73
3
74
0
42
0.000000001
43
0.0000000001
44
0.0000000001
40
0
40
0
40
0
40
1
40
1
40
1
10
-22.832190557935071
20
37.140570801041825
30
0
10
-22.832190557935071
20
38.375222903035386
30
0
10
-23.120389744260144
20
38.781089406750901
30
0
0
SPLINE
5
129
100
AcDbEntity
8
0
100
AcDbSpline
70
0
71
2
72
6
73
3
74
0
42
0.000000001
43
0.0000000001
44
0.0000000001
40
0
40
0
40
0
40
1
40
1
40
1
10
-23.120389744260144
20
38.781089406750901
30
0
10
-23.408588930585218
20
39.186955612443192
30
0
10
-23.838329478719068
20
39.186955612443192
30
0
0
SPLINE
5
130
100
AcDbEntity
8
0
100
AcDbSpline
70
0
71
2
72
6
73
3
74
0
42
0.000000001
43
0.0000000001
44
0.0000000001
40
0
40
0
40
0
40
1
40
1
40
1
10
-23.838329478719068
20
39.186955612443192
30
0
10
-24.261248871304822
20
39.186955612443192
30
0
10
-24.513636394955945
20
38.828838389657243
30
0
0
SPLINE
5
131
100
AcDbEntity
8
0
100
AcDbSpline
70
0
71
2
72
6
73
3
74
0
42
0.000000001
43
0.0000000001
44
0.0000000001
40
0
40
0
40
0
40
1
40
1
40
1
10
-24.513636394955945
20
38.828838389657243
30
0
10
-24.830826088406873
20
38.371812325261338
30
0
10
-24.830826088406873
20
37.140570801041825
30
0
0
LINE
5
132
100
AcDbEntity
8
0
100
AcDbLine
10
-18.391536041714978
20
38.450257104180558
30
0
11
-19.002040192105603
21
38.402508121274217
31
0
0
SPLINE
5
133
100
AcDbEntity
8
0
100
AcDbSpline
70
0
71
2
72
6
73
3
74
0
42
0.000000001
43
0.0000000001
44
0.0000000001
40
0
40
0
40
0
40
1
40
1
40
1
10
-19.002040192105603
20
38.402508121274217
30
0
10
-19.083896442868543
20
38.764036219857438
30
0
10
-19.233964249112439
20
38.927746933243974
30
0
0
SPLINE
5
134
100
AcDbEntity
8
0
100
AcDbSpline
70
0
71
2
72
6
73
3
74
0
42
0.000000001
43
0.0000000001
44
0.0000000001
40
0
40
0
40
0
40
1
40
1
40
1
10
-19.233964249112439
20
38.927746933243974
30
0
10
-19.482941194989515
20
39.19036619021724
30
0
10
-19.84787957332356
20
39.19036619021724
30
0
0
SPLINE
5
135
100
AcDbEntity
8
0
100
AcDbSpline
70
0
71
2
72
6
73
3
74
0
42
0.000000001
43
0.0000000001
44
0.0000000001
40
0
40
0
40
0
40
1
40
1
40
1
10
-19.84787957332356
20
39.19036619021724
30
0
10
-20.141194626309705
20
39.19036619021724
30
0
10
-20.36288635394795
20
39.026655476830705
30
0
0
SPLINE
5
136
100
AcDbEntity
8
0
100
AcDbSpline
70
0
71
2
72
6
73
3
74
0
42
0.000000001
43
0.0000000001
44
0.0000000001
40
0
40
0
40
0
40
1
40
1
40
1
10
-20.36288635394795
20
39.026655476830705
30
0
10
-20.652790829160047
20
38.815195780537827
30
0
10
-20.819912716367078
20
38.409329276822312
30
0
0
SPLINE
5
137
100
AcDbEntity
8
0
100
AcDbSpline
70
0
71
2
72
6
73
3
74
0
42
0.000000001
43
0.0000000001
44
0.0000000001
40
0
40
0
40
0
40
1
40
1
40
1
10
-20.819912716367078
20
38.409329276822312
30
0
10
-20.987034007527662
20
38.003463071130021
30
0
10
-20.993855163075757
20
37.253121953747971
30
0
0
SPLINE
5
138
100
AcDbEntity
8
0
100
AcDbSpline
70
0
71
2
72
6
73
3
74
0
42
0.000000001
43
0.0000000001
44
0.0000000001
40
0
40
0
40
0
40
1
40
1
40
1
10
-20.993855163075757
20
37.253121953747971
30
0
10
-20.772163435437513
20
37.59077541186641
30
0
10
-20.451563164212537
20
37.75448642327617
30
0
0
SPLINE
5
139
100
AcDbEntity
8
0
100
AcDbSpline
70
0
71
2
72
6
73
3
74
0
42
0.000000001
43
0.0000000001
44
0.0000000001
40
0
40
0
40
0
40
1
40
1
40
1
10
-20.451563164212537
20
37.75448642327617
30
0
10
-20.130962892987561
20
37.918197136662705
30
0
10
-19.779666825749707
20
37.918197136662705
30
0
0
SPLINE
5
140
100
AcDbEntity
8
0
100
AcDbSpline
70
0
71
2
72
6
73
3
74
0
42
0.000000001
43
0.0000000001
44
0.0000000001
40
0
40
0
40
0
40
1
40
1
40
1
10
-19.779666825749707
20
37.918197136662705
30
0
10
-19.165751501538587
20
37.918197136662705
30
0
10
-18.734305664517713
20
37.466287236951096
30
0
0
SPLINE
5
141
100
AcDbEntity
8
0
100
AcDbSpline
70
0
71
2
72
6
73
3
74
0
42
0.000000001
43
0.0000000001
44
0.0000000001
40
0
40
0
40
0
40
1
40
1
40
1
10
-18.734305664517713
20
37.466287236951096
30
0
10
-18.302858635403943
20
37.014377039216264
30
0
10
-18.302858635403943
20
36.29814229562114
30
0
0
SPLINE
5
142
100
AcDbEntity
8
0
100
AcDbSpline
70
0
71
2
72
6
73
3
74
0
42
0.000000001
43
0.0000000001
44
0.0000000001
40
0
40
0
40
0
40
1
40
1
40
1
10
-18.302858635403943
20
36.29814229562114
30
0
10
-18.302858635403943
20
35.827473920129044
30
0
10
-18.505792185284925
20
35.423312705300553
30
0
0
SPLINE
5
143
100
AcDbEntity
8
0
100
AcDbSpline
70
0
71
2
72
6
73
3
74
0
42
0.000000001
43
0.0000000001
44
0.0000000001
40
0
40
0
40
0
40
1
40
1
40
1
10
-18.505792185284925
20
35.423312705300553
30
0
10
-18.708725735165906
20
35.01915208651851
30
0
10
-19.06343178413136
20
34.804281514428361
30
0
0
SPLINE
5
144
100
AcDbEntity
8
0
100
AcDbSpline
70
0
71
2
72
6
73
3
74
0
42
0.000000001
43
0.0000000001
44
0.0000000001
40
0
40
0
40
0
40
1
40
1
40
1
10
-19.06343178413136
20
34.804281514428361
30
0
10
-19.41813902518971
20
34.589410942338212
30
0
10
-19.868343636014295
20
34.589410942338212
30
0
0
SPLINE
5
145
100
AcDbEntity
8
0
100
AcDbSpline
70
0
71
2
72
6
73
3
74
0
42
0.000000001
43
0.0000000001
44
0.0000000001
40
0
40
0
40
0
40
1
40
1
40
1
10
-19.868343636014295
20
34.589410942338212
30
0
10
-20.635737940289808
20
34.589410942338212
30
0
10
-21.120048924901319
20
35.153872292779191
30
0
0
SPLINE
5
146
100
AcDbEntity
8
0
100
AcDbSpline
70
0
71
2
72
6
73
3
74
0
42
0.000000001
43
0.0000000001
44
0.0000000001
40
0
40
0
40
0
40
1
40
1
40
1
10
-21.120048924901319
20
35.153872292779191
30
0
10
-21.60435990951283
20
35.71833364322017
30
0
10
-21.60435990951283
20
37.014377039216264
30
0
0
SPLINE
5
147
100
AcDbEntity
8
0
100
AcDbSpline
70
0
71
2
72
6
73
3
74
0
42
0.000000001
43
0.0000000001
44
0.0000000001
40
0
40
0
40
0
40
1
40
1
40
1
10
-21.60435990951283
20
37.014377039216264
30
0
10
-21.60435990951283
20
38.463899713299973
30
0
10
-21.068889066197706
20
39.122153442643388
30
0
0
SPLINE
5
148
100
AcDbEntity
8
0
100
AcDbSpline
70
0
71
2
72
6
73
3
74
0
42
0.000000001
43
0.0000000001
44
0.0000000001
40
0
40
0
40
0
40
1
40
1
40
1
10
-21.068889066197706
20
39.122153442643388
30
0
10
-20.601631566502881
20
39.695140641473039
30
0
10
-19.810362621762586
20
39.695140641473039
30
0
0
SPLINE
5
149
100
AcDbEntity
8
0
100
AcDbSpline
70
0
71
2
72
6
73
3
74
0
42
0.000000001
43
0.0000000001
44
0.0000000001
40
0
40
0
40
0
40
1
40
1
40
1
10
-19.810362621762586
20
39.695140641473039
30
0
10
-19.220321938016248
20
39.695140641473039
30
0
10
-18.843446537473035
20
39.364308934949143
30
0
0
SPLINE
5
150
100
AcDbEntity
8
0
100
AcDbSpline
70
0
71
2
72
6
73
3
74
0
42
0.000000001
43
0.0000000001
44
0.0000000001
40
0
40
0
40
0
40
1
40
1
40
1
10
-18.843446537473035
20
39.364308934949143
30
0
10
-18.466569944836927
20
39.0334766323788
30
0
10
-18.391536041714978
20
38.450257104180558
30
0
0
SPLINE
5
151
100
AcDbEntity
8
0
100
AcDbSpline
70
0
71
2
72
6
73
3
74
0
42
0.000000001
43
0.0000000001
44
0.0000000001
40
0
40
0
40
0
40
1
40
1
40
1
10
-20.898357197263074
20
36.294731717847093
30
0
10
-20.898357197263074
20
35.977542322419389
30
0
10
-20.763636991002393
20
35.687637847207291
30
0
0
SPLINE
5
152
100
AcDbEntity
8
0
100
AcDbSpline
70
0
71
2
72
6
73
3
74
0
42
0.000000001
43
0.0000000001
44
0.0000000001
40
0
40
0
40
0
40
1
40
1
40
1
10
-20.763636991002393
20
35.687637847207291
30
0
10
-20.628916784741712
20
35.397733371995194
30
0
10
-20.386760994412732
20
35.245959680817826
30
0
0
SPLINE
5
153
100
AcDbEntity
8
0
100
AcDbSpline
70
0
71
2
72
6
73
3
74
0
42
0.000000001
43
0.0000000001
44
0.0000000001
40
0
40
0
40
0
40
1
40
1
40
1
10
-20.386760994412732
20
35.245959680817826
30
0
10
-20.144605204083753
20
35.094185989640458
30
0
10
-19.878575369336438
20
35.094185989640458
30
0
0
SPLINE
5
154
100
AcDbEntity
8
0
100
AcDbSpline
70
0
71
2
72
6
73
3
74
0
42
0.000000001
43
0.0000000001
44
0.0000000001
40
0
40
0
40
0
40
1
40
1
40
1
10
-19.878575369336438
20
35.094185989640458
30
0
10
-19.48976235053761
20
35.094185989640458
30
0
10
-19.210090204694104
20
35.407965105317338
30
0
0
SPLINE
5
155
100
AcDbEntity
8
0
100
AcDbSpline
70
0
71
2
72
6
73
3
74
0
42
0.000000001
43
0.0000000001
44
0.0000000001
40
0
40
0
40
0
40
1
40
1
40
1
10
-19.210090204694104
20
35.407965105317338
30
0
10
-18.930416866757703
20
35.721744220994218
30
0
10
-18.930416866757703
20
36.260625344060166
30
0
0
SPLINE
5
156
100
AcDbEntity
8
0
100
AcDbSpline
70
0
71
2
72
6
73
3
74
0
42
0.000000001
43
0.0000000001
44
0.0000000001
40
0
40
0
40
0
40
1
40
1
40
1
10
-18.930416866757703
20
36.260625344060166
30
0
10
-18.930416866757703
20
36.779042702458604
30
0
10
-19.206679626920057
20
37.077473920129044
30
0
0
SPLINE
5
157
100
AcDbEntity
8
0
100
AcDbSpline
70
0
71
2
72
6
73
3
74
0
42
0.000000001
43
0.0000000001
44
0.0000000001
40
0
40
0
40
0
40
1
40
1
40
1
10
-19.206679626920057
20
37.077473920129044
30
0
10
-19.482941194989515
20
37.375905137799485
30
0
10
-19.902450009801221
20
37.375905137799485
30
0
0
SPLINE
5
158
100
AcDbEntity
8
0
100
AcDbSpline
70
0
71
2
72
6
73
3
74
0
42
0.000000001
43
0.0000000001
44
0.0000000001
40
0
40
0
40
0
40
1
40
1
40
1
10
-19.902450009801221
20
37.375905137799485
30
0
10
-20.31854824683888
20
37.375905137799485
30
0
10
-20.608452722050977
20
37.077473920129044
30
0
0
SPLINE
5
159
100
AcDbEntity
8
0
100
AcDbSpline
70
0
71
2
72
6
73
3
74
0
42
0.000000001
43
0.0000000001
44
0.0000000001
40
0
40
0
40
0
40
1
40
1
40
1
10
-20.608452722050977
20
37.077473920129044
30
0
10
-20.898357197263074
20
36.779042702458604
30
0
10
-20.898357197263074
20
36.294731717847093
30
0
0
SPLINE
5
160
100
AcDbEntity
8
0
100
AcDbSpline
70
0
71
2
72
6
73
3
74
0
42
0.000000001
43
0.0000000001
44
0.0000000001
40
0
40
0
40
0
40
1
40
1
40
1
10
-16.747606560208631
20
37.386137169144853
30
0
10
-17.129598423459363
20
37.525973242066605
30
0
10
-17.313773199536634
20
37.785181921265824
30
0
0
SPLINE
5
161
100
AcDbEntity
8
0
100
AcDbSpline
70
0
71
2
72
6
73
3
74
0
42
0.000000001
43
0.0000000001
44
0.0000000001
40
0
40
0
40
0
40
1
40
1
40
1
10
-17.313773199536634
20
37.785181921265824
30
0
10
-17.497947975613904
20
38.044390898488267
30
0
10
-17.497947975613904
20
38.405918699048264
30
0
0
SPLINE
5
162
100
AcDbEntity
8
0
100
AcDbSpline
70
0
71
2
72
6
73
3
74
0
42
0.000000001
43
0.0000000001
44
0.0000000001
40
0
40
0
40
0
40
1
40
1
40
1
10
-17.497947975613904
20
38.405918699048264
30
0
10
-17.497947975613904
20
38.951621275685532
30
0
10
-17.105724379041028
20
39.323381107590897
30
0
0
SPLINE
5
163
100
AcDbEntity
8
0
100
AcDbSpline
70
0
71
2
72
6
73
3
74
0
42
0.000000001
43
0.0000000001
44
0.0000000001
40
0
40
0
40
0
40
1
40
1
40
1
10
-17.105724379041028
20
39.323381107590897
30
0
10
-16.713500782468152
20
39.695140641473039
30
0
10
-16.062067314603162
20
39.695140641473039
30
0
0
SPLINE
5
164
100
AcDbEntity
8
0
100
AcDbSpline
70
0
71
2
72
6
73
3
74
0
42
0.000000001
43
0.0000000001
44
0.0000000001
40
0
40
0
40
0
40
1
40
1
40
1
10
-16.062067314603162
20
39.695140641473039
30
0
10
-15.407224461057019
20
39.695140641473039
30
0
10
-15.008179708936048
20
39.314854663155778
30
0
0
SPLINE
5
165
100
AcDbEntity
8
0
100
AcDbSpline
70
0
71
2
72
6
73
3
74
0
42
0.000000001
43
0.0000000001
44
0.0000000001
40
0
40
0
40
0
40
1
40
1
40
1
10
-15.008179708936048
20
39.314854663155778
30
0
10
-14.609134956815076
20
38.934568088792069
30
0
10
-14.609134956815076
20
38.388865512154801
30
0
0
SPLINE
5
166
100
AcDbEntity
8
0
100
AcDbSpline
70
0
71
2
72
6
73
3
74
0
42
0.000000001
43
0.0000000001
44
0.0000000001
40
0
40
0
40
0
40
1
40
1
40
1
10
-14.609134956815076
20
38.388865512154801
30
0
10
-14.609134956815076
20
38.040980022690995
30
0
10
-14.791603847958875
20
37.7834766323788
30
0
0
SPLINE
5
167
100
AcDbEntity
8
0
100
AcDbSpline
70
0
71
2
72
6
73
3
74
0
42
0.000000001
43
0.0000000001
44
0.0000000001
40
0
40
0
40
0
40
1
40
1
40
1
10
-14.791603847958875
20
37.7834766323788
30
0
10
-14.974072739102674
20
37.525973242066605
30
0
10
-15.345832869031263
20
37.386137169144853
30
0
0
SPLINE
5
168
100
AcDbEntity
8
0
100
AcDbSpline
70
0
71
2
72
6
73
3
74
0
42
0.000000001
43
0.0000000001
44
0.0000000001
40
0
40
0
40
0
40
1
40
1
40
1
10
-15.345832869031263
20
37.386137169144853
30
0
10
-14.885396524884534
20
37.236068766854508
30
0
10
-14.644946619489026
20
36.901825886510117
30
0
0
SPLINE
5
169
100
AcDbEntity
8
0
100
AcDbSpline
70
0
71
2
72
6
73
3
74
0
42
0.000000001
43
0.0000000001
44
0.0000000001
40
0
40
0
40
0
40
1
40
1
40
1
10
-14.644946619489026
20
36.901825886510117
30
0
10
-14.404495522000623
20
36.567583006165727
30
0
10
-14.404495522000623
20
36.103735786221726
30
0
0
SPLINE
5
170
100
AcDbEntity
8
0
100
AcDbSpline
70
0
71
2
72
6
73
3
74
0
42
0.000000001
43
0.0000000001
44
0.0000000001
40
0
40
0
40
0
40
1
40
1
40
1
10
-14.404495522000623
20
36.103735786221726
30
0
10
-14.404495522000623
20
35.462535541794999
30
0
10
-14.858111902692151
20
35.025973242066605
30
0
0
SPLINE
5
171
100
AcDbEntity
8
0
100
AcDbSpline
70
0
71
2
72
6
73
3
74
0
42
0.000000001
43
0.0000000001
44
0.0000000001
40
0
40
0
40
0
40
1
40
1
40
1
10
-14.858111902692151
20
35.025973242066605
30
0
10
-15.311727091290784
20
34.589410942338212
30
0
10
-16.051835581281019
20
34.589410942338212
30
0
0
SPLINE
5
172
100
AcDbEntity
8
0
100
AcDbSpline
70
0
71
2
72
6
73
3
74
0
42
0.000000001
43
0.0000000001
44
0.0000000001
40
0
40
0
40
0
40
1
40
1
40
1
10
-16.051835581281019
20
34.589410942338212
30
0
10
-16.791945263364148
20
34.589410942338212
30
0
10
-17.245560451962781
20
35.027678530953629
30
0
0
SPLINE
5
173
100
AcDbEntity
8
0
100
AcDbSpline
70
0
71
2
72
6
73
3
74
0
42
0.000000001
43
0.0000000001
44
0.0000000001
40
0
40
0
40
0
40
1
40
1
40
1
10
-17.245560451962781
20
35.027678530953629
30
0
10
-17.699175640561414
20
35.465946119569047
30
0
10
-17.699175640561414
20
36.120788973115189
30
0
0
SPLINE
5
174
100
AcDbEntity
8
0
100
AcDbSpline
70
0
71
2
72
6
73
3
74
0
42
0.000000001
43
0.0000000001
44
0.0000000001
40
0
40
0
40
0
40
1
40
1
40
1
10
-17.699175640561414
20
36.120788973115189
30
0
10
-17.699175640561414
20
36.608510535500749
30
0
10
-17.45190457961781
20
36.937637549184068
30
0
0
SPLINE
5
175
100
AcDbEntity
8
0
100
AcDbSpline
70
0
71
2
72
6
73
3
74
0
42
0.000000001
43
0.0000000001
44
0.0000000001
40
0
40
0
40
0
40
1
40
1
40
1
10
-17.45190457961781
20
36.937637549184068
30
0
10
-17.204632326581311
20
37.266764562867387
30
0
10
-16.747606560208631
20
37.386137169144853
30
0
0
SPLINE
5
176
100
AcDbEntity
8
0
100
AcDbSpline
70
0
71
2
72
6
73
3
74
0
42
0.000000001
43
0.0000000001
44
0.0000000001
40
0
40
0
40
0
40
1
40
1
40
1
10
-16.870389744260144
20
38.426382761738999
30
0
10
-16.870389744260144
20
38.071675818703874
30
0
10
-16.641877457120252
20
37.846573513291581
30
0
0
SPLINE
5
177
100
AcDbEntity
8
0
100
AcDbSpline
70
0
71
2
72
6
73
3
74
0
42
0.000000001
43
0.0000000001
44
0.0000000001
40
0
40
0
40
0
40
1
40
1
40
1
10
-16.641877457120252
20
37.846573513291581
30
0
10
-16.413363977887464
20
37.621471207879289
30
0
10
-16.048425003506971
20
37.621471207879289
30
0
0
SPLINE
5
178
100
AcDbEntity
8
0
100
AcDbSpline
70
0
71
2
72
6
73
3
74
0
42
0.000000001
43
0.0000000001
44
0.0000000001
40
0
40
0
40
0
40
1
40
1
40
1
10
-16.048425003506971
20
37.621471207879289
30
0
10
-15.693718954541517
20
37.621471207879289
30
0
10
-15.4669113602422
20
37.844868224404557
30
0
0
SPLINE
5
179
100
AcDbEntity
8
0
100
AcDbSpline
70
0
71
2
72
6
73
3
74
0
42
0.000000001
43
0.0000000001
44
0.0000000001
40
0
40
0
40
0
40
1
40
1
40
1
10
-15.4669113602422
20
37.844868224404557
30
0
10
-15.240103765942884
20
38.068265240929826
30
0
10
-15.240103765942884
20
38.392276089928849
30
0
0
SPLINE
5
180
100
AcDbEntity
8
0
100
AcDbSpline
70
0
71
2
72
6
73
3
74
0
42
0.000000001
43
0.0000000001
44
0.0000000001
40
0
40
0
40
0
40
1
40
1
40
1
10
-15.240103765942884
20
38.392276089928849
30
0
10
-15.240103765942884
20
38.729929548047288
30
0
10
-15.473732515790296
20
38.960148018143876
30
0
0
SPLINE
5
181
100
AcDbEntity
8
0
100
AcDbSpline
70
0
71
2
72
6
73
3
74
0
42
0.000000001
43
0.0000000001
44
0.0000000001
40
0
40
0
40
0
40
1
40
1
40
1
10
-15.473732515790296
20
38.960148018143876
30
0
10
-15.707361265637708
20
39.19036619021724
30
0
10
-16.055246159055066
20
39.19036619021724
30
0
0
SPLINE
5
182
100
AcDbEntity
8
0
100
AcDbSpline
70
0
71
2
72
6
73
3
74
0
42
0.000000001
43
0.0000000001
44
0.0000000001
40
0
40
0
40
0
40
1
40
1
40
1
10
-16.055246159055066
20
39.19036619021724
30
0
10
-16.406542822339368
20
39.19036619021724
30
0
10
-16.638465687253309
20
38.965263884804948
30
0
0
SPLINE
5
183
100
AcDbEntity
8
0
100
AcDbSpline
70
0
71
2
72
6
73
3
74
0
42
0.000000001
43
0.0000000001
44
0.0000000001
40
0
40
0
40
0
40
1
40
1
40
1
10
-16.638465687253309
20
38.965263884804948
30
0
10
-16.870389744260144
20
38.740161579392655
30
0
10
-16.870389744260144
20
38.426382761738999
30
0
0
SPLINE
5
184
100
AcDbEntity
8
0
100
AcDbSpline
70
0
71
2
72
6
73
3
74
0
42
0.000000001
43
0.0000000001
44
0.0000000001
40
0
40
0
40
0
40
1
40
1
40
1
10
-17.068206831433606
20
36.117378395341142
30
0
10
-17.068206831433606
20
35.854759138367875
30
0
10
-16.943718954541517
20
35.609192770264848
30
0
0
SPLINE
5
185
100
AcDbEntity
8
0
100
AcDbSpline
70
0
71
2
72
6
73
3
74
0
42
0.000000001
43
0.0000000001
44
0.0000000001
40
0
40
0
40
0
40
1
40
1
40
1
10
-16.943718954541517
20
35.609192770264848
30
0
10
-16.819229885556531
20
35.36362640216182
30
0
10
-16.573663517453504
20
35.228906195901139
30
0
0
SPLINE
5
186
100
AcDbEntity
8
0
100
AcDbSpline
70
0
71
2
72
6
73
3
74
0
42
0.000000001
43
0.0000000001
44
0.0000000001
40
0
40
0
40
0
40
1
40
1
40
1
10
-16.573663517453504
20
35.228906195901139
30
0
10
-16.328098341443372
20
35.094185989640458
30
0
10
-16.045014425732923
20
35.094185989640458
30
0
0
SPLINE
5
187
100
AcDbEntity
8
0
100
AcDbSpline
70
0
71
2
72
6
73
3
74
0
42
0.000000001
43
0.0000000001
44
0.0000000001
40
0
40
0
40
0
40
1
40
1
40
1
10
-16.045014425732923
20
35.094185989640458
30
0
10
-15.605041548230481
20
35.094185989640458
30
0
10
-15.31854824683888
20
35.377269309304459
30
0
0
SPLINE
5
188
100
AcDbEntity
8
0
100
AcDbSpline
70
0
71
2
72
6
73
3
74
0
42
0.000000001
43
0.0000000001
44
0.0000000001
40
0
40
0
40
0
40
1
40
1
40
1
10
-15.31854824683888
20
35.377269309304459
30
0
10
-15.032053753354383
20
35.660352628968461
30
0
10
-15.032053753354383
20
36.096914332650407
30
0
0
SPLINE
5
189
100
AcDbEntity
8
0
100
AcDbSpline
70
0
71
2
72
6
73
3
74
0
42
0.000000001
43
0.0000000001
44
0.0000000001
40
0
40
0
40
0
40
1
40
1
40
1
10
-15.032053753354383
20
36.096914332650407
30
0
10
-15.032053753354383
20
36.540297787926896
30
0
10
-15.327075287320447
20
36.830202263138993
30
0
0
SPLINE
5
190
100
AcDbEntity
8
0
100
AcDbSpline
70
0
71
2
72
6
73
3
74
0
42
0.000000001
43
0.0000000001
44
0.0000000001
40
0
40
0
40
0
40
1
40
1
40
1
10
-15.327075287320447
20
36.830202263138993
30
0
10
-15.622095629193616
20
37.12010673835109
30
0
10
-16.065479084470105
20
37.12010673835109
30
0
0
SPLINE
5
191
100
AcDbEntity
8
0
100
AcDbSpline
70
0
71
2
72
6
73
3
74
0
42
0.000000001
43
0.0000000001
44
0.0000000001
40
0
40
0
40
0
40
1
40
1
40
1
10
-16.065479084470105
20
37.12010673835109
30
0
10
-16.498629614331556
20
37.12010673835109
30
0
10
-16.783418222882581
20
36.833612840913041
30
0
0
SPLINE
5
192
100
AcDbEntity
8
0
100
AcDbSpline
70
0
71
2
72
6
73
3
74
0
42
0.000000001
43
0.0000000001
44
0.0000000001
40
0
40
0
40
0
40
1
40
1
40
1
10
-16.783418222882581
20
36.833612840913041
30
0
10
-17.068206831433606
20
36.547118943474992
30
0
10
-17.068206831433606
20
36.117378395341142
30
0
0
ENDSEC
0
SECTION
2
OBJECTS
0
DICTIONARY
5
C
100
AcDbDictionary
3
ACAD_GROUP
350
D
3
ACAD_MLINESTYLE
350
17
0
DICTIONARY
5
D
100
AcDbDictionary
0
DICTIONARY
5
1A
330
C
100
AcDbDictionary
0
DICTIONARY
5
17
100
AcDbDictionary
0
ENDSEC
0
EOF
