0
SECTION
2
HEADER
9
$INSUNITS
70
4
9
$ACADVER
1
AC1014
9
$HANDSEED
5
FFFF
0
ENDSEC
0
SECTION
2
TABLES
0
TABLE
2
VPORT
5
8
100
AcDbSymbolTable
0
ENDTAB
0
TABLE
2
LTYPE
5
5
100
AcDbSymbolTable
0
LTYPE
5
14
100
AcDbSymbolTableRecord
100
AcDbLinetypeTableRecord
2
BYBLOCK
70
0
0
LTYPE
5
15
100
AcDbSymbolTableRecord
100
AcDbLinetypeTableRecord
2
BYLAYER
70
0
0
ENDTAB
0
TABLE
2
LAYER
5
2
100
AcDbSymbolTable
70
2
0
LAYER
5
50
100
AcDbSymbolTableRecord
100
AcDbLayerTableRecord
2
0
70
0
6
CONTINUOUS
0
ENDTAB
0
TABLE
2
STYLE
5
3
100
AcDbSymbolTable
70
1
0
STYLE
5
11
100
AcDbSymbolTableRecord
100
AcDbTextStyleTableRecord
2
STANDARD
70
0
0
ENDTAB
0
TABLE
2
VIEW
5
6
100
AcDbSymbolTable
70
0
0
ENDTAB
0
TABLE
2
UCS
5
7
100
AcDbSymbolTable
70
0
0
ENDTAB
0
TABLE
2
APPID
5
9
100
AcDbSymbolTable
70
2
0
APPID
5
12
100
AcDbSymbolTableRecord
100
AcDbRegAppTableRecord
2
ACAD
70
0
0
ENDTAB
0
TABLE
2
DIMSTYLE
5
A
100
AcDbSymbolTable
70
1
0
ENDTAB
0
TABLE
2
BLOCK_RECORD
5
1
100
AcDbSymbolTable
70
1
0
BLOCK_RECORD
5
1F
100
AcDbSymbolTableRecord
100
AcDbBlockTableRecord
2
*MODEL_SPACE
0
BLOCK_RECORD
5
1B
100
AcDbSymbolTableRecord
100
AcDbBlockTableRecord
2
*PAPER_SPACE
0
ENDTAB
0
ENDSEC
0
SECTION
2
BLOCKS
0
BLOCK
5
20
100
AcDbEntity
100
AcDbBlockBegin
2
*MODEL_SPACE
0
ENDBLK
5
21
100
AcDbEntity
100
AcDbBlockEnd
0
BLOCK
5
1C
100
AcDbEntity
100
AcDbBlockBegin
2
*PAPER_SPACE
0
ENDBLK
5
1D
100
AcDbEntity
100
AcDbBlockEnd
0
ENDSEC
0
SECTION
2
ENTITIES
0
LWPOLYLINE
5
100
100
AcDbEntity
8
0
100
AcDbPolyline
90
28
70
1
43
0.0
10
-19.200523289214679
20
38.032837850409265
10
-19.200523289214679
20
47.032837850409251
10
-24.200523289214679
20
47.032837850409251
10
-24.200523289214679
20
56.032837850409258
10
-19.200523289214679
20
56.032837850409258
10
-19.200523289214679
20
60.032837850409265
10
-14.200523289214679
20
60.032837850409265
10
-14.200523289214679
20
65.032837850409265
10
-4.2005232892146793
20
65.032837850409265
10
-4.2005232892146793
20
60.032837850409265
10
0.79947671078532068
20
60.032837850409265
10
0.79947671078532068
20
56.032837850409258
10
5.7994767107853207
20
56.032837850409258
10
5.7994767107853207
20
47.032837850409251
10
0.79947671078532068
20
47.032837850409251
10
0.79947671078532068
20
38.032837850409265
10
5.7994767107853207
20
38.032837850409265
10
5.7994767107853207
20
29.032837850409265
10
0.79947671078532068
20
29.032837850409265
10
0.79947671078532068
20
25.032837850409262
10
-4.2005232892146793
20
25.032837850409262
10
-4.2005232892146793
20
20.032837850409262
10
-14.200523289214679
20
20.032837850409262
10
-14.200523289214679
20
25.032837850409262
10
-19.200523289214679
20
25.032837850409262
10
-19.200523289214679
20
29.032837850409265
10
-24.200523289214679
20
29.032837850409265
10
-24.200523289214679
20
38.032837850409265
0
LWPOLYLINE
5
101
100
AcDbEntity
8
0
100
AcDbPolyline
90
4
70
1
43
0.0
10
-1.4430479388610173
20
29.085551793293725
10
-15.238410281317165
20
29.085551793293725
10
-15.238410281317165
20
34.469107829374174
10
-1.4430479388610173
20
34.469107829374174
0
LINE
5
102
100
AcDbEntity
8
0
100
AcDbLine
10
-13.765013264791897
20
30.469107769769529
30
0
11
-14.256145553963115
21
30.469107769769529
31
0
0
LINE
5
103
100
AcDbEntity
8
0
100
AcDbLine
10
-14.256145553963115
20
30.469107769769529
30
0
11
-14.256145553963115
21
33.598712228578428
31
0
0
SPLINE
5
104
100
AcDbEntity
8
0
100
AcDbSpline
70
0
71
2
72
6
73
3
74
0
42
0.000000001
43
0.0000000001
44
0.0000000001
40
0
40
0
40
0
40
1
40
1
40
1
10
-14.256145553963115
20
33.598712228578428
30
0
10
-14.433498876469066
20
33.429544411939482
30
0
10
-14.721357124226024
20
33.260376595300535
30
0
0
SPLINE
5
105
100
AcDbEntity
8
0
100
AcDbSpline
70
0
71
2
72
6
73
3
74
0
42
0.000000001
43
0.0000000001
44
0.0000000001
40
0
40
0
40
0
40
1
40
1
40
1
10
-14.721357124226024
20
33.260376595300535
30
0
10
-15.00921522297137
20
33.091208778661588
30
0
10
-15.238410281317165
20
33.006624721330503
30
0
0
LINE
5
106
100
AcDbEntity
8
0
100
AcDbLine
10
-15.238410281317165
20
33.006624721330503
30
0
11
-15.238410281317165
21
33.481386147779325
31
0
0
SPLINE
5
107
100
AcDbEntity
8
0
100
AcDbSpline
70
0
71
2
72
6
73
3
74
0
42
0.000000001
43
0.0000000001
44
0.0000000001
40
0
40
0
40
0
40
1
40
1
40
1
10
-15.238410281317165
20
33.481386147779325
30
0
10
-14.826404797213009
20
33.675110482019285
30
0
10
-14.518082933800152
20
33.950690172952513
30
0
0
SPLINE
5
108
100
AcDbEntity
8
0
100
AcDbSpline
70
0
71
2
72
6
73
3
74
0
42
0.000000001
43
0.0000000001
44
0.0000000001
40
0
40
0
40
0
40
1
40
1
40
1
10
-14.518082933800152
20
33.950690172952513
30
0
10
-14.209760921375683
20
34.226270161908964
30
0
10
-14.08152078308337
20
34.485478841108183
30
0
0
LINE
5
109
100
AcDbEntity
8
0
100
AcDbLine
10
-14.08152078308337
20
34.485478841108183
30
0
11
-13.765013264791897
21
34.485478841108183
31
0
0
LINE
5
110
100
AcDbEntity
8
0
100
AcDbLine
10
-13.765013264791897
20
34.485478841108183
30
0
11
-13.765013264791897
21
30.469107769769529
31
0
0
SPLINE
5
111
100
AcDbEntity
8
0
100
AcDbSpline
70
0
71
2
72
6
73
3
74
0
42
0.000000001
43
0.0000000001
44
0.0000000001
40
0
40
0
40
0
40
1
40
1
40
1
10
-12.507168846504619
20
32.441822730344633
30
0
10
-12.507168846504619
20
33.151236020368437
30
0
10
-12.361193495171001
20
33.583705269140104
30
0
0
SPLINE
5
112
100
AcDbEntity
8
0
100
AcDbSpline
70
0
71
2
72
6
73
3
74
0
42
0.000000001
43
0.0000000001
44
0.0000000001
40
0
40
0
40
0
40
1
40
1
40
1
10
-12.361193495171001
20
33.583705269140104
30
0
10
-12.215217845814159
20
34.016174517911772
30
0
10
-11.927359896080425
20
34.250826679509977
30
0
0
SPLINE
5
113
100
AcDbEntity
8
0
100
AcDbSpline
70
0
71
2
72
6
73
3
74
0
42
0.000000001
43
0.0000000001
44
0.0000000001
40
0
40
0
40
0
40
1
40
1
40
1
10
-11.927359896080425
20
34.250826679509977
30
0
10
-11.639501648323467
20
34.485478841108183
30
0
10
-11.202939646618297
20
34.485478841108183
30
0
0
SPLINE
5
114
100
AcDbEntity
8
0
100
AcDbSpline
70
0
71
2
72
6
73
3
74
0
42
0.000000001
43
0.0000000001
44
0.0000000001
40
0
40
0
40
0
40
1
40
1
40
1
10
-11.202939646618297
20
34.485478841108183
30
0
10
-10.880975025074413
20
34.485478841108183
30
0
10
-10.638137357609203
20
34.355874501508573
30
0
0
SPLINE
5
115
100
AcDbEntity
8
0
100
AcDbSpline
70
0
71
2
72
6
73
3
74
0
42
0.000000001
43
0.0000000001
44
0.0000000001
40
0
40
0
40
0
40
1
40
1
40
1
10
-10.638137357609203
20
34.355874501508573
30
0
10
-10.395299690143993
20
34.226270161908964
30
0
10
-10.237046378033092
20
33.982068144124845
30
0
0
SPLINE
5
116
100
AcDbEntity
8
0
100
AcDbSpline
70
0
71
2
72
6
73
3
74
0
42
0.000000001
43
0.0000000001
44
0.0000000001
40
0
40
0
40
0
40
1
40
1
40
1
10
-10.237046378033092
20
33.982068144124845
30
0
10
-10.078792469875744
20
33.737866424363951
30
0
10
-9.9887513092922475
20
33.387252532285551
30
0
0
SPLINE
5
117
100
AcDbEntity
8
0
100
AcDbSpline
70
0
71
2
72
6
73
3
74
0
42
0.000000001
43
0.0000000001
44
0.0000000001
40
0
40
0
40
0
40
1
40
1
40
1
10
-9.9887513092922475
20
33.387252532285551
30
0
10
-9.8987101487087514
20
33.036638640207151
30
0
10
-9.8987101487087514
20
32.441822730344633
30
0
0
SPLINE
5
118
100
AcDbEntity
8
0
100
AcDbSpline
70
0
71
2
72
6
73
3
74
0
42
0.000000001
43
0.0000000001
44
0.0000000001
40
0
40
0
40
0
40
1
40
1
40
1
10
-9.8987101487087514
20
32.441822730344633
30
0
10
-9.8987101487087514
20
31.737866245550016
30
0
10
-10.043321745769909
20
31.305396996778349
30
0
0
SPLINE
5
119
100
AcDbEntity
8
0
100
AcDbSpline
70
0
71
2
72
6
73
3
74
0
42
0.000000001
43
0.0000000001
44
0.0000000001
40
0
40
0
40
0
40
1
40
1
40
1
10
-10.043321745769909
20
31.305396996778349
30
0
10
-10.187932746784618
20
30.872927748006681
30
0
10
-10.475790994541576
20
30.636911236089567
30
0
0
SPLINE
5
120
100
AcDbEntity
8
0
100
AcDbSpline
70
0
71
2
72
6
73
3
74
0
42
0.000000001
43
0.0000000001
44
0.0000000001
40
0
40
0
40
0
40
1
40
1
40
1
10
-10.475790994541576
20
30.636911236089567
30
0
10
-10.763649242298534
20
30.400895022195677
30
0
10
-11.202939646618297
20
30.400895022195677
30
0
0
SPLINE
5
121
100
AcDbEntity
8
0
100
AcDbSpline
70
0
71
2
72
6
73
3
74
0
42
0.000000001
43
0.0000000001
44
0.0000000001
40
0
40
0
40
0
40
1
40
1
40
1
10
-11.202939646618297
20
30.400895022195677
30
0
10
-11.781384246723583
20
30.400895022195677
30
0
10
-12.111534374134472
20
30.815628908914427
30
0
0
SPLINE
5
122
100
AcDbEntity
8
0
100
AcDbSpline
70
0
71
2
72
6
73
3
74
0
42
0.000000001
43
0.0000000001
44
0.0000000001
40
0
40
0
40
0
40
1
40
1
40
1
10
-12.111534374134472
20
30.815628908914427
30
0
10
-12.507168846504619
20
31.314946852964262
30
0
10
-12.507168846504619
20
32.441822730344633
30
0
0
SPLINE
5
123
100
AcDbEntity
8
0
100
AcDbSpline
70
0
71
2
72
6
73
3
74
0
42
0.000000001
43
0.0000000001
44
0.0000000001
40
0
40
0
40
0
40
1
40
1
40
1
10
-12.002394097225597
20
32.441822730344633
30
0
10
-12.002394097225597
20
31.456829451364378
30
0
10
-11.771834688560894
20
31.130772076886991
30
0
0
SPLINE
5
124
100
AcDbEntity
8
0
100
AcDbSpline
70
0
71
2
72
6
73
3
74
0
42
0.000000001
43
0.0000000001
44
0.0000000001
40
0
40
0
40
0
40
1
40
1
40
1
10
-11.771834688560894
20
31.130772076886991
30
0
10
-11.54127527989619
20
30.804714702409605
30
0
10
-11.202939646618297
20
30.804714702409605
30
0
0
SPLINE
5
125
100
AcDbEntity
8
0
100
AcDbSpline
70
0
71
2
72
6
73
3
74
0
42
0.000000001
43
0.0000000001
44
0.0000000001
40
0
40
0
40
0
40
1
40
1
40
1
10
-11.202939646618297
20
30.804714702409605
30
0
10
-10.864604013340404
20
30.804714702409605
30
0
10
-10.634044902698925
20
31.1321364272059
30
0
0
SPLINE
5
126
100
AcDbEntity
8
0
100
AcDbSpline
70
0
71
2
72
6
73
3
74
0
42
0.000000001
43
0.0000000001
44
0.0000000001
40
0
40
0
40
0
40
1
40
1
40
1
10
-10.634044902698925
20
31.1321364272059
30
0
10
-10.403485196010998
20
31.459557853978971
30
0
10
-10.403485196010998
20
32.441822730344633
30
0
0
SPLINE
5
127
100
AcDbEntity
8
0
100
AcDbSpline
70
0
71
2
72
6
73
3
74
0
42
0.000000001
43
0.0000000001
44
0.0000000001
40
0
40
0
40
0
40
1
40
1
40
1
10
-10.403485196010998
20
32.441822730344633
30
0
10
-10.403485196010998
20
33.429544411939482
30
0
10
-10.634044902698925
20
33.754237436097959
30
0
0
SPLINE
5
128
100
AcDbEntity
8
0
100
AcDbSpline
70
0
71
2
72
6
73
3
74
0
42
0.000000001
43
0.0000000001
44
0.0000000001
40
0
40
0
40
0
40
1
40
1
40
1
10
-10.634044902698925
20
33.754237436097959
30
0
10
-10.864604013340404
20
34.078930460256437
30
0
10
-11.208396749870708
20
34.078930460256437
30
0
0
SPLINE
5
129
100
AcDbEntity
8
0
100
AcDbSpline
70
0
71
2
72
6
73
3
74
0
42
0.000000001
43
0.0000000001
44
0.0000000001
40
0
40
0
40
0
40
1
40
1
40
1
10
-11.208396749870708
20
34.078930460256437
30
0
10
-11.546732383148601
20
34.078930460256437
30
0
10
-11.748642223255565
20
33.792436562818388
30
0
0
SPLINE
5
130
100
AcDbEntity
8
0
100
AcDbSpline
70
0
71
2
72
6
73
3
74
0
42
0.000000001
43
0.0000000001
44
0.0000000001
40
0
40
0
40
0
40
1
40
1
40
1
10
-11.748642223255565
20
33.792436562818388
30
0
10
-12.002394097225597
20
33.426815711301664
30
0
10
-12.002394097225597
20
32.441822730344633
30
0
0
LINE
5
131
100
AcDbEntity
8
0
100
AcDbLine
10
-6.8509613446163442
20
33.48957165364633
30
0
11
-7.3393647841381338
21
33.451372526925901
31
0
0
SPLINE
5
132
100
AcDbEntity
8
0
100
AcDbSpline
70
0
71
2
72
6
73
3
74
0
42
0.000000001
43
0.0000000001
44
0.0000000001
40
0
40
0
40
0
40
1
40
1
40
1
10
-7.3393647841381338
20
33.451372526925901
30
0
10
-7.4048494271206167
20
33.740594826978544
30
0
10
-7.524903910534313
20
33.871563516897062
30
0
0
SPLINE
5
133
100
AcDbEntity
8
0
100
AcDbSpline
70
0
71
2
72
6
73
3
74
0
42
0.000000001
43
0.0000000001
44
0.0000000001
40
0
40
0
40
0
40
1
40
1
40
1
10
-7.524903910534313
20
33.871563516897062
30
0
10
-7.7240853480266836
20
34.081658862871031
30
0
10
-8.0160360506939199
20
34.081658862871031
30
0
0
SPLINE
5
134
100
AcDbEntity
8
0
100
AcDbSpline
70
0
71
2
72
6
73
3
74
0
42
0.000000001
43
0.0000000001
44
0.0000000001
40
0
40
0
40
0
40
1
40
1
40
1
10
-8.0160360506939199
20
34.081658862871031
30
0
10
-8.2506882122921255
20
34.081658862871031
30
0
10
-8.4280418328213003
20
33.950690470975736
30
0
0
SPLINE
5
135
100
AcDbEntity
8
0
100
AcDbSpline
70
0
71
2
72
6
73
3
74
0
42
0.000000001
43
0.0000000001
44
0.0000000001
40
0
40
0
40
0
40
1
40
1
40
1
10
-8.4280418328213003
20
33.950690470975736
30
0
10
-8.6599652937816884
20
33.78152265433679
30
0
10
-8.7936620882915761
20
33.456829630178312
30
0
0
SPLINE
5
136
100
AcDbEntity
8
0
100
AcDbSpline
70
0
71
2
72
6
73
3
74
0
42
0.000000001
43
0.0000000001
44
0.0000000001
40
0
40
0
40
0
40
1
40
1
40
1
10
-8.7936620882915761
20
33.456829630178312
30
0
10
-8.9273594788479116
20
33.13213630799661
30
0
10
-8.9328162840770986
20
32.531863592904905
30
0
0
SPLINE
5
137
100
AcDbEntity
8
0
100
AcDbSpline
70
0
71
2
72
6
73
3
74
0
42
0.000000001
43
0.0000000001
44
0.0000000001
40
0
40
0
40
0
40
1
40
1
40
1
10
-8.9328162840770986
20
32.531863592904905
30
0
10
-8.7554632595943716
20
32.801986180585722
30
0
10
-8.4989832810329702
20
32.93295487050424
30
0
0
SPLINE
5
138
100
AcDbEntity
8
0
100
AcDbSpline
70
0
71
2
72
6
73
3
74
0
42
0.000000001
43
0.0000000001
44
0.0000000001
40
0
40
0
40
0
40
1
40
1
40
1
10
-8.4989832810329702
20
32.93295487050424
30
0
10
-8.2425027064251211
20
33.063923560422758
30
0
10
-7.9614662102627065
20
33.063923560422758
30
0
0
SPLINE
5
139
100
AcDbEntity
8
0
100
AcDbSpline
70
0
71
2
72
6
73
3
74
0
42
0.000000001
43
0.0000000001
44
0.0000000001
40
0
40
0
40
0
40
1
40
1
40
1
10
-7.9614662102627065
20
33.063923560422758
30
0
10
-7.4703334740566518
20
33.063923560422758
30
0
10
-7.1251766852306631
20
32.702395461839536
30
0
0
SPLINE
5
140
100
AcDbEntity
8
0
100
AcDbSpline
70
0
71
2
72
6
73
3
74
0
42
0.000000001
43
0.0000000001
44
0.0000000001
40
0
40
0
40
0
40
1
40
1
40
1
10
-7.1251766852306631
20
32.702395461839536
30
0
10
-6.7800198964046743
20
32.340867661279539
30
0
10
-6.7800198964046743
20
31.76787986640344
30
0
0
SPLINE
5
141
100
AcDbEntity
8
0
100
AcDbSpline
70
0
71
2
72
6
73
3
74
0
42
0.000000001
43
0.0000000001
44
0.0000000001
40
0
40
0
40
0
40
1
40
1
40
1
10
-6.7800198964046743
20
31.76787986640344
30
0
10
-6.7800198964046743
20
31.391345106405119
30
0
10
-6.9423662594723012
20
31.06801643256555
30
0
0
SPLINE
5
142
100
AcDbEntity
8
0
100
AcDbSpline
70
0
71
2
72
6
73
3
74
0
42
0.000000001
43
0.0000000001
44
0.0000000001
40
0
40
0
40
0
40
1
40
1
40
1
10
-6.9423662594723012
20
31.06801643256555
30
0
10
-7.1047126225399282
20
30.744687460702757
30
0
10
-7.3884784153866079
20
30.572791241449217
30
0
0
SPLINE
5
143
100
AcDbEntity
8
0
100
AcDbSpline
70
0
71
2
72
6
73
3
74
0
42
0.000000001
43
0.0000000001
44
0.0000000001
40
0
40
0
40
0
40
1
40
1
40
1
10
-7.3884784153866079
20
30.572791241449217
30
0
10
-7.6722436121868398
20
30.400895022195677
30
0
10
-8.0324070624279287
20
30.400895022195677
30
0
0
SPLINE
5
144
100
AcDbEntity
8
0
100
AcDbSpline
70
0
71
2
72
6
73
3
74
0
42
0.000000001
43
0.0000000001
44
0.0000000001
40
0
40
0
40
0
40
1
40
1
40
1
10
-8.0324070624279287
20
30.400895022195677
30
0
10
-8.6463223866390493
20
30.400895022195677
30
0
10
-9.0337716511654165
20
30.85246398333917
30
0
0
SPLINE
5
145
100
AcDbEntity
8
0
100
AcDbSpline
70
0
71
2
72
6
73
3
74
0
42
0.000000001
43
0.0000000001
44
0.0000000001
40
0
40
0
40
0
40
1
40
1
40
1
10
-9.0337716511654165
20
30.85246398333917
30
0
10
-9.4212203196453359
20
31.30403264645944
30
0
10
-9.4212203196453359
20
32.340867661279539
30
0
0
SPLINE
5
146
100
AcDbEntity
8
0
100
AcDbSpline
70
0
71
2
72
6
73
3
74
0
42
0.000000001
43
0.0000000001
44
0.0000000001
40
0
40
0
40
0
40
1
40
1
40
1
10
-9.4212203196453359
20
32.340867661279539
30
0
10
-9.4212203196453359
20
33.500485562127928
30
0
10
-8.9928435257839467
20
34.027088724416593
30
0
0
SPLINE
5
147
100
AcDbEntity
8
0
100
AcDbSpline
70
0
71
2
72
6
73
3
74
0
42
0.000000001
43
0.0000000001
44
0.0000000001
40
0
40
0
40
0
40
1
40
1
40
1
10
-8.9928435257839467
20
34.027088724416593
30
0
10
-8.6190377644466665
20
34.485478841108183
30
0
10
-7.9860227278637197
20
34.485478841108183
30
0
0
SPLINE
5
148
100
AcDbEntity
8
0
100
AcDbSpline
70
0
71
2
72
6
73
3
74
0
42
0.000000001
43
0.0000000001
44
0.0000000001
40
0
40
0
40
0
40
1
40
1
40
1
10
-7.9860227278637197
20
34.485478841108183
30
0
10
-7.5139897040294912
20
34.485478841108183
30
0
10
-7.2124891451763418
20
34.220813058656553
30
0
0
SPLINE
5
149
100
AcDbEntity
8
0
100
AcDbSpline
70
0
71
2
72
6
73
3
74
0
42
0.000000001
43
0.0000000001
44
0.0000000001
40
0
40
0
40
0
40
1
40
1
40
1
10
-7.2124891451763418
20
34.220813058656553
30
0
10
-6.9109879902767446
20
33.956147276204923
30
0
10
-6.8509613446163442
20
33.48957165364633
30
0
0
SPLINE
5
150
100
AcDbEntity
8
0
100
AcDbSpline
70
0
71
2
72
6
73
3
74
0
42
0.000000001
43
0.0000000001
44
0.0000000001
40
0
40
0
40
0
40
1
40
1
40
1
10
-8.8564180306362417
20
31.765151463788847
30
0
10
-8.8564180306362417
20
31.511399887842039
30
0
10
-8.7486421040462758
20
31.279476128858427
30
0
0
SPLINE
5
151
100
AcDbEntity
8
0
100
AcDbSpline
70
0
71
2
72
6
73
3
74
0
42
0.000000001
43
0.0000000001
44
0.0000000001
40
0
40
0
40
0
40
1
40
1
40
1
10
-8.7486421040462758
20
31.279476128858427
30
0
10
-8.6408655814098623
20
31.047552369874815
30
0
10
-8.4471409491466787
20
30.92613353614221
30
0
0
SPLINE
5
152
100
AcDbEntity
8
0
100
AcDbSpline
70
0
71
2
72
6
73
3
74
0
42
0.000000001
43
0.0000000001
44
0.0000000001
40
0
40
0
40
0
40
1
40
1
40
1
10
-8.4471409491466787
20
30.92613353614221
30
0
10
-8.2534169129299428
20
30.804714702409605
30
0
10
-8.0405925682949331
20
30.804714702409605
30
0
0
SPLINE
5
153
100
AcDbEntity
8
0
100
AcDbSpline
70
0
71
2
72
6
73
3
74
0
42
0.000000001
43
0.0000000001
44
0.0000000001
40
0
40
0
40
0
40
1
40
1
40
1
10
-8.0405925682949331
20
30.804714702409605
30
0
10
-7.7295421532558706
20
30.804714702409605
30
0
10
-7.5058041981624868
20
31.055737875741819
30
0
0
SPLINE
5
154
100
AcDbEntity
8
0
100
AcDbSpline
70
0
71
2
72
6
73
3
74
0
42
0.000000001
43
0.0000000001
44
0.0000000001
40
0
40
0
40
0
40
1
40
1
40
1
10
-7.5058041981624868
20
31.055737875741819
30
0
10
-7.282066243069103
20
31.306761347097257
30
0
10
-7.282066243069103
20
31.737866245550016
30
0
0
SPLINE
5
155
100
AcDbEntity
8
0
100
AcDbSpline
70
0
71
2
72
6
73
3
74
0
42
0.000000001
43
0.0000000001
44
0.0000000001
40
0
40
0
40
0
40
1
40
1
40
1
10
-7.282066243069103
20
31.737866245550016
30
0
10
-7.282066243069103
20
32.152600132268766
30
0
10
-7.5030754975246694
20
32.391345046800474
30
0
0
SPLINE
5
156
100
AcDbEntity
8
0
100
AcDbSpline
70
0
71
2
72
6
73
3
74
0
42
0.000000001
43
0.0000000001
44
0.0000000001
40
0
40
0
40
0
40
1
40
1
40
1
10
-7.5030754975246694
20
32.391345046800474
30
0
10
-7.7240853480266836
20
32.630089961332182
30
0
10
-8.0596922806667592
20
32.630089961332182
30
0
0
SPLINE
5
157
100
AcDbEntity
8
0
100
AcDbSpline
70
0
71
2
72
6
73
3
74
0
42
0.000000001
43
0.0000000001
44
0.0000000001
40
0
40
0
40
0
40
1
40
1
40
1
10
-8.0596922806667592
20
32.630089961332182
30
0
10
-8.3925711087154653
20
32.630089961332182
30
0
10
-8.6244945696758535
20
32.391345046800474
30
0
0
SPLINE
5
158
100
AcDbEntity
8
0
100
AcDbSpline
70
0
71
2
72
6
73
3
74
0
42
0.000000001
43
0.0000000001
44
0.0000000001
40
0
40
0
40
0
40
1
40
1
40
1
10
-8.6244945696758535
20
32.391345046800474
30
0
10
-8.8564180306362417
20
32.152600132268766
30
0
10
-8.8564180306362417
20
31.765151463788847
30
0
0
SPLINE
5
159
100
AcDbEntity
8
0
100
AcDbSpline
70
0
71
2
72
6
73
3
74
0
42
0.000000001
43
0.0000000001
44
0.0000000001
40
0
40
0
40
0
40
1
40
1
40
1
10
-5.5358182362484243
20
32.638275467199186
30
0
10
-5.841411250011852
20
32.750144444745878
30
0
10
-5.9887515477108266
20
32.957511686128477
30
0
0
SPLINE
5
160
100
AcDbEntity
8
0
100
AcDbSpline
70
0
71
2
72
6
73
3
74
0
42
0.000000001
43
0.0000000001
44
0.0000000001
40
0
40
0
40
0
40
1
40
1
40
1
10
-5.9887515477108266
20
32.957511686128477
30
0
10
-6.1360912493633535
20
33.164878629487852
30
0
10
-6.1360912493633535
20
33.454100929540495
30
0
0
SPLINE
5
161
100
AcDbEntity
8
0
100
AcDbSpline
70
0
71
2
72
6
73
3
74
0
42
0.000000001
43
0.0000000001
44
0.0000000001
40
0
40
0
40
0
40
1
40
1
40
1
10
-6.1360912493633535
20
33.454100929540495
30
0
10
-6.1360912493633535
20
33.890662931245664
30
0
10
-5.8223115376400258
20
34.188071035188536
30
0
0
SPLINE
5
162
100
AcDbEntity
8
0
100
AcDbSpline
70
0
71
2
72
6
73
3
74
0
42
0.000000001
43
0.0000000001
44
0.0000000001
40
0
40
0
40
0
40
1
40
1
40
1
10
-5.8223115376400258
20
34.188071035188536
30
0
10
-5.5085336140560415
20
34.485478841108183
30
0
10
-4.9873875550197866
20
34.485478841108183
30
0
0
SPLINE
5
163
100
AcDbEntity
8
0
100
AcDbSpline
70
0
71
2
72
6
73
3
74
0
42
0.000000001
43
0.0000000001
44
0.0000000001
40
0
40
0
40
0
40
1
40
1
40
1
10
-4.9873875550197866
20
34.485478841108183
30
0
10
-4.4635127953457143
20
34.485478841108183
30
0
10
-4.1442762783931997
20
34.181249581617216
30
0
0
SPLINE
5
164
100
AcDbEntity
8
0
100
AcDbSpline
70
0
71
2
72
6
73
3
74
0
42
0.000000001
43
0.0000000001
44
0.0000000001
40
0
40
0
40
0
40
1
40
1
40
1
10
-4.1442762783931997
20
34.181249581617216
30
0
10
-3.8250409535335805
20
33.877020620149473
30
0
10
-3.8250409535335805
20
33.440458320421079
30
0
0
SPLINE
5
165
100
AcDbEntity
8
0
100
AcDbSpline
70
0
71
2
72
6
73
3
74
0
42
0.000000001
43
0.0000000001
44
0.0000000001
40
0
40
0
40
0
40
1
40
1
40
1
10
-3.8250409535335805
20
33.440458320421079
30
0
10
-3.8250409535335805
20
33.162150226873258
30
0
10
-3.9710163048671987
20
32.956147335809568
30
0
0
SPLINE
5
166
100
AcDbEntity
8
0
100
AcDbSpline
70
0
71
2
72
6
73
3
74
0
42
0.000000001
43
0.0000000001
44
0.0000000001
40
0
40
0
40
0
40
1
40
1
40
1
10
-3.9710163048671987
20
32.956147335809568
30
0
10
-4.1169916562008169
20
32.750144444745878
30
0
10
-4.414399760143688
20
32.638275467199186
30
0
0
SPLINE
5
167
100
AcDbEntity
8
0
100
AcDbSpline
70
0
71
2
72
6
73
3
74
0
42
0.000000001
43
0.0000000001
44
0.0000000001
40
0
40
0
40
0
40
1
40
1
40
1
10
-4.414399760143688
20
32.638275467199186
30
0
10
-4.0460502079891469
20
32.51822098378549
30
0
10
-3.8536893299984243
20
32.250826798719267
30
0
0
SPLINE
5
168
100
AcDbEntity
8
0
100
AcDbSpline
70
0
71
2
72
6
73
3
74
0
42
0.000000001
43
0.0000000001
44
0.0000000001
40
0
40
0
40
0
40
1
40
1
40
1
10
-3.8536893299984243
20
32.250826798719267
30
0
10
-3.6613296441005971
20
31.98343231562982
30
0
10
-3.6613296441005971
20
31.612354658883909
30
0
0
SPLINE
5
169
100
AcDbEntity
8
0
100
AcDbSpline
70
0
71
2
72
6
73
3
74
0
42
0.000000001
43
0.0000000001
44
0.0000000001
40
0
40
0
40
0
40
1
40
1
40
1
10
-3.6613296441005971
20
31.612354658883909
30
0
10
-3.6613296441005971
20
31.099394105714659
30
0
10
-4.0242217949795034
20
30.750144563955168
30
0
0
SPLINE
5
170
100
AcDbEntity
8
0
100
AcDbSpline
70
0
71
2
72
6
73
3
74
0
42
0.000000001
43
0.0000000001
44
0.0000000001
40
0
40
0
40
0
40
1
40
1
40
1
10
-4.0242217949795034
20
30.750144563955168
30
0
10
-4.3871139458584096
20
30.400895022195677
30
0
10
-4.9792014531063344
20
30.400895022195677
30
0
0
SPLINE
5
171
100
AcDbEntity
8
0
100
AcDbSpline
70
0
71
2
72
6
73
3
74
0
42
0.000000001
43
0.0000000001
44
0.0000000001
40
0
40
0
40
0
40
1
40
1
40
1
10
-4.9792014531063344
20
30.400895022195677
30
0
10
-5.5712889603542592
20
30.400895022195677
30
0
10
-5.9341811112331655
20
30.751508914274076
30
0
0
SPLINE
5
172
100
AcDbEntity
8
0
100
AcDbSpline
70
0
71
2
72
6
73
3
74
0
42
0.000000001
43
0.0000000001
44
0.0000000001
40
0
40
0
40
0
40
1
40
1
40
1
10
-5.9341811112331655
20
30.751508914274076
30
0
10
-6.2970732621120717
20
31.102122806352476
30
0
10
-6.2970732621120717
20
31.625997268003324
30
0
0
SPLINE
5
173
100
AcDbEntity
8
0
100
AcDbSpline
70
0
71
2
72
6
73
3
74
0
42
0.000000001
43
0.0000000001
44
0.0000000001
40
0
40
0
40
0
40
1
40
1
40
1
10
-6.2970732621120717
20
31.625997268003324
30
0
10
-6.2970732621120717
20
32.016174637121061
30
0
10
-6.0992561749386098
20
32.279476069253782
30
0
0
SPLINE
5
174
100
AcDbEntity
8
0
100
AcDbSpline
70
0
71
2
72
6
73
3
74
0
42
0.000000001
43
0.0000000001
44
0.0000000001
40
0
40
0
40
0
40
1
40
1
40
1
10
-6.0992561749386098
20
32.279476069253782
30
0
10
-5.9014390877651479
20
32.542777501386503
30
0
10
-5.5358182362484243
20
32.638275467199186
30
0
0
SPLINE
5
175
100
AcDbEntity
8
0
100
AcDbSpline
70
0
71
2
72
6
73
3
74
0
42
0.000000001
43
0.0000000001
44
0.0000000001
40
0
40
0
40
0
40
1
40
1
40
1
10
-5.634044306652477
20
33.470471941274504
30
0
10
-5.634044306652477
20
33.186706744474272
30
0
10
-5.451234476940563
20
33.006624721330503
30
0
0
SPLINE
5
176
100
AcDbEntity
8
0
100
AcDbSpline
70
0
71
2
72
6
73
3
74
0
42
0.000000001
43
0.0000000001
44
0.0000000001
40
0
40
0
40
0
40
1
40
1
40
1
10
-5.451234476940563
20
33.006624721330503
30
0
10
-5.2684234551357534
20
32.826542996209959
30
0
10
-4.9764727524685171
20
32.826542996209959
30
0
0
SPLINE
5
177
100
AcDbEntity
8
0
100
AcDbSpline
70
0
71
2
72
6
73
3
74
0
42
0.000000001
43
0.0000000001
44
0.0000000001
40
0
40
0
40
0
40
1
40
1
40
1
10
-4.9764727524685171
20
32.826542996209959
30
0
10
-4.6927081517147329
20
32.826542996209959
30
0
10
-4.5112620762752798
20
33.005260669034818
30
0
0
SPLINE
5
178
100
AcDbEntity
8
0
100
AcDbSpline
70
0
71
2
72
6
73
3
74
0
42
0.000000001
43
0.0000000001
44
0.0000000001
40
0
40
0
40
0
40
1
40
1
40
1
10
-4.5112620762752798
20
33.005260669034818
30
0
10
-4.3298160008358266
20
33.183978341859678
30
0
10
-4.3298160008358266
20
33.443187021058897
30
0
0
SPLINE
5
179
100
AcDbEntity
8
0
100
AcDbSpline
70
0
71
2
72
6
73
3
74
0
42
0.000000001
43
0.0000000001
44
0.0000000001
40
0
40
0
40
0
40
1
40
1
40
1
10
-4.3298160008358266
20
33.443187021058897
30
0
10
-4.3298160008358266
20
33.713309608739713
30
0
10
-4.516718285458019
20
33.897484384816984
30
0
0
SPLINE
5
180
100
AcDbEntity
8
0
100
AcDbSpline
70
0
71
2
72
6
73
3
74
0
42
0.000000001
43
0.0000000001
44
0.0000000001
40
0
40
0
40
0
40
1
40
1
40
1
10
-4.516718285458019
20
33.897484384816984
30
0
10
-4.7036217621731069
20
34.081658862871031
30
0
10
-4.9819301537441518
20
34.081658862871031
30
0
0
SPLINE
5
181
100
AcDbEntity
8
0
100
AcDbSpline
70
0
71
2
72
6
73
3
74
0
42
0.000000001
43
0.0000000001
44
0.0000000001
40
0
40
0
40
0
40
1
40
1
40
1
10
-4.9819301537441518
20
34.081658862871031
30
0
10
-5.2629672459530141
20
34.081658862871031
30
0
10
-5.4485057763027456
20
33.901577137750486
30
0
0
SPLINE
5
182
100
AcDbEntity
8
0
100
AcDbSpline
70
0
71
2
72
6
73
3
74
0
42
0.000000001
43
0.0000000001
44
0.0000000001
40
0
40
0
40
0
40
1
40
1
40
1
10
-5.4485057763027456
20
33.901577137750486
30
0
10
-5.634044306652477
20
33.721495114606718
30
0
10
-5.634044306652477
20
33.470471941274504
30
0
0
SPLINE
5
183
100
AcDbEntity
8
0
100
AcDbSpline
70
0
71
2
72
6
73
3
74
0
42
0.000000001
43
0.0000000001
44
0.0000000001
40
0
40
0
40
0
40
1
40
1
40
1
10
-5.7922982148098257
20
31.623268865388731
30
0
10
-5.7922982148098257
20
31.413173221391538
30
0
10
-5.6927071980404165
20
31.216720484536985
30
0
0
SPLINE
5
184
100
AcDbEntity
8
0
100
AcDbSpline
70
0
71
2
72
6
73
3
74
0
42
0.000000001
43
0.0000000001
44
0.0000000001
40
0
40
0
40
0
40
1
40
1
40
1
10
-5.6927071980404165
20
31.216720484536985
30
0
10
-5.5931173733639028
20
31.020267449659208
30
0
10
-5.3966640404629018
20
30.912491225046018
30
0
0
SPLINE
5
185
100
AcDbEntity
8
0
100
AcDbSpline
70
0
71
2
72
6
73
3
74
0
42
0.000000001
43
0.0000000001
44
0.0000000001
40
0
40
0
40
0
40
1
40
1
40
1
10
-5.3966640404629018
20
30.912491225046018
30
0
10
-5.2002107075619008
20
30.804714702409605
30
0
10
-4.9737440518306997
20
30.804714702409605
30
0
0
SPLINE
5
186
100
AcDbEntity
8
0
100
AcDbSpline
70
0
71
2
72
6
73
3
74
0
42
0.000000001
43
0.0000000001
44
0.0000000001
40
0
40
0
40
0
40
1
40
1
40
1
10
-4.9737440518306997
20
30.804714702409605
30
0
10
-4.621766703503063
20
30.804714702409605
30
0
10
-4.3925713471340444
20
31.031181358140806
30
0
0
SPLINE
5
187
100
AcDbEntity
8
0
100
AcDbSpline
70
0
71
2
72
6
73
3
74
0
42
0.000000001
43
0.0000000001
44
0.0000000001
40
0
40
0
40
0
40
1
40
1
40
1
10
-4.3925713471340444
20
31.031181358140806
30
0
10
-4.1633759907650258
20
31.257648013872007
30
0
10
-4.1633759907650258
20
31.606897555631498
30
0
0
SPLINE
5
188
100
AcDbEntity
8
0
100
AcDbSpline
70
0
71
2
72
6
73
3
74
0
42
0.000000001
43
0.0000000001
44
0.0000000001
40
0
40
0
40
0
40
1
40
1
40
1
10
-4.1633759907650258
20
31.606897555631498
30
0
10
-4.1633759907650258
20
31.9616042006434
30
0
10
-4.3993925026821401
20
32.193527959627012
30
0
0
SPLINE
5
189
100
AcDbEntity
8
0
100
AcDbSpline
70
0
71
2
72
6
73
3
74
0
42
0.000000001
43
0.0000000001
44
0.0000000001
40
0
40
0
40
0
40
1
40
1
40
1
10
-4.3993925026821401
20
32.193527959627012
30
0
10
-4.6354090145992544
20
32.4254514205874
30
0
10
-4.9901150635647085
20
32.4254514205874
30
0
0
SPLINE
5
190
100
AcDbEntity
8
0
100
AcDbSpline
70
0
71
2
72
6
73
3
74
0
42
0.000000001
43
0.0000000001
44
0.0000000001
40
0
40
0
40
0
40
1
40
1
40
1
10
-4.9901150635647085
20
32.4254514205874
30
0
10
-5.3366362027096059
20
32.4254514205874
30
0
10
-5.5644678048061635
20
32.196256362241606
30
0
0
SPLINE
5
191
100
AcDbEntity
8
0
100
AcDbSpline
70
0
71
2
72
6
73
3
74
0
42
0.000000001
43
0.0000000001
44
0.0000000001
40
0
40
0
40
0
40
1
40
1
40
1
10
-5.5644678048061635
20
32.196256362241606
30
0
10
-5.7922982148098257
20
31.967061303895811
30
0
10
-5.7922982148098257
20
31.623268865388731
30
0
0
ENDSEC
0
SECTION
2
OBJECTS
0
DICTIONARY
5
C
100
AcDbDictionary
3
ACAD_GROUP
350
D
3
ACAD_MLINESTYLE
350
17
0
DICTIONARY
5
D
100
AcDbDictionary
0
DICTIONARY
5
1A
330
C
100
AcDbDictionary
0
DICTIONARY
5
17
100
AcDbDictionary
0
ENDSEC
0
EOF
