0
SECTION
2
HEADER
9
$INSUNITS
70
4
9
$ACADVER
1
AC1014
9
$HANDSEED
5
FFFF
0
ENDSEC
0
SECTION
2
TABLES
0
TABLE
2
VPORT
5
8
100
AcDbSymbolTable
0
ENDTAB
0
TABLE
2
LTYPE
5
5
100
AcDbSymbolTable
0
LTYPE
5
14
100
AcDbSymbolTableRecord
100
AcDbLinetypeTableRecord
2
BYBLOCK
70
0
0
LTYPE
5
15
100
AcDbSymbolTableRecord
100
AcDbLinetypeTableRecord
2
BYLAYER
70
0
0
ENDTAB
0
TABLE
2
LAYER
5
2
100
AcDbSymbolTable
70
2
0
LAYER
5
50
100
AcDbSymbolTableRecord
100
AcDbLayerTableRecord
2
0
70
0
6
CONTINUOUS
0
ENDTAB
0
TABLE
2
STYLE
5
3
100
AcDbSymbolTable
70
1
0
STYLE
5
11
100
AcDbSymbolTableRecord
100
AcDbTextStyleTableRecord
2
STANDARD
70
0
0
ENDTAB
0
TABLE
2
VIEW
5
6
100
AcDbSymbolTable
70
0
0
ENDTAB
0
TABLE
2
UCS
5
7
100
AcDbSymbolTable
70
0
0
ENDTAB
0
TABLE
2
APPID
5
9
100
AcDbSymbolTable
70
2
0
APPID
5
12
100
AcDbSymbolTableRecord
100
AcDbRegAppTableRecord
2
ACAD
70
0
0
ENDTAB
0
TABLE
2
DIMSTYLE
5
A
100
AcDbSymbolTable
70
1
0
ENDTAB
0
TABLE
2
BLOCK_RECORD
5
1
100
AcDbSymbolTable
70
1
0
BLOCK_RECORD
5
1F
100
AcDbSymbolTableRecord
100
AcDbBlockTableRecord
2
*MODEL_SPACE
0
BLOCK_RECORD
5
1B
100
AcDbSymbolTableRecord
100
AcDbBlockTableRecord
2
*PAPER_SPACE
0
ENDTAB
0
ENDSEC
0
SECTION
2
BLOCKS
0
BLOCK
5
20
100
AcDbEntity
100
AcDbBlockBegin
2
*MODEL_SPACE
0
ENDBLK
5
21
100
AcDbEntity
100
AcDbBlockEnd
0
BLOCK
5
1C
100
AcDbEntity
100
AcDbBlockBegin
2
*PAPER_SPACE
0
ENDBLK
5
1D
100
AcDbEntity
100
AcDbBlockEnd
0
ENDSEC
0
SECTION
2
ENTITIES
0
CIRCLE
5
100
100
AcDbEntity
8
0
100
AcDbCircle
10
-15.265993680826462
20
26.362300205187701
30
0
40
6.25
210
0
220
0
230
1
0
LWPOLYLINE
5
101
100
AcDbEntity
8
0
100
AcDbPolyline
90
36
70
1
43
0.0
10
-35.265993680826462
20
39.862300205187701
10
-40.265993680826462
20
39.862300205187701
10
-40.265993680826462
20
48.862300205187701
10
-30.265993680826462
20
48.862300205187701
10
-30.265993680826462
20
43.862300205187701
10
-20.265993680826462
20
43.862300205187701
10
-20.265993680826462
20
48.862300205187701
10
-10.265993680826462
20
48.862300205187701
10
-10.265993680826462
20
43.862300205187701
10
-0.2659936808264618
20
43.862300205187701
10
-0.2659936808264618
20
48.862300205187701
10
9.7340063191735382
20
48.862300205187701
10
9.7340063191735382
20
39.862300205187701
10
4.7340063191735382
20
39.862300205187701
10
4.7340063191735382
20
30.862300205187701
10
9.7340063191735382
20
30.862300205187701
10
9.7340063191735382
20
21.862300205187708
10
4.7340063191735382
20
21.862300205187708
10
4.7340063191735382
20
12.862300205187701
10
9.7340063191735382
20
12.862300205187701
10
9.7340063191735382
20
3.8623002051877009
10
-0.2659936808264618
20
3.8623002051877009
10
-0.2659936808264618
20
8.8623002051877009
10
-10.265993680826462
20
8.8623002051877009
10
-10.265993680826462
20
3.8623002051877009
10
-20.265993680826462
20
3.8623002051877009
10
-20.265993680826462
20
8.8623002051877009
10
-30.265993680826462
20
8.8623002051877009
10
-30.265993680826462
20
3.8623002051877009
10
-40.265993680826462
20
3.8623002051877009
10
-40.265993680826462
20
12.862300205187701
10
-35.265993680826462
20
12.862300205187701
10
-35.265993680826462
20
21.862300205187704
10
-40.265993680826462
20
21.862300205187704
10
-40.265993680826462
20
30.862300205187701
10
-35.265993680826462
20
30.862300205187701
0
LWPOLYLINE
5
102
100
AcDbEntity
8
0
100
AcDbPolyline
90
4
70
1
43
0.0
10
-3.1076397787999088
20
35.545303707724138
10
-15.250878648177363
20
35.523632258048025
10
-15.261753536763369
20
41.617196452015108
10
-3.1185146673859174
20
41.638867901691221
0
LINE
5
103
100
AcDbEntity
8
0
100
AcDbLine
10
-13.411087104697083
20
36.620491284225302
30
0
11
-14.025001451256207
21
36.619395661055073
31
0
0
LINE
5
104
100
AcDbEntity
8
0
100
AcDbLine
10
-14.025001451256205
20
36.61939566105508
30
0
11
-14.031983006555622
21
40.531394855737915
31
0
0
SPLINE
5
105
100
AcDbEntity
8
0
100
AcDbSpline
70
0
71
2
72
6
73
3
74
0
42
0.000000001
43
0.0000000001
44
0.0000000001
40
0
40
0
40
0
40
1
40
1
40
1
10
-14.031983006555622
20
40.531394855737915
30
0
10
-14.253296999885823
20
40.319539854343695
30
0
10
-14.612741557279314
20
40.1074383380287
30
0
0
SPLINE
5
106
100
AcDbEntity
8
0
100
AcDbSpline
70
0
71
2
72
6
73
3
74
0
42
0.000000001
43
0.0000000001
44
0.0000000001
40
0
40
0
40
0
40
1
40
1
40
1
10
-14.612741557279314
20
40.1074383380287
30
0
10
-14.972186263684179
20
39.895336821447771
30
0
10
-15.258491013985115
20
39.789095701708732
30
0
0
LINE
5
107
100
AcDbEntity
8
0
100
AcDbLine
10
-15.258491013985115
20
39.789095701708732
30
0
11
-15.259550116524832
21
40.382546316188623
31
0
0
SPLINE
5
108
100
AcDbEntity
8
0
100
AcDbSpline
70
0
71
2
72
6
73
3
74
0
42
0.000000001
43
0.0000000001
44
0.0000000001
40
0
40
0
40
0
40
1
40
1
40
1
10
-15.259550116524832
20
40.382546316188616
30
0
10
-14.744976318520511
20
40.625620529033888
30
0
10
-14.360189108927514
20
40.970782700373775
30
0
0
SPLINE
5
109
100
AcDbEntity
8
0
100
AcDbSpline
70
0
71
2
72
6
73
3
74
0
42
0.000000001
43
0.0000000001
44
0.0000000001
40
0
40
0
40
0
40
1
40
1
40
1
10
-14.360189108927514
20
40.970782700373775
30
0
10
-13.975402047814029
20
41.315944573424972
30
0
10
-13.815680413541763
20
41.640241283888471
30
0
0
LINE
5
110
100
AcDbEntity
8
0
100
AcDbLine
10
-13.815680413541763
20
41.640241283888471
30
0
11
-13.420046869237005
21
41.640947351893715
31
0
0
LINE
5
111
100
AcDbEntity
8
0
100
AcDbLine
10
-13.420046869237003
20
41.640947351893715
30
0
11
-13.411087104697081
21
36.620491284225302
31
0
0
SPLINE
5
112
100
AcDbEntity
8
0
100
AcDbSpline
70
0
71
2
72
6
73
3
74
0
42
0.000000001
43
0.0000000001
44
0.0000000001
40
0
40
0
40
0
40
1
40
1
40
1
10
-11.843184802254767
20
39.089186996570881
30
0
10
-11.844767369647171
20
39.975952494959337
30
0
10
-11.663263227883998
20
40.516863689432398
30
0
0
SPLINE
5
113
100
AcDbEntity
8
0
100
AcDbSpline
70
0
71
2
72
6
73
3
74
0
42
0.000000001
43
0.0000000001
44
0.0000000001
40
0
40
0
40
0
40
1
40
1
40
1
10
-11.663263227883998
20
40.516863689432398
30
0
10
-11.481758788629941
20
41.057775182460077
30
0
10
-11.122460016267608
20
41.351731925646639
30
0
0
SPLINE
5
114
100
AcDbEntity
8
0
100
AcDbSpline
70
0
71
2
72
6
73
3
74
0
42
0.000000001
43
0.0000000001
44
0.0000000001
40
0
40
0
40
0
40
1
40
1
40
1
10
-11.122460016267608
20
41.351731925646639
30
0
10
-10.763161541396155
20
41.645688370278577
30
0
10
-10.217459833782991
20
41.646662257659202
30
0
0
SPLINE
5
115
100
AcDbEntity
8
0
100
AcDbSpline
70
0
71
2
72
6
73
3
74
0
42
0.000000001
43
0.0000000001
44
0.0000000001
40
0
40
0
40
0
40
1
40
1
40
1
10
-10.217459833782991
20
41.646662257659202
30
0
10
-9.8150045487472397
20
41.647380500094386
30
0
10
-9.5111691241306513
20
41.485917654001994
30
0
0
SPLINE
5
116
100
AcDbEntity
8
0
100
AcDbSpline
70
0
71
2
72
6
73
3
74
0
42
0.000000001
43
0.0000000001
44
0.0000000001
40
0
40
0
40
0
40
1
40
1
40
1
10
-9.5111691241306513
20
41.485917654001994
30
0
10
-9.2073331018729636
20
41.324453914905092
30
0
10
-9.0089715614770256
20
41.019555061799522
30
0
0
SPLINE
5
117
100
AcDbEntity
8
0
100
AcDbSpline
70
0
71
2
72
6
73
3
74
0
42
0.000000001
43
0.0000000001
44
0.0000000001
40
0
40
0
40
0
40
1
40
1
40
1
10
-9.0089715614770256
20
41.019555061799522
30
0
10
-8.8106100210810858
20
40.714656208693953
30
0
10
-8.69727719249423
20
40.276590479770334
30
0
0
SPLINE
5
118
100
AcDbEntity
8
0
100
AcDbSpline
70
0
71
2
72
6
73
3
74
0
42
0.000000001
43
0.0000000001
44
0.0000000001
40
0
40
0
40
0
40
1
40
1
40
1
10
-8.69727719249423
20
40.276590479770334
30
0
10
-8.5839437678618751
20
39.838524751910448
30
0
10
-8.5826168459467738
20
39.095005974122159
30
0
0
SPLINE
5
119
100
AcDbEntity
8
0
100
AcDbSpline
70
0
71
2
72
6
73
3
74
0
42
0.000000001
43
0.0000000001
44
0.0000000001
40
0
40
0
40
0
40
1
40
1
40
1
10
-8.5826168459467738
20
39.095005974122159
30
0
10
-8.5810464524524512
20
38.215061918441947
30
0
10
-8.7608456060670008
20
37.674153766778574
30
0
0
SPLINE
5
120
100
AcDbEntity
8
0
100
AcDbSpline
70
0
71
2
72
6
73
3
74
0
42
0.000000001
43
0.0000000001
44
0.0000000001
40
0
40
0
40
0
40
1
40
1
40
1
10
-8.7608456060670008
20
37.674153766778574
30
0
10
-8.9406441631041833
20
37.133245318156185
30
0
10
-9.2999401901477121
20
36.83758328826638
30
0
0
SPLINE
5
121
100
AcDbEntity
8
0
100
AcDbSpline
70
0
71
2
72
6
73
3
74
0
42
0.000000001
43
0.0000000001
44
0.0000000001
40
0
40
0
40
0
40
1
40
1
40
1
10
-9.2999401901477121
20
36.83758328826638
30
0
10
-9.6592356200820113
20
36.541920663394819
30
0
10
-10.208347900037925
20
36.540940689331094
30
0
0
SPLINE
5
122
100
AcDbEntity
8
0
100
AcDbSpline
70
0
71
2
72
6
73
3
74
0
42
0.000000001
43
0.0000000001
44
0.0000000001
40
0
40
0
40
0
40
1
40
1
40
1
10
-10.208347900037925
20
36.540940689331094
30
0
10
-10.93140294574698
20
36.539650288046502
30
0
10
-11.34501484264025
20
37.05733031891954
30
0
0
SPLINE
5
123
100
AcDbEntity
8
0
100
AcDbSpline
70
0
71
2
72
6
73
3
74
0
42
0.000000001
43
0.0000000001
44
0.0000000001
40
0
40
0
40
0
40
1
40
1
40
1
10
-11.34501484264025
20
37.05733031891954
30
0
10
-11.84067095532723
20
37.680594393013997
30
0
10
-11.843184802254767
20
39.089186996570881
30
0
0
SPLINE
5
124
100
AcDbEntity
8
0
100
AcDbSpline
70
0
71
2
72
6
73
3
74
0
42
0.000000001
43
0.0000000001
44
0.0000000001
40
0
40
0
40
0
40
1
40
1
40
1
10
-11.212216997936405
20
39.090313054220381
30
0
10
-11.210019664912842
20
37.859073788759389
30
0
10
-10.921093565081302
20
37.452016979505672
30
0
0
SPLINE
5
125
100
AcDbEntity
8
0
100
AcDbSpline
70
0
71
2
72
6
73
3
74
0
42
0.000000001
43
0.0000000001
44
0.0000000001
40
0
40
0
40
0
40
1
40
1
40
1
10
-10.921093565081302
20
37.452016979505672
30
0
10
-10.632167465249761
20
37.044960170251954
30
0
10
-10.209248746157522
20
37.045714932785778
30
0
0
SPLINE
5
126
100
AcDbEntity
8
0
100
AcDbSpline
70
0
71
2
72
6
73
3
74
0
42
0.000000001
43
0.0000000001
44
0.0000000001
40
0
40
0
40
0
40
1
40
1
40
1
10
-10.209248746157522
20
37.045714932785778
30
0
10
-9.7863300270652829
20
37.046469695319601
30
0
10
-9.4988617154949804
20
37.45626045933701
30
0
0
SPLINE
5
127
100
AcDbEntity
8
0
100
AcDbSpline
70
0
71
2
72
6
73
3
74
0
42
0.000000001
43
0.0000000001
44
0.0000000001
40
0
40
0
40
0
40
1
40
1
40
1
10
-9.4988617154949804
20
37.45626045933701
30
0
10
-9.2113934039246796
20
37.866051223354418
30
0
10
-9.2135846502651351
20
39.093879916472659
30
0
0
SPLINE
5
128
100
AcDbEntity
8
0
100
AcDbSpline
70
0
71
2
72
6
73
3
74
0
42
0.000000001
43
0.0000000001
44
0.0000000001
40
0
40
0
40
0
40
1
40
1
40
1
10
-9.2135846502651351
20
39.093879916472659
30
0
10
-9.2157880705036721
20
40.328530052299158
30
0
10
-9.5047111269936586
20
40.733881575381488
30
0
0
SPLINE
5
129
100
AcDbEntity
8
0
100
AcDbSpline
70
0
71
2
72
6
73
3
74
0
42
0.000000001
43
0.0000000001
44
0.0000000001
40
0
40
0
40
0
40
1
40
1
40
1
10
-9.5047111269936586
20
40.733881575381488
30
0
10
-9.7936341829517808
20
41.139232800441086
30
0
10
-10.223374046729516
20
41.138465864541047
30
0
0
SPLINE
5
130
100
AcDbEntity
8
0
100
AcDbSpline
70
0
71
2
72
6
73
3
74
0
42
0.000000001
43
0.0000000001
44
0.0000000001
40
0
40
0
40
0
40
1
40
1
40
1
10
-10.223374046729516
20
41.138465864541047
30
0
10
-10.646292765821757
20
41.137711102007223
30
0
10
-10.89804077412178
20
40.77914402645839
30
0
0
SPLINE
5
131
100
AcDbEntity
8
0
100
AcDbSpline
70
0
71
2
72
6
73
3
74
0
42
0.000000001
43
0.0000000001
44
0.0000000001
40
0
40
0
40
0
40
1
40
1
40
1
10
-10.89804077412178
20
40.77914402645839
30
0
10
-11.214414331491835
20
40.321552617704121
30
0
10
-11.212216997936405
20
39.090313054220381
30
0
0
LINE
5
132
100
AcDbEntity
8
0
100
AcDbLine
10
-4.7752745356545967
20
40.411489142154117
30
0
11
-5.3856924986663728
21
40.362650699864005
31
0
0
SPLINE
5
133
100
AcDbEntity
8
0
100
AcDbSpline
70
0
71
2
72
6
73
3
74
0
42
0.000000001
43
0.0000000001
44
0.0000000001
40
0
40
0
40
0
40
1
40
1
40
1
10
-5.3856924986663728
20
40.362650699864005
30
0
10
-5.468193819716614
20
40.724032138069035
30
0
10
-5.6185535530873354
20
40.887474772436782
30
0
0
SPLINE
5
134
100
AcDbEntity
8
0
100
AcDbSpline
70
0
71
2
72
6
73
3
74
0
42
0.000000001
43
0.0000000001
44
0.0000000001
40
0
40
0
40
0
40
1
40
1
40
1
10
-5.6185535530873354
20
40.887474772436782
30
0
10
-5.8679987855810527
20
41.149649274815673
30
0
10
-6.2329365827555776
20
41.148997988022138
30
0
0
SPLINE
5
135
100
AcDbEntity
8
0
100
AcDbSpline
70
0
71
2
72
6
73
3
74
0
42
0.000000001
43
0.0000000001
44
0.0000000001
40
0
40
0
40
0
40
1
40
1
40
1
10
-6.2329365827555776
20
41.148997988022138
30
0
10
-6.5262511686413971
20
41.148474523701324
30
0
10
-6.7476503771306993
20
40.984368429173827
30
0
0
SPLINE
5
136
100
AcDbEntity
8
0
100
AcDbSpline
70
0
71
2
72
6
73
3
74
0
42
0.000000001
43
0.0000000001
44
0.0000000001
40
0
40
0
40
0
40
1
40
1
40
1
10
-6.7476503771306993
20
40.984368429173827
30
0
10
-7.0371770094068591
20
40.772391691989995
30
0
10
-7.2035743013562143
20
40.366227580756835
30
0
0
SPLINE
5
137
100
AcDbEntity
8
0
100
AcDbSpline
70
0
71
2
72
6
73
3
74
0
42
0.000000001
43
0.0000000001
44
0.0000000001
40
0
40
0
40
0
40
1
40
1
40
1
10
-7.2035743013562143
20
40.366227580756835
30
0
10
-7.3699709977919392
20
39.960063768610169
30
0
10
-7.3754530471961202
20
39.209711672770169
30
0
0
SPLINE
5
138
100
AcDbEntity
8
0
100
AcDbSpline
70
0
71
2
72
6
73
3
74
0
42
0.000000001
43
0.0000000001
44
0.0000000001
40
0
40
0
40
0
40
1
40
1
40
1
10
-7.3754530471961202
20
39.209711672770169
30
0
10
-7.1543642653958193
20
39.547760235028065
30
0
10
-6.8340566713621946
20
39.712043144579617
30
0
0
SPLINE
5
139
100
AcDbEntity
8
0
100
AcDbSpline
70
0
71
2
72
6
73
3
74
0
42
0.000000001
43
0.0000000001
44
0.0000000001
40
0
40
0
40
0
40
1
40
1
40
1
10
-6.8340566713621946
20
39.712043144579617
30
0
10
-6.5137490767967048
20
39.876325756108429
30
0
10
-6.1624535689931701
20
39.876952696169539
30
0
0
SPLINE
5
140
100
AcDbEntity
8
0
100
AcDbSpline
70
0
71
2
72
6
73
3
74
0
42
0.000000001
43
0.0000000001
44
0.0000000001
40
0
40
0
40
0
40
1
40
1
40
1
10
-6.1624535689931701
20
39.876952696169539
30
0
10
-5.548539222434048
20
39.878048319339761
30
0
10
-5.1162875720809691
20
39.426909118530261
30
0
0
SPLINE
5
141
100
AcDbEntity
8
0
100
AcDbSpline
70
0
71
2
72
6
73
3
74
0
42
0.000000001
43
0.0000000001
44
0.0000000001
40
0
40
0
40
0
40
1
40
1
40
1
10
-5.1162875720809691
20
39.426909118530261
30
0
10
-4.6840347291050239
20
38.975769621825471
30
0
10
-4.6827565017185151
20
38.259536018824662
30
0
0
SPLINE
5
142
100
AcDbEntity
8
0
100
AcDbSpline
70
0
71
2
72
6
73
3
74
0
42
0.000000001
43
0.0000000001
44
0.0000000001
40
0
40
0
40
0
40
1
40
1
40
1
10
-4.6827565017185151
20
38.259536018824662
30
0
10
-4.6819165240255867
20
37.788868392865702
30
0
10
-4.8841284649608507
20
37.384345656567561
30
0
0
SPLINE
5
143
100
AcDbEntity
8
0
100
AcDbSpline
70
0
71
2
72
6
73
3
74
0
42
0.000000001
43
0.0000000001
44
0.0000000001
40
0
40
0
40
0
40
1
40
1
40
1
10
-4.8841284649608507
20
37.384345656567561
30
0
10
-5.0863404069598461
20
36.979823516314923
30
0
10
-5.4406624225787432
20
36.764320260722826
30
0
0
SPLINE
5
144
100
AcDbEntity
8
0
100
AcDbSpline
70
0
71
2
72
6
73
3
74
0
42
0.000000001
43
0.0000000001
44
0.0000000001
40
0
40
0
40
0
40
1
40
1
40
1
10
-5.4406624225787432
20
36.764320260722826
30
0
10
-5.7949856302886378
20
36.548817003003265
30
0
10
-6.2451895241683619
20
36.548013545940847
30
0
0
SPLINE
5
145
100
AcDbEntity
8
0
100
AcDbSpline
70
0
71
2
72
6
73
3
74
0
42
0.000000001
43
0.0000000001
44
0.0000000001
40
0
40
0
40
0
40
1
40
1
40
1
10
-6.2451895241683619
20
36.548013545940847
30
0
10
-7.0125826063786389
20
36.546644016712129
30
0
10
-7.4979001849327815
20
37.110240143298682
30
0
0
SPLINE
5
146
100
AcDbEntity
8
0
100
AcDbSpline
70
0
71
2
72
6
73
3
74
0
42
0.000000001
43
0.0000000001
44
0.0000000001
40
0
40
0
40
0
40
1
40
1
40
1
10
-7.4979001849327815
20
37.110240143298682
30
0
10
-7.9832177634869241
20
37.673836269885243
30
0
10
-7.9855307456169911
20
38.969877601949449
30
0
0
SPLINE
5
147
100
AcDbEntity
8
0
100
AcDbSpline
70
0
71
2
72
6
73
3
74
0
42
0.000000001
43
0.0000000001
44
0.0000000001
40
0
40
0
40
0
40
1
40
1
40
1
10
-7.9855307456169911
20
38.969877601949449
30
0
10
-7.9881176343374154
20
40.419397967687551
30
0
10
-7.453822395398717
20
41.078606276101944
30
0
0
SPLINE
5
148
100
AcDbEntity
8
0
100
AcDbSpline
70
0
71
2
72
6
73
3
74
0
42
0.000000001
43
0.0000000001
44
0.0000000001
40
0
40
0
40
0
40
1
40
1
40
1
10
-7.453822395398717
20
41.078606276101944
30
0
10
-6.9875882206507276
20
41.652426452935039
30
0
10
-6.1963205359957154
20
41.653838590009244
30
0
0
SPLINE
5
149
100
AcDbEntity
8
0
100
AcDbSpline
70
0
71
2
72
6
73
3
74
0
42
0.000000001
43
0.0000000001
44
0.0000000001
40
0
40
0
40
0
40
1
40
1
40
1
10
-6.1963205359957154
20
41.653838590009244
30
0
10
-5.6062807918813284
20
41.654891605333987
30
0
10
-5.2288155731403201
20
41.324733015839605
30
0
0
SPLINE
5
150
100
AcDbEntity
8
0
100
AcDbSpline
70
0
71
2
72
6
73
3
74
0
42
0.000000001
43
0.0000000001
44
0.0000000001
40
0
40
0
40
0
40
1
40
1
40
1
10
-5.2288155731403201
20
41.324733015839605
30
0
10
-4.8513491612445803
20
40.994573832427186
30
0
10
-4.7752745356545967
20
40.411489142154117
30
0
0
SPLINE
5
151
100
AcDbEntity
8
0
100
AcDbSpline
70
0
71
2
72
6
73
3
74
0
42
0.000000001
43
0.0000000001
44
0.0000000001
40
0
40
0
40
0
40
1
40
1
40
1
10
-7.278244843597558
20
38.251493393411209
30
0
10
-7.2776787719631226
20
37.934304503103405
30
0
10
-7.1424414026048684
20
37.644640917798
30
0
0
SPLINE
5
152
100
AcDbEntity
8
0
100
AcDbSpline
70
0
71
2
72
6
73
3
74
0
42
0.000000001
43
0.0000000001
44
0.0000000001
40
0
40
0
40
0
40
1
40
1
40
1
10
-7.1424414026048684
20
37.644640917798
30
0
10
-7.0072040332466141
20
37.354977332492595
30
0
10
-6.7647777658305772
20
37.203636046023291
30
0
0
SPLINE
5
153
100
AcDbEntity
8
0
100
AcDbSpline
70
0
71
2
72
6
73
3
74
0
42
0.000000001
43
0.0000000001
44
0.0000000001
40
0
40
0
40
0
40
1
40
1
40
1
10
-6.7647777658305772
20
37.203636046023291
30
0
10
-6.5223514984145403
20
37.052294759553988
30
0
10
-6.256322087316204
20
37.052769529346214
30
0
0
SPLINE
5
154
100
AcDbEntity
8
0
100
AcDbSpline
70
0
71
2
72
6
73
3
74
0
42
0.000000001
43
0.0000000001
44
0.0000000001
40
0
40
0
40
0
40
1
40
1
40
1
10
-6.256322087316204
20
37.052769529346214
30
0
10
-5.867509687696943
20
37.053463423985235
30
0
10
-5.5883979727108102
20
37.367741156497701
30
0
0
SPLINE
5
155
100
AcDbEntity
8
0
100
AcDbSpline
70
0
71
2
72
6
73
3
74
0
42
0.000000001
43
0.0000000001
44
0.0000000001
40
0
40
0
40
0
40
1
40
1
40
1
10
-5.5883979727108102
20
37.367741156497701
30
0
10
-5.3092850656336772
20
37.682018891137623
30
0
10
-5.3102467791162145
20
38.220899156042549
30
0
0
SPLINE
5
156
100
AcDbEntity
8
0
100
AcDbSpline
70
0
71
2
72
6
73
3
74
0
42
0.000000001
43
0.0000000001
44
0.0000000001
40
0
40
0
40
0
40
1
40
1
40
1
10
-5.3102467791162145
20
38.220899156042549
30
0
10
-5.3111719719682409
20
38.739315688868231
30
0
10
-5.5879668870631676
20
39.037253399321898
30
0
0
SPLINE
5
157
100
AcDbEntity
8
0
100
AcDbSpline
70
0
71
2
72
6
73
3
74
0
42
0.000000001
43
0.0000000001
44
0.0000000001
40
0
40
0
40
0
40
1
40
1
40
1
10
-5.5879668870631676
20
39.037253399321898
30
0
10
-5.8647606100670924
20
39.335191111903043
30
0
10
-6.2842687568165836
20
39.334442436052328
30
0
0
SPLINE
5
158
100
AcDbEntity
8
0
100
AcDbSpline
70
0
71
2
72
6
73
3
74
0
42
0.000000001
43
0.0000000001
44
0.0000000001
40
0
40
0
40
0
40
1
40
1
40
1
10
-6.2842687568165836
20
39.334442436052328
30
0
10
-6.7003663312233277
20
39.333699846884713
30
0
10
-6.9897377498890538
20
39.034751726824311
30
0
0
SPLINE
5
159
100
AcDbEntity
8
0
100
AcDbSpline
70
0
71
2
72
6
73
3
74
0
42
0.000000001
43
0.0000000001
44
0.0000000001
40
0
40
0
40
0
40
1
40
1
40
1
10
-6.9897377498890538
20
39.034751726824311
30
0
10
-7.2791091685547791
20
38.735803606763909
30
0
10
-7.278244843597558
20
38.251493393411209
30
0
0
SPLINE
5
160
100
AcDbEntity
8
0
100
AcDbSpline
70
0
71
2
72
6
73
3
74
0
42
0.000000001
43
0.0000000001
44
0.0000000001
40
0
40
0
40
0
40
1
40
1
40
1
10
-3.1294485918514647
20
39.350304738287072
30
0
10
-3.5116894050475556
20
39.489458867248935
30
0
10
-3.696326484254957
20
39.748338446391578
30
0
0
SPLINE
5
161
100
AcDbEntity
8
0
100
AcDbSpline
70
0
71
2
72
6
73
3
74
0
42
0.000000001
43
0.0000000001
44
0.0000000001
40
0
40
0
40
0
40
1
40
1
40
1
10
-3.696326484254957
20
39.748338446391578
30
0
10
-3.8809635639942219
20
40.007218323556984
30
0
10
-3.8816087641046515
20
40.368745548388759
30
0
0
SPLINE
5
162
100
AcDbEntity
8
0
100
AcDbSpline
70
0
71
2
72
6
73
3
74
0
42
0.000000001
43
0.0000000001
44
0.0000000001
40
0
40
0
40
0
40
1
40
1
40
1
10
-3.8816087641046515
20
40.368745548388759
30
0
10
-3.882582651485269
20
40.914447256001921
30
0
10
-3.4910231402148773
20
41.28690647720682
30
0
0
SPLINE
5
163
100
AcDbEntity
8
0
100
AcDbSpline
70
0
71
2
72
6
73
3
74
0
42
0.000000001
43
0.0000000001
44
0.0000000001
40
0
40
0
40
0
40
1
40
1
40
1
10
-3.4910231402148773
20
41.28690647720682
30
0
10
-3.0994636284126198
20
41.659365400388978
30
0
10
-2.4480311979467739
20
41.660527980264575
30
0
0
SPLINE
5
164
100
AcDbEntity
8
0
100
AcDbSpline
70
0
71
2
72
6
73
3
74
0
42
0.000000001
43
0.0000000001
44
0.0000000001
40
0
40
0
40
0
40
1
40
1
40
1
10
-2.4480311979467739
20
41.660527980264575
30
0
10
-1.7931893872291749
20
41.661696644695823
30
0
10
-1.3934665937141522
20
41.282123426667276
30
0
0
SPLINE
5
165
100
AcDbEntity
8
0
100
AcDbSpline
70
0
71
2
72
6
73
3
74
0
42
0.000000001
43
0.0000000001
44
0.0000000001
40
0
40
0
40
0
40
1
40
1
40
1
10
-1.3934665937141522
20
41.282123426667276
30
0
10
-0.9937437991353959
20
40.902549612593226
30
0
10
-0.99276991175477836
20
40.356847904980064
30
0
0
SPLINE
5
166
100
AcDbEntity
8
0
100
AcDbSpline
70
0
71
2
72
6
73
3
74
0
42
0.000000001
43
0.0000000001
44
0.0000000001
40
0
40
0
40
0
40
1
40
1
40
1
10
-0.99276991175477836
20
40.356847904980064
30
0
10
-0.99214905837677669
20
40.008962969519281
30
0
10
-1.1741581058568307
20
39.751134346412911
30
0
0
SPLINE
5
167
100
AcDbEntity
8
0
100
AcDbSpline
70
0
71
2
72
6
73
3
74
0
42
0.000000001
43
0.0000000001
44
0.0000000001
40
0
40
0
40
0
40
1
40
1
40
1
10
-1.1741581058568307
20
39.751134346412911
30
0
10
-1.3561671533368846
20
39.493305723306541
30
0
10
-1.7276771329800789
20
39.352806411848391
30
0
0
SPLINE
5
168
100
AcDbEntity
8
0
100
AcDbSpline
70
0
71
2
72
6
73
3
74
0
42
0.000000001
43
0.0000000001
44
0.0000000001
40
0
40
0
40
0
40
1
40
1
40
1
10
-1.7276771329800789
20
39.352806411848391
30
0
10
-1.2669737026967276
20
39.203559965651721
30
0
10
-1.025927674100795
20
38.869746736189867
30
0
0
SPLINE
5
169
100
AcDbEntity
8
0
100
AcDbSpline
70
0
71
2
72
6
73
3
74
0
42
0.000000001
43
0.0000000001
44
0.0000000001
40
0
40
0
40
0
40
1
40
1
40
1
10
-1.025927674100795
20
38.869746736189867
30
0
10
-0.78488045341386536
20
38.535933508855479
30
0
10
-0.78405264908715244
20
38.072087027582022
30
0
0
SPLINE
5
170
100
AcDbEntity
8
0
100
AcDbSpline
70
0
71
2
72
6
73
3
74
0
42
0.000000001
43
0.0000000001
44
0.0000000001
40
0
40
0
40
0
40
1
40
1
40
1
10
-0.78405264908715244
20
38.072087027582022
30
0
10
-0.78290833192020015
20
37.430887804258163
30
0
10
-1.2357448799036819
20
36.993516653876441
30
0
0
SPLINE
5
171
100
AcDbEntity
8
0
100
AcDbSpline
70
0
71
2
72
6
73
3
74
0
42
0.000000001
43
0.0000000001
44
0.0000000001
40
0
40
0
40
0
40
1
40
1
40
1
10
-1.2357448799036819
20
36.993516653876441
30
0
10
-1.6885802357961666
20
36.55614550562219
30
0
10
-2.4286875471734626
20
36.554824671985799
30
0
0
SPLINE
5
172
100
AcDbEntity
8
0
100
AcDbSpline
70
0
71
2
72
6
73
3
74
0
42
0.000000001
43
0.0000000001
44
0.0000000001
40
0
40
0
40
0
40
1
40
1
40
1
10
-2.4286875471734626
20
36.554824671985799
30
0
10
-3.1687960506417556
20
36.553503836221935
30
0
10
-3.6231926705357664
20
36.990961183156514
30
0
0
SPLINE
5
173
100
AcDbEntity
8
0
100
AcDbSpline
70
0
71
2
72
6
73
3
74
0
42
0.000000001
43
0.0000000001
44
0.0000000001
40
0
40
0
40
0
40
1
40
1
40
1
10
-3.6231926705357664
20
36.990961183156514
30
0
10
-4.0775892904297795
20
37.428418530091101
30
0
10
-4.0787579548610253
20
38.083260340808692
30
0
0
SPLINE
5
174
100
AcDbEntity
8
0
100
AcDbSpline
70
0
71
2
72
6
73
3
74
0
42
0.000000001
43
0.0000000001
44
0.0000000001
40
0
40
0
40
0
40
1
40
1
40
1
10
-4.0787579548610253
20
38.083260340808692
30
0
10
-4.0796283665013551
20
38.570981126504144
30
0
10
-3.8329450754226757
20
38.900548908028469
30
0
0
SPLINE
5
175
100
AcDbEntity
8
0
100
AcDbSpline
70
0
71
2
72
6
73
3
74
0
42
0.000000001
43
0.0000000001
44
0.0000000001
40
0
40
0
40
0
40
1
40
1
40
1
10
-3.8329450754226757
20
38.900548908028469
30
0
10
-3.5862605922529989
20
39.230116691680266
30
0
10
-3.1294485918514647
20
39.350304738287072
30
0
0
SPLINE
5
176
100
AcDbEntity
8
0
100
AcDbSpline
70
0
71
2
72
6
73
3
74
0
42
0.000000001
43
0.0000000001
44
0.0000000001
40
0
40
0
40
0
40
1
40
1
40
1
10
-3.2540880532914152
20
40.390329549457142
30
0
10
-3.2534550260153328
20
40.035623171288108
30
0
10
-3.024541374247014
20
39.810929038498827
30
0
0
SPLINE
5
177
100
AcDbEntity
8
0
100
AcDbSpline
70
0
71
2
72
6
73
3
74
0
42
0.000000001
43
0.0000000001
44
0.0000000001
40
0
40
0
40
0
40
1
40
1
40
1
10
-3.024541374247014
20
39.810929038498827
30
0
10
-2.7956265303877004
20
39.586234907837017
30
0
10
-2.4306881371676758
20
39.586886195694284
30
0
0
SPLINE
5
178
100
AcDbEntity
8
0
100
AcDbSpline
70
0
71
2
72
6
73
3
74
0
42
0.000000001
43
0.0000000001
44
0.0000000001
40
0
40
0
40
0
40
1
40
1
40
1
10
-2.4306881371676758
20
39.586886195694284
30
0
10
-2.0759826530668923
20
39.587519221374762
30
0
10
-1.8495741051453107
20
39.811320654016015
30
0
0
SPLINE
5
179
100
AcDbEntity
8
0
100
AcDbSpline
70
0
71
2
72
6
73
3
74
0
42
0.000000001
43
0.0000000001
44
0.0000000001
40
0
40
0
40
0
40
1
40
1
40
1
10
-1.8495741051453107
20
39.811320654016015
30
0
10
-1.6231655572237291
20
40.03512208665726
30
0
10
-1.6237438027562456
20
40.359132419673315
30
0
0
SPLINE
5
180
100
AcDbEntity
8
0
100
AcDbSpline
70
0
71
2
72
6
73
3
74
0
42
0.000000001
43
0.0000000001
44
0.0000000001
40
0
40
0
40
0
40
1
40
1
40
1
10
-1.6237438027562456
20
40.359132419673315
30
0
10
-1.6243463955530579
20
40.69678534008311
30
0
10
-1.8583856324375247
20
40.926586498320859
30
0
0
SPLINE
5
181
100
AcDbEntity
8
0
100
AcDbSpline
70
0
71
2
72
6
73
3
74
0
42
0.000000001
43
0.0000000001
44
0.0000000001
40
0
40
0
40
0
40
1
40
1
40
1
10
-1.8583856324375247
20
40.926586498320859
30
0
10
-2.0924248687901259
20
41.156387358535873
30
0
10
-2.4403092082054134
20
41.155766506221603
30
0
0
SPLINE
5
182
100
AcDbEntity
8
0
100
AcDbSpline
70
0
71
2
72
6
73
3
74
0
42
0.000000001
43
0.0000000001
44
0.0000000001
40
0
40
0
40
0
40
1
40
1
40
1
10
-2.4403092082054134
20
41.155766506221603
30
0
10
-2.791605312054446
20
41.155139565096768
30
0
10
-3.0231260791030956
20
40.92962371732321
30
0
0
SPLINE
5
183
100
AcDbEntity
8
0
100
AcDbSpline
70
0
71
2
72
6
73
3
74
0
42
0.000000001
43
0.0000000001
44
0.0000000001
40
0
40
0
40
0
40
1
40
1
40
1
10
-3.0231260791030956
20
40.92962371732321
30
0
10
-3.2546480382427445
20
40.704107867422195
30
0
10
-3.2540880532914152
20
40.390329549457142
30
0
0
SPLINE
5
184
100
AcDbEntity
8
0
100
AcDbSpline
70
0
71
2
72
6
73
3
74
0
42
0.000000001
43
0.0000000001
44
0.0000000001
40
0
40
0
40
0
40
1
40
1
40
1
10
-3.447784063859558
20
38.080975826115441
30
0
10
-3.4473153807504375
20
37.818356987359856
30
0
10
-3.3223894524100528
20
37.573013177442618
30
0
0
SPLINE
5
185
100
AcDbEntity
8
0
100
AcDbSpline
70
0
71
2
72
6
73
3
74
0
42
0.000000001
43
0.0000000001
44
0.0000000001
40
0
40
0
40
0
40
1
40
1
40
1
10
-3.3223894524100528
20
37.573013177442618
30
0
10
-3.1974623319786732
20
37.327669369652845
30
0
10
-2.9516559266991571
20
37.193387627625889
30
0
0
SPLINE
5
186
100
AcDbEntity
8
0
100
AcDbSpline
70
0
71
2
72
6
73
3
74
0
42
0.000000001
43
0.0000000001
44
0.0000000001
40
0
40
0
40
0
40
1
40
1
40
1
10
-2.9516559266991571
20
37.193387627625889
30
0
10
-2.705850713510638
20
37.059105883471467
30
0
10
-2.4227672486075646
20
37.059611088806697
30
0
0
SPLINE
5
187
100
AcDbEntity
8
0
100
AcDbSpline
70
0
71
2
72
6
73
3
74
0
42
0.000000001
43
0.0000000001
44
0.0000000001
40
0
40
0
40
0
40
1
40
1
40
1
10
-2.4227672486075646
20
37.059611088806697
30
0
10
-1.9827950717560849
20
37.060396285819792
30
0
10
-1.6968074308727576
20
37.343990444568234
30
0
0
SPLINE
5
188
100
AcDbEntity
8
0
100
AcDbSpline
70
0
71
2
72
6
73
3
74
0
42
0.000000001
43
0.0000000001
44
0.0000000001
40
0
40
0
40
0
40
1
40
1
40
1
10
-1.6968074308727576
20
37.343990444568234
30
0
10
-1.4108185978984311
20
37.627584605444149
30
0
10
-1.4115977071646846
20
38.064145613907385
30
0
0
SPLINE
5
189
100
AcDbEntity
8
0
100
AcDbSpline
70
0
71
2
72
6
73
3
74
0
42
0.000000001
43
0.0000000001
44
0.0000000001
40
0
40
0
40
0
40
1
40
1
40
1
10
-1.4115977071646846
20
38.064145613907385
30
0
10
-1.4123889908608867
20
38.507528363101613
30
0
10
-1.7079274326467897
20
38.796905866854843
30
0
0
SPLINE
5
190
100
AcDbEntity
8
0
100
AcDbSpline
70
0
71
2
72
6
73
3
74
0
42
0.000000001
43
0.0000000001
44
0.0000000001
40
0
40
0
40
0
40
1
40
1
40
1
10
-1.7079274326467897
20
38.796905866854843
30
0
10
-2.0034646823416935
20
39.086283372735544
30
0
10
-2.4468474315359212
20
39.085492089039342
30
0
0
SPLINE
5
191
100
AcDbEntity
8
0
100
AcDbSpline
70
0
71
2
72
6
73
3
74
0
42
0.000000001
43
0.0000000001
44
0.0000000001
40
0
40
0
40
0
40
1
40
1
40
1
10
-2.4468474315359212
20
39.085492089039342
30
0
10
-2.8799972716109057
20
39.084719067519927
30
0
10
-3.1642741356852522
20
38.797717378706558
30
0
0
SPLINE
5
192
100
AcDbEntity
8
0
100
AcDbSpline
70
0
71
2
72
6
73
3
74
0
42
0.000000001
43
0.0000000001
44
0.0000000001
40
0
40
0
40
0
40
1
40
1
40
1
10
-3.1642741356852522
20
38.797717378706558
30
0
10
-3.4485509997595987
20
38.510715689893182
30
0
10
-3.447784063859558
20
38.080975826115441
30
0
0
ENDSEC
0
SECTION
2
OBJECTS
0
DICTIONARY
5
C
100
AcDbDictionary
3
ACAD_GROUP
350
D
3
ACAD_MLINESTYLE
350
17
0
DICTIONARY
5
D
100
AcDbDictionary
0
DICTIONARY
5
1A
330
C
100
AcDbDictionary
0
DICTIONARY
5
17
100
AcDbDictionary
0
ENDSEC
0
EOF
