0
SECTION
2
HEADER
9
$INSUNITS
70
4
9
$ACADVER
1
AC1014
9
$HANDSEED
5
FFFF
0
ENDSEC
0
SECTION
2
TABLES
0
TABLE
2
VPORT
5
8
100
AcDbSymbolTable
0
ENDTAB
0
TABLE
2
LTYPE
5
5
100
AcDbSymbolTable
0
LTYPE
5
14
100
AcDbSymbolTableRecord
100
AcDbLinetypeTableRecord
2
BYBLOCK
70
0
0
LTYPE
5
15
100
AcDbSymbolTableRecord
100
AcDbLinetypeTableRecord
2
BYLAYER
70
0
0
ENDTAB
0
TABLE
2
LAYER
5
2
100
AcDbSymbolTable
70
2
0
LAYER
5
50
100
AcDbSymbolTableRecord
100
AcDbLayerTableRecord
2
0
70
0
6
CONTINUOUS
0
ENDTAB
0
TABLE
2
STYLE
5
3
100
AcDbSymbolTable
70
1
0
STYLE
5
11
100
AcDbSymbolTableRecord
100
AcDbTextStyleTableRecord
2
STANDARD
70
0
0
ENDTAB
0
TABLE
2
VIEW
5
6
100
AcDbSymbolTable
70
0
0
ENDTAB
0
TABLE
2
UCS
5
7
100
AcDbSymbolTable
70
0
0
ENDTAB
0
TABLE
2
APPID
5
9
100
AcDbSymbolTable
70
2
0
APPID
5
12
100
AcDbSymbolTableRecord
100
AcDbRegAppTableRecord
2
ACAD
70
0
0
ENDTAB
0
TABLE
2
DIMSTYLE
5
A
100
AcDbSymbolTable
70
1
0
ENDTAB
0
TABLE
2
BLOCK_RECORD
5
1
100
AcDbSymbolTable
70
1
0
BLOCK_RECORD
5
1F
100
AcDbSymbolTableRecord
100
AcDbBlockTableRecord
2
*MODEL_SPACE
0
BLOCK_RECORD
5
1B
100
AcDbSymbolTableRecord
100
AcDbBlockTableRecord
2
*PAPER_SPACE
0
ENDTAB
0
ENDSEC
0
SECTION
2
BLOCKS
0
BLOCK
5
20
100
AcDbEntity
100
AcDbBlockBegin
2
*MODEL_SPACE
0
ENDBLK
5
21
100
AcDbEntity
100
AcDbBlockEnd
0
BLOCK
5
1C
100
AcDbEntity
100
AcDbBlockBegin
2
*PAPER_SPACE
0
ENDBLK
5
1D
100
AcDbEntity
100
AcDbBlockEnd
0
ENDSEC
0
SECTION
2
ENTITIES
0
LWPOLYLINE
5
100
100
AcDbEntity
8
0
100
AcDbPolyline
90
28
70
1
43
0.0
10
7.9406896066013388
20
-41.976654370332454
10
7.9406896066013388
20
-31.976654370332458
10
2.9406896066013388
20
-31.976654370332458
10
2.9406896066013388
20
-26.976654370332458
10
12.940689606601339
20
-26.976654370332458
10
12.940689606601339
20
-21.976654370332458
10
22.940689606601339
20
-21.976654370332458
10
22.940689606601339
20
-26.976654370332458
10
32.940689606601339
20
-26.976654370332458
10
32.940689606601339
20
-21.976654370332458
10
42.940689606601339
20
-21.976654370332458
10
42.940689606601339
20
-26.976654370332458
10
52.940689606601339
20
-26.976654370332458
10
52.940689606601339
20
-31.976654370332458
10
47.940689606601339
20
-31.976654370332458
10
47.940689606601339
20
-41.976654370332454
10
52.940689606601339
20
-41.976654370332454
10
52.940689606601339
20
-46.976654370332454
10
42.940689606601339
20
-46.976654370332454
10
42.940689606601339
20
-51.976654370332454
10
32.940689606601339
20
-51.976654370332454
10
32.940689606601339
20
-46.976654370332454
10
22.940689606601339
20
-46.976654370332454
10
22.940689606601339
20
-51.976654370332454
10
12.940689606601339
20
-51.976654370332454
10
12.940689606601339
20
-46.976654370332454
10
2.9406896066013388
20
-46.976654370332454
10
2.9406896066013388
20
-41.976654370332454
0
LWPOLYLINE
5
101
100
AcDbEntity
8
0
100
AcDbPolyline
90
4
70
1
43
0.0
10
32.080293708904421
20
-39.298268384736211
10
43.561690259879541
20
-39.298268384736211
10
43.561690259879541
20
-43.925099830651561
10
32.080293708904421
20
-43.925099830651561
0
LINE
5
102
100
AcDbEntity
8
0
100
AcDbLine
10
41.719944138234567
20
-38.925099830651561
30
0
11
42.333859462445687
21
-38.925099830651561
31
0
0
LINE
5
103
100
AcDbEntity
8
0
100
AcDbLine
10
42.333859462445687
20
-38.925099830651561
30
0
11
42.333859462445687
21
-42.837105255151073
31
0
0
SPLINE
5
104
100
AcDbEntity
8
0
100
AcDbSpline
70
0
71
2
72
6
73
3
74
0
42
0.000000001
43
0.0000000001
44
0.0000000001
40
0
40
0
40
0
40
1
40
1
40
1
10
42.333859462445687
20
-42.837105255151073
30
0
10
42.555551190083932
20
-42.625645558858196
30
0
10
42.915373701756906
20
-42.414185862565319
30
0
0
SPLINE
5
105
100
AcDbEntity
8
0
100
AcDbSpline
70
0
71
2
72
6
73
3
74
0
42
0.000000001
43
0.0000000001
44
0.0000000001
40
0
40
0
40
0
40
1
40
1
40
1
10
42.915373701756906
20
-42.414185862565319
30
0
10
43.275196362441491
20
-42.202726166272441
30
0
10
43.561690259879541
20
-42.096996169114391
30
0
0
LINE
5
106
100
AcDbEntity
8
0
100
AcDbLine
10
43.561690259879541
20
-42.096996169114391
30
0
11
43.561690259879541
21
-42.690447728658
31
0
0
SPLINE
5
107
100
AcDbEntity
8
0
100
AcDbSpline
70
0
71
2
72
6
73
3
74
0
42
0.000000001
43
0.0000000001
44
0.0000000001
40
0
40
0
40
0
40
1
40
1
40
1
10
43.561690259879541
20
-42.690447728658
30
0
10
43.046683479255151
20
-42.932603220963756
30
0
10
42.661280889218759
20
-43.277078132653514
30
0
0
SPLINE
5
108
100
AcDbEntity
8
0
100
AcDbSpline
70
0
71
2
72
6
73
3
74
0
42
0.000000001
43
0.0000000001
44
0.0000000001
40
0
40
0
40
0
40
1
40
1
40
1
10
42.661280889218759
20
-43.277078132653514
30
0
10
42.275878448193978
20
-43.621552746320049
30
0
10
42.115578312581491
20
-43.945563893342296
30
0
0
LINE
5
109
100
AcDbEntity
8
0
100
AcDbLine
10
42.115578312581491
20
-43.945563893342296
30
0
11
41.719944138234567
21
-43.945563893342296
31
0
0
LINE
5
110
100
AcDbEntity
8
0
100
AcDbLine
10
41.719944138234567
20
-43.945563893342296
30
0
11
41.719944138234567
21
-38.925099830651561
31
0
0
SPLINE
5
111
100
AcDbEntity
8
0
100
AcDbSpline
70
0
71
2
72
6
73
3
74
0
42
0.000000001
43
0.0000000001
44
0.0000000001
40
0
40
0
40
0
40
1
40
1
40
1
10
40.147638578122567
20
-41.390993456864635
30
0
10
40.147638578122567
20
-42.277760367417613
30
0
10
39.965169388955545
20
-42.818346779370586
30
0
0
SPLINE
5
112
100
AcDbEntity
8
0
100
AcDbSpline
70
0
71
2
72
6
73
3
74
0
42
0.000000001
43
0.0000000001
44
0.0000000001
40
0
40
0
40
0
40
1
40
1
40
1
10
39.965169388955545
20
-42.818346779370586
30
0
10
39.782699901765298
20
-43.358933489346782
30
0
10
39.422877092069101
20
-43.652248542332927
30
0
0
SPLINE
5
113
100
AcDbEntity
8
0
100
AcDbSpline
70
0
71
2
72
6
73
3
74
0
42
0.000000001
43
0.0000000001
44
0.0000000001
40
0
40
0
40
0
40
1
40
1
40
1
10
39.422877092069101
20
-43.652248542332927
30
0
10
39.063054580396127
20
-43.945563297295848
30
0
10
38.517352003758859
20
-43.945563297295848
30
0
0
SPLINE
5
114
100
AcDbEntity
8
0
100
AcDbSpline
70
0
71
2
72
6
73
3
74
0
42
0.000000001
43
0.0000000001
44
0.0000000001
40
0
40
0
40
0
40
1
40
1
40
1
10
38.517352003758859
20
-43.945563297295848
30
0
10
38.114896077817392
20
-43.945563297295848
30
0
10
37.811349291509103
20
-43.783558468842784
30
0
0
SPLINE
5
115
100
AcDbEntity
8
0
100
AcDbSpline
70
0
71
2
72
6
73
3
74
0
42
0.000000001
43
0.0000000001
44
0.0000000001
40
0
40
0
40
0
40
1
40
1
40
1
10
37.811349291509103
20
-43.783558468842784
30
0
10
37.507801909154367
20
-43.621552746320049
30
0
10
37.309984821980905
20
-43.316300373101512
30
0
0
SPLINE
5
116
100
AcDbEntity
8
0
100
AcDbSpline
70
0
71
2
72
6
73
3
74
0
42
0.000000001
43
0.0000000001
44
0.0000000001
40
0
40
0
40
0
40
1
40
1
40
1
10
37.309984821980905
20
-43.316300373101512
30
0
10
37.112167734807443
20
-43.011047999882976
30
0
10
36.99961688012452
20
-42.572780709290782
30
0
0
SPLINE
5
117
100
AcDbEntity
8
0
100
AcDbSpline
70
0
71
2
72
6
73
3
74
0
42
0.000000001
43
0.0000000001
44
0.0000000001
40
0
40
0
40
0
40
1
40
1
40
1
10
36.99961688012452
20
-42.572780709290782
30
0
10
36.88706542939515
20
-42.134513418698589
30
0
10
36.88706542939515
20
-41.390993456864635
30
0
0
SPLINE
5
118
100
AcDbEntity
8
0
100
AcDbSpline
70
0
71
2
72
6
73
3
74
0
42
0.000000001
43
0.0000000001
44
0.0000000001
40
0
40
0
40
0
40
1
40
1
40
1
10
36.88706542939515
20
-41.390993456864635
30
0
10
36.88706542939515
20
-40.511047999882976
30
0
10
37.067829627698373
20
-39.970461587930004
30
0
0
SPLINE
5
119
100
AcDbEntity
8
0
100
AcDbSpline
70
0
71
2
72
6
73
3
74
0
42
0.000000001
43
0.0000000001
44
0.0000000001
40
0
40
0
40
0
40
1
40
1
40
1
10
37.067829627698373
20
-39.970461587930004
30
0
10
37.248593229955148
20
-39.429874877953807
30
0
10
37.608416337674569
20
-39.134854536080638
30
0
0
SPLINE
5
120
100
AcDbEntity
8
0
100
AcDbSpline
70
0
71
2
72
6
73
3
74
0
42
0.000000001
43
0.0000000001
44
0.0000000001
40
0
40
0
40
0
40
1
40
1
40
1
10
37.608416337674569
20
-39.134854536080638
30
0
10
37.968238849347543
20
-38.839833598161022
30
0
10
38.517352003758859
20
-38.839833598161022
30
0
0
SPLINE
5
121
100
AcDbEntity
8
0
100
AcDbSpline
70
0
71
2
72
6
73
3
74
0
42
0.000000001
43
0.0000000001
44
0.0000000001
40
0
40
0
40
0
40
1
40
1
40
1
10
38.517352003758859
20
-38.839833598161022
30
0
10
39.240408200925302
20
-38.839833598161022
30
0
10
39.653095562165689
20
-39.358250956559459
30
0
0
SPLINE
5
122
100
AcDbEntity
8
0
100
AcDbSpline
70
0
71
2
72
6
73
3
74
0
42
0.000000001
43
0.0000000001
44
0.0000000001
40
0
40
0
40
0
40
1
40
1
40
1
10
39.653095562165689
20
-39.358250956559459
30
0
10
40.147638578122567
20
-39.982398610139171
30
0
10
40.147638578122567
20
-41.390993456864635
30
0
0
SPLINE
5
123
100
AcDbEntity
8
0
100
AcDbSpline
70
0
71
2
72
6
73
3
74
0
42
0.000000001
43
0.0000000001
44
0.0000000001
40
0
40
0
40
0
40
1
40
1
40
1
10
39.51666976899476
20
-41.390993456864635
30
0
10
39.51666976899476
20
-40.159752230668346
30
0
10
39.228470582669686
20
-39.752180438065807
30
0
0
SPLINE
5
124
100
AcDbEntity
8
0
100
AcDbSpline
70
0
71
2
72
6
73
3
74
0
42
0.000000001
43
0.0000000001
44
0.0000000001
40
0
40
0
40
0
40
1
40
1
40
1
10
39.228470582669686
20
-39.752180438065807
30
0
10
38.940271396344613
20
-39.344608645463268
30
0
10
38.517352003758859
20
-39.344608645463268
30
0
0
SPLINE
5
125
100
AcDbEntity
8
0
100
AcDbSpline
70
0
71
2
72
6
73
3
74
0
42
0.000000001
43
0.0000000001
44
0.0000000001
40
0
40
0
40
0
40
1
40
1
40
1
10
38.517352003758859
20
-39.344608645463268
30
0
10
38.094432611173104
20
-39.344608645463268
30
0
10
37.806233424848031
20
-39.753885726952831
30
0
0
SPLINE
5
126
100
AcDbEntity
8
0
100
AcDbSpline
70
0
71
2
72
6
73
3
74
0
42
0.000000001
43
0.0000000001
44
0.0000000001
40
0
40
0
40
0
40
1
40
1
40
1
10
37.806233424848031
20
-39.753885726952831
30
0
10
37.518034238522958
20
-40.163162808442394
30
0
10
37.518034238522958
20
-41.390993456864635
30
0
0
SPLINE
5
127
100
AcDbEntity
8
0
100
AcDbSpline
70
0
71
2
72
6
73
3
74
0
42
0.000000001
43
0.0000000001
44
0.0000000001
40
0
40
0
40
0
40
1
40
1
40
1
10
37.518034238522958
20
-41.390993456864635
30
0
10
37.518034238522958
20
-42.625645558858196
30
0
10
37.806233424848031
20
-43.031512062573711
30
0
0
SPLINE
5
128
100
AcDbEntity
8
0
100
AcDbSpline
70
0
71
2
72
6
73
3
74
0
42
0.000000001
43
0.0000000001
44
0.0000000001
40
0
40
0
40
0
40
1
40
1
40
1
10
37.806233424848031
20
-43.031512062573711
30
0
10
38.094432611173104
20
-43.437378268266002
30
0
10
38.524173159306955
20
-43.437378268266002
30
0
0
SPLINE
5
129
100
AcDbEntity
8
0
100
AcDbSpline
70
0
71
2
72
6
73
3
74
0
42
0.000000001
43
0.0000000001
44
0.0000000001
40
0
40
0
40
0
40
1
40
1
40
1
10
38.524173159306955
20
-43.437378268266002
30
0
10
38.947092551892709
20
-43.437378268266002
30
0
10
39.199480075543832
20
-43.079261045480052
30
0
0
SPLINE
5
130
100
AcDbEntity
8
0
100
AcDbSpline
70
0
71
2
72
6
73
3
74
0
42
0.000000001
43
0.0000000001
44
0.0000000001
40
0
40
0
40
0
40
1
40
1
40
1
10
39.199480075543832
20
-43.079261045480052
30
0
10
39.51666976899476
20
-42.622234981084148
30
0
10
39.51666976899476
20
-41.390993456864635
30
0
0
LINE
5
131
100
AcDbEntity
8
0
100
AcDbLine
10
33.077379722302865
20
-42.700679760003368
30
0
11
33.68788387269349
21
-42.652930777097026
31
0
0
SPLINE
5
132
100
AcDbEntity
8
0
100
AcDbSpline
70
0
71
2
72
6
73
3
74
0
42
0.000000001
43
0.0000000001
44
0.0000000001
40
0
40
0
40
0
40
1
40
1
40
1
10
33.68788387269349
20
-42.652930777097026
30
0
10
33.76974012345643
20
-43.014458875680248
30
0
10
33.919807929700326
20
-43.178169589066783
30
0
0
SPLINE
5
133
100
AcDbEntity
8
0
100
AcDbSpline
70
0
71
2
72
6
73
3
74
0
42
0.000000001
43
0.0000000001
44
0.0000000001
40
0
40
0
40
0
40
1
40
1
40
1
10
33.919807929700326
20
-43.178169589066783
30
0
10
34.168784875577401
20
-43.44078884604005
30
0
10
34.533723253911447
20
-43.44078884604005
30
0
0
SPLINE
5
134
100
AcDbEntity
8
0
100
AcDbSpline
70
0
71
2
72
6
73
3
74
0
42
0.000000001
43
0.0000000001
44
0.0000000001
40
0
40
0
40
0
40
1
40
1
40
1
10
34.533723253911447
20
-43.44078884604005
30
0
10
34.827038306897592
20
-43.44078884604005
30
0
10
35.048730034535836
20
-43.277078132653514
30
0
0
SPLINE
5
135
100
AcDbEntity
8
0
100
AcDbSpline
70
0
71
2
72
6
73
3
74
0
42
0.000000001
43
0.0000000001
44
0.0000000001
40
0
40
0
40
0
40
1
40
1
40
1
10
35.048730034535836
20
-43.277078132653514
30
0
10
35.338634509747934
20
-43.065618436360637
30
0
10
35.505756396954965
20
-42.659751932645122
30
0
0
SPLINE
5
136
100
AcDbEntity
8
0
100
AcDbSpline
70
0
71
2
72
6
73
3
74
0
42
0.000000001
43
0.0000000001
44
0.0000000001
40
0
40
0
40
0
40
1
40
1
40
1
10
35.505756396954965
20
-42.659751932645122
30
0
10
35.672877688115548
20
-42.253885726952831
30
0
10
35.679698843663644
20
-41.503544609570781
30
0
0
SPLINE
5
137
100
AcDbEntity
8
0
100
AcDbSpline
70
0
71
2
72
6
73
3
74
0
42
0.000000001
43
0.0000000001
44
0.0000000001
40
0
40
0
40
0
40
1
40
1
40
1
10
35.679698843663644
20
-41.503544609570781
30
0
10
35.458007116025399
20
-41.84119806768922
30
0
10
35.137406844800424
20
-42.004909079098979
30
0
0
SPLINE
5
138
100
AcDbEntity
8
0
100
AcDbSpline
70
0
71
2
72
6
73
3
74
0
42
0.000000001
43
0.0000000001
44
0.0000000001
40
0
40
0
40
0
40
1
40
1
40
1
10
35.137406844800424
20
-42.004909079098979
30
0
10
34.816806573575448
20
-42.168619792485515
30
0
10
34.465510506337594
20
-42.168619792485515
30
0
0
SPLINE
5
139
100
AcDbEntity
8
0
100
AcDbSpline
70
0
71
2
72
6
73
3
74
0
42
0.000000001
43
0.0000000001
44
0.0000000001
40
0
40
0
40
0
40
1
40
1
40
1
10
34.465510506337594
20
-42.168619792485515
30
0
10
33.851595182126474
20
-42.168619792485515
30
0
10
33.4201493451056
20
-41.716709892773906
30
0
0
SPLINE
5
140
100
AcDbEntity
8
0
100
AcDbSpline
70
0
71
2
72
6
73
3
74
0
42
0.000000001
43
0.0000000001
44
0.0000000001
40
0
40
0
40
0
40
1
40
1
40
1
10
33.4201493451056
20
-41.716709892773906
30
0
10
32.98870231599183
20
-41.264799695039073
30
0
10
32.98870231599183
20
-40.54856495144395
30
0
0
SPLINE
5
141
100
AcDbEntity
8
0
100
AcDbSpline
70
0
71
2
72
6
73
3
74
0
42
0.000000001
43
0.0000000001
44
0.0000000001
40
0
40
0
40
0
40
1
40
1
40
1
10
32.98870231599183
20
-40.54856495144395
30
0
10
32.98870231599183
20
-40.077896575951854
30
0
10
33.191635865872811
20
-39.673735361123363
30
0
0
SPLINE
5
142
100
AcDbEntity
8
0
100
AcDbSpline
70
0
71
2
72
6
73
3
74
0
42
0.000000001
43
0.0000000001
44
0.0000000001
40
0
40
0
40
0
40
1
40
1
40
1
10
33.191635865872811
20
-39.673735361123363
30
0
10
33.394569415753793
20
-39.26957474234132
30
0
10
33.749275464719247
20
-39.054704170251171
30
0
0
SPLINE
5
143
100
AcDbEntity
8
0
100
AcDbSpline
70
0
71
2
72
6
73
3
74
0
42
0.000000001
43
0.0000000001
44
0.0000000001
40
0
40
0
40
0
40
1
40
1
40
1
10
33.749275464719247
20
-39.054704170251171
30
0
10
34.103982705777597
20
-38.839833598161022
30
0
10
34.554187316602182
20
-38.839833598161022
30
0
0
SPLINE
5
144
100
AcDbEntity
8
0
100
AcDbSpline
70
0
71
2
72
6
73
3
74
0
42
0.000000001
43
0.0000000001
44
0.0000000001
40
0
40
0
40
0
40
1
40
1
40
1
10
34.554187316602182
20
-38.839833598161022
30
0
10
35.321581620877694
20
-38.839833598161022
30
0
10
35.805892605489205
20
-39.404294948602001
30
0
0
SPLINE
5
145
100
AcDbEntity
8
0
100
AcDbSpline
70
0
71
2
72
6
73
3
74
0
42
0.000000001
43
0.0000000001
44
0.0000000001
40
0
40
0
40
0
40
1
40
1
40
1
10
35.805892605489205
20
-39.404294948602001
30
0
10
36.290203590100717
20
-39.96875629904298
30
0
10
36.290203590100717
20
-41.264799695039073
30
0
0
SPLINE
5
146
100
AcDbEntity
8
0
100
AcDbSpline
70
0
71
2
72
6
73
3
74
0
42
0.000000001
43
0.0000000001
44
0.0000000001
40
0
40
0
40
0
40
1
40
1
40
1
10
36.290203590100717
20
-41.264799695039073
30
0
10
36.290203590100717
20
-42.714322369122783
30
0
10
35.754732746785592
20
-43.372576098466197
30
0
0
SPLINE
5
147
100
AcDbEntity
8
0
100
AcDbSpline
70
0
71
2
72
6
73
3
74
0
42
0.000000001
43
0.0000000001
44
0.0000000001
40
0
40
0
40
0
40
1
40
1
40
1
10
35.754732746785592
20
-43.372576098466197
30
0
10
35.287475247090768
20
-43.945563297295848
30
0
10
34.496206302350473
20
-43.945563297295848
30
0
0
SPLINE
5
148
100
AcDbEntity
8
0
100
AcDbSpline
70
0
71
2
72
6
73
3
74
0
42
0.000000001
43
0.0000000001
44
0.0000000001
40
0
40
0
40
0
40
1
40
1
40
1
10
34.496206302350473
20
-43.945563297295848
30
0
10
33.906165618604135
20
-43.945563297295848
30
0
10
33.529290218060922
20
-43.614731590771953
30
0
0
SPLINE
5
149
100
AcDbEntity
8
0
100
AcDbSpline
70
0
71
2
72
6
73
3
74
0
42
0.000000001
43
0.0000000001
44
0.0000000001
40
0
40
0
40
0
40
1
40
1
40
1
10
33.529290218060922
20
-43.614731590771953
30
0
10
33.152413625424813
20
-43.28389928820161
30
0
10
33.077379722302865
20
-42.700679760003368
30
0
0
SPLINE
5
150
100
AcDbEntity
8
0
100
AcDbSpline
70
0
71
2
72
6
73
3
74
0
42
0.000000001
43
0.0000000001
44
0.0000000001
40
0
40
0
40
0
40
1
40
1
40
1
10
35.584200877850961
20
-40.545154373669902
30
0
10
35.584200877850961
20
-40.227964978242198
30
0
10
35.44948067159028
20
-39.938060503030101
30
0
0
SPLINE
5
151
100
AcDbEntity
8
0
100
AcDbSpline
70
0
71
2
72
6
73
3
74
0
42
0.000000001
43
0.0000000001
44
0.0000000001
40
0
40
0
40
0
40
1
40
1
40
1
10
35.44948067159028
20
-39.938060503030101
30
0
10
35.314760465329599
20
-39.648156027818004
30
0
10
35.072604675000619
20
-39.496382336640636
30
0
0
SPLINE
5
152
100
AcDbEntity
8
0
100
AcDbSpline
70
0
71
2
72
6
73
3
74
0
42
0.000000001
43
0.0000000001
44
0.0000000001
40
0
40
0
40
0
40
1
40
1
40
1
10
35.072604675000619
20
-39.496382336640636
30
0
10
34.83044888467164
20
-39.344608645463268
30
0
10
34.564419049924325
20
-39.344608645463268
30
0
0
SPLINE
5
153
100
AcDbEntity
8
0
100
AcDbSpline
70
0
71
2
72
6
73
3
74
0
42
0.000000001
43
0.0000000001
44
0.0000000001
40
0
40
0
40
0
40
1
40
1
40
1
10
34.564419049924325
20
-39.344608645463268
30
0
10
34.175606031125497
20
-39.344608645463268
30
0
10
33.895933885281991
20
-39.658387761140148
30
0
0
SPLINE
5
154
100
AcDbEntity
8
0
100
AcDbSpline
70
0
71
2
72
6
73
3
74
0
42
0.000000001
43
0.0000000001
44
0.0000000001
40
0
40
0
40
0
40
1
40
1
40
1
10
33.895933885281991
20
-39.658387761140148
30
0
10
33.61626054734559
20
-39.972166876817028
30
0
10
33.61626054734559
20
-40.511047999882976
30
0
0
SPLINE
5
155
100
AcDbEntity
8
0
100
AcDbSpline
70
0
71
2
72
6
73
3
74
0
42
0.000000001
43
0.0000000001
44
0.0000000001
40
0
40
0
40
0
40
1
40
1
40
1
10
33.61626054734559
20
-40.511047999882976
30
0
10
33.61626054734559
20
-41.029465358281414
30
0
10
33.892523307507943
20
-41.327896575951854
30
0
0
SPLINE
5
156
100
AcDbEntity
8
0
100
AcDbSpline
70
0
71
2
72
6
73
3
74
0
42
0.000000001
43
0.0000000001
44
0.0000000001
40
0
40
0
40
0
40
1
40
1
40
1
10
33.892523307507943
20
-41.327896575951854
30
0
10
34.168784875577401
20
-41.626327793622295
30
0
10
34.588293690389108
20
-41.626327793622295
30
0
0
SPLINE
5
157
100
AcDbEntity
8
0
100
AcDbSpline
70
0
71
2
72
6
73
3
74
0
42
0.000000001
43
0.0000000001
44
0.0000000001
40
0
40
0
40
0
40
1
40
1
40
1
10
34.588293690389108
20
-41.626327793622295
30
0
10
35.004391927426767
20
-41.626327793622295
30
0
10
35.294296402638864
20
-41.327896575951854
30
0
0
SPLINE
5
158
100
AcDbEntity
8
0
100
AcDbSpline
70
0
71
2
72
6
73
3
74
0
42
0.000000001
43
0.0000000001
44
0.0000000001
40
0
40
0
40
0
40
1
40
1
40
1
10
35.294296402638864
20
-41.327896575951854
30
0
10
35.584200877850961
20
-41.029465358281414
30
0
10
35.584200877850961
20
-40.545154373669902
30
0
0
SPLINE
5
159
100
AcDbEntity
8
0
100
AcDbSpline
70
0
71
2
72
6
73
3
74
0
42
0.000000001
43
0.0000000001
44
0.0000000001
40
0
40
0
40
0
40
1
40
1
40
1
10
31.433450240796521
20
-41.636559824967662
30
0
10
31.815442104047253
20
-41.776395897889415
30
0
10
31.999616880124524
20
-42.035604577088634
30
0
0
SPLINE
5
160
100
AcDbEntity
8
0
100
AcDbSpline
70
0
71
2
72
6
73
3
74
0
42
0.000000001
43
0.0000000001
44
0.0000000001
40
0
40
0
40
0
40
1
40
1
40
1
10
31.999616880124524
20
-42.035604577088634
30
0
10
32.183791656201791
20
-42.294813554311077
30
0
10
32.183791656201791
20
-42.656341354871074
30
0
0
SPLINE
5
161
100
AcDbEntity
8
0
100
AcDbSpline
70
0
71
2
72
6
73
3
74
0
42
0.000000001
43
0.0000000001
44
0.0000000001
40
0
40
0
40
0
40
1
40
1
40
1
10
32.183791656201791
20
-42.656341354871074
30
0
10
32.183791656201791
20
-43.202043931508342
30
0
10
31.791568059628919
20
-43.573803763413707
30
0
0
SPLINE
5
162
100
AcDbEntity
8
0
100
AcDbSpline
70
0
71
2
72
6
73
3
74
0
42
0.000000001
43
0.0000000001
44
0.0000000001
40
0
40
0
40
0
40
1
40
1
40
1
10
31.791568059628919
20
-43.573803763413707
30
0
10
31.399344463056043
20
-43.945563297295848
30
0
10
30.747910995191052
20
-43.945563297295848
30
0
0
SPLINE
5
163
100
AcDbEntity
8
0
100
AcDbSpline
70
0
71
2
72
6
73
3
74
0
42
0.000000001
43
0.0000000001
44
0.0000000001
40
0
40
0
40
0
40
1
40
1
40
1
10
30.747910995191052
20
-43.945563297295848
30
0
10
30.09306814164491
20
-43.945563297295848
30
0
10
29.694023389523938
20
-43.565277318978588
30
0
0
SPLINE
5
164
100
AcDbEntity
8
0
100
AcDbSpline
70
0
71
2
72
6
73
3
74
0
42
0.000000001
43
0.0000000001
44
0.0000000001
40
0
40
0
40
0
40
1
40
1
40
1
10
29.694023389523938
20
-43.565277318978588
30
0
10
29.294978637402966
20
-43.184990744614879
30
0
10
29.294978637402966
20
-42.639288167977611
30
0
0
SPLINE
5
165
100
AcDbEntity
8
0
100
AcDbSpline
70
0
71
2
72
6
73
3
74
0
42
0.000000001
43
0.0000000001
44
0.0000000001
40
0
40
0
40
0
40
1
40
1
40
1
10
29.294978637402966
20
-42.639288167977611
30
0
10
29.294978637402966
20
-42.291402678513805
30
0
10
29.477447528546765
20
-42.03389928820161
30
0
0
SPLINE
5
166
100
AcDbEntity
8
0
100
AcDbSpline
70
0
71
2
72
6
73
3
74
0
42
0.000000001
43
0.0000000001
44
0.0000000001
40
0
40
0
40
0
40
1
40
1
40
1
10
29.477447528546765
20
-42.03389928820161
30
0
10
29.659916419690564
20
-41.776395897889415
30
0
10
30.031676549619153
20
-41.636559824967662
30
0
0
SPLINE
5
167
100
AcDbEntity
8
0
100
AcDbSpline
70
0
71
2
72
6
73
3
74
0
42
0.000000001
43
0.0000000001
44
0.0000000001
40
0
40
0
40
0
40
1
40
1
40
1
10
30.031676549619153
20
-41.636559824967662
30
0
10
29.571240205472424
20
-41.486491422677318
30
0
10
29.330790300076917
20
-41.152248542332927
30
0
0
SPLINE
5
168
100
AcDbEntity
8
0
100
AcDbSpline
70
0
71
2
72
6
73
3
74
0
42
0.000000001
43
0.0000000001
44
0.0000000001
40
0
40
0
40
0
40
1
40
1
40
1
10
29.330790300076917
20
-41.152248542332927
30
0
10
29.090339202588513
20
-40.818005661988536
30
0
10
29.090339202588513
20
-40.354158442044536
30
0
0
SPLINE
5
169
100
AcDbEntity
8
0
100
AcDbSpline
70
0
71
2
72
6
73
3
74
0
42
0.000000001
43
0.0000000001
44
0.0000000001
40
0
40
0
40
0
40
1
40
1
40
1
10
29.090339202588513
20
-40.354158442044536
30
0
10
29.090339202588513
20
-39.712958197617809
30
0
10
29.543955583280042
20
-39.276395897889415
30
0
0
SPLINE
5
170
100
AcDbEntity
8
0
100
AcDbSpline
70
0
71
2
72
6
73
3
74
0
42
0.000000001
43
0.0000000001
44
0.0000000001
40
0
40
0
40
0
40
1
40
1
40
1
10
29.543955583280042
20
-39.276395897889415
30
0
10
29.997570771878674
20
-38.839833598161022
30
0
10
30.737679261868909
20
-38.839833598161022
30
0
0
SPLINE
5
171
100
AcDbEntity
8
0
100
AcDbSpline
70
0
71
2
72
6
73
3
74
0
42
0.000000001
43
0.0000000001
44
0.0000000001
40
0
40
0
40
0
40
1
40
1
40
1
10
30.737679261868909
20
-38.839833598161022
30
0
10
31.477788943952039
20
-38.839833598161022
30
0
10
31.931404132550671
20
-39.278101186776439
30
0
0
SPLINE
5
172
100
AcDbEntity
8
0
100
AcDbSpline
70
0
71
2
72
6
73
3
74
0
42
0.000000001
43
0.0000000001
44
0.0000000001
40
0
40
0
40
0
40
1
40
1
40
1
10
31.931404132550671
20
-39.278101186776439
30
0
10
32.385019321149301
20
-39.716368775391857
30
0
10
32.385019321149301
20
-40.371211628937999
30
0
0
SPLINE
5
173
100
AcDbEntity
8
0
100
AcDbSpline
70
0
71
2
72
6
73
3
74
0
42
0.000000001
43
0.0000000001
44
0.0000000001
40
0
40
0
40
0
40
1
40
1
40
1
10
32.385019321149301
20
-40.371211628937999
30
0
10
32.385019321149301
20
-40.858933191323558
30
0
10
32.137748260205697
20
-41.188060205006877
30
0
0
SPLINE
5
174
100
AcDbEntity
8
0
100
AcDbSpline
70
0
71
2
72
6
73
3
74
0
42
0.000000001
43
0.0000000001
44
0.0000000001
40
0
40
0
40
0
40
1
40
1
40
1
10
32.137748260205697
20
-41.188060205006877
30
0
10
31.890476007169202
20
-41.517187218690196
30
0
10
31.433450240796521
20
-41.636559824967662
30
0
0
SPLINE
5
175
100
AcDbEntity
8
0
100
AcDbSpline
70
0
71
2
72
6
73
3
74
0
42
0.000000001
43
0.0000000001
44
0.0000000001
40
0
40
0
40
0
40
1
40
1
40
1
10
31.556233424848035
20
-42.676805417561809
30
0
10
31.556233424848035
20
-42.322098474526683
30
0
10
31.327721137708142
20
-42.096996169114391
30
0
0
SPLINE
5
176
100
AcDbEntity
8
0
100
AcDbSpline
70
0
71
2
72
6
73
3
74
0
42
0.000000001
43
0.0000000001
44
0.0000000001
40
0
40
0
40
0
40
1
40
1
40
1
10
31.327721137708142
20
-42.096996169114391
30
0
10
31.099207658475354
20
-41.871893863702098
30
0
10
30.734268684094861
20
-41.871893863702098
30
0
0
SPLINE
5
177
100
AcDbEntity
8
0
100
AcDbSpline
70
0
71
2
72
6
73
3
74
0
42
0.000000001
43
0.0000000001
44
0.0000000001
40
0
40
0
40
0
40
1
40
1
40
1
10
30.734268684094861
20
-41.871893863702098
30
0
10
30.379562635129407
20
-41.871893863702098
30
0
10
30.15275504083009
20
-42.095290880227367
30
0
0
SPLINE
5
178
100
AcDbEntity
8
0
100
AcDbSpline
70
0
71
2
72
6
73
3
74
0
42
0.000000001
43
0.0000000001
44
0.0000000001
40
0
40
0
40
0
40
1
40
1
40
1
10
30.15275504083009
20
-42.095290880227367
30
0
10
29.925947446530774
20
-42.318687896752635
30
0
10
29.925947446530774
20
-42.642698745751659
30
0
0
SPLINE
5
179
100
AcDbEntity
8
0
100
AcDbSpline
70
0
71
2
72
6
73
3
74
0
42
0.000000001
43
0.0000000001
44
0.0000000001
40
0
40
0
40
0
40
1
40
1
40
1
10
29.925947446530774
20
-42.642698745751659
30
0
10
29.925947446530774
20
-42.980352203870098
30
0
10
30.159576196378186
20
-43.210570673966686
30
0
0
SPLINE
5
180
100
AcDbEntity
8
0
100
AcDbSpline
70
0
71
2
72
6
73
3
74
0
42
0.000000001
43
0.0000000001
44
0.0000000001
40
0
40
0
40
0
40
1
40
1
40
1
10
30.159576196378186
20
-43.210570673966686
30
0
10
30.393204946225598
20
-43.44078884604005
30
0
10
30.741089839642957
20
-43.44078884604005
30
0
0
SPLINE
5
181
100
AcDbEntity
8
0
100
AcDbSpline
70
0
71
2
72
6
73
3
74
0
42
0.000000001
43
0.0000000001
44
0.0000000001
40
0
40
0
40
0
40
1
40
1
40
1
10
30.741089839642957
20
-43.44078884604005
30
0
10
31.092386502927258
20
-43.44078884604005
30
0
10
31.324309367841199
20
-43.215686540627757
30
0
0
SPLINE
5
182
100
AcDbEntity
8
0
100
AcDbSpline
70
0
71
2
72
6
73
3
74
0
42
0.000000001
43
0.0000000001
44
0.0000000001
40
0
40
0
40
0
40
1
40
1
40
1
10
31.324309367841199
20
-43.215686540627757
30
0
10
31.556233424848035
20
-42.990584235215465
30
0
10
31.556233424848035
20
-42.676805417561809
30
0
0
SPLINE
5
183
100
AcDbEntity
8
0
100
AcDbSpline
70
0
71
2
72
6
73
3
74
0
42
0.000000001
43
0.0000000001
44
0.0000000001
40
0
40
0
40
0
40
1
40
1
40
1
10
31.754050512021497
20
-40.367801051163951
30
0
10
31.754050512021497
20
-40.105181794190685
30
0
10
31.629562635129407
20
-39.859615426087657
30
0
0
SPLINE
5
184
100
AcDbEntity
8
0
100
AcDbSpline
70
0
71
2
72
6
73
3
74
0
42
0.000000001
43
0.0000000001
44
0.0000000001
40
0
40
0
40
0
40
1
40
1
40
1
10
31.629562635129407
20
-39.859615426087657
30
0
10
31.505073566144421
20
-39.61404905798463
30
0
10
31.259507198041394
20
-39.479328851723949
30
0
0
SPLINE
5
185
100
AcDbEntity
8
0
100
AcDbSpline
70
0
71
2
72
6
73
3
74
0
42
0.000000001
43
0.0000000001
44
0.0000000001
40
0
40
0
40
0
40
1
40
1
40
1
10
31.259507198041394
20
-39.479328851723949
30
0
10
31.013942022031262
20
-39.344608645463268
30
0
10
30.730858106320813
20
-39.344608645463268
30
0
0
SPLINE
5
186
100
AcDbEntity
8
0
100
AcDbSpline
70
0
71
2
72
6
73
3
74
0
42
0.000000001
43
0.0000000001
44
0.0000000001
40
0
40
0
40
0
40
1
40
1
40
1
10
30.730858106320813
20
-39.344608645463268
30
0
10
30.290885228818372
20
-39.344608645463268
30
0
10
30.00439192742677
20
-39.627691965127269
30
0
0
SPLINE
5
187
100
AcDbEntity
8
0
100
AcDbSpline
70
0
71
2
72
6
73
3
74
0
42
0.000000001
43
0.0000000001
44
0.0000000001
40
0
40
0
40
0
40
1
40
1
40
1
10
30.00439192742677
20
-39.627691965127269
30
0
10
29.717897433942273
20
-39.910775284791271
30
0
10
29.717897433942273
20
-40.347336988473216
30
0
0
SPLINE
5
188
100
AcDbEntity
8
0
100
AcDbSpline
70
0
71
2
72
6
73
3
74
0
42
0.000000001
43
0.0000000001
44
0.0000000001
40
0
40
0
40
0
40
1
40
1
40
1
10
29.717897433942273
20
-40.347336988473216
30
0
10
29.717897433942273
20
-40.790720443749706
30
0
10
30.012918967908337
20
-41.080624918961803
30
0
0
SPLINE
5
189
100
AcDbEntity
8
0
100
AcDbSpline
70
0
71
2
72
6
73
3
74
0
42
0.000000001
43
0.0000000001
44
0.0000000001
40
0
40
0
40
0
40
1
40
1
40
1
10
30.012918967908337
20
-41.080624918961803
30
0
10
30.307939309781506
20
-41.3705293941739
30
0
10
30.751322765057996
20
-41.3705293941739
30
0
0
SPLINE
5
190
100
AcDbEntity
8
0
100
AcDbSpline
70
0
71
2
72
6
73
3
74
0
42
0.000000001
43
0.0000000001
44
0.0000000001
40
0
40
0
40
0
40
1
40
1
40
1
10
30.751322765057996
20
-41.3705293941739
30
0
10
31.184473294919446
20
-41.3705293941739
30
0
10
31.469261903470471
20
-41.084035496735851
30
0
0
SPLINE
5
191
100
AcDbEntity
8
0
100
AcDbSpline
70
0
71
2
72
6
73
3
74
0
42
0.000000001
43
0.0000000001
44
0.0000000001
40
0
40
0
40
0
40
1
40
1
40
1
10
31.469261903470471
20
-41.084035496735851
30
0
10
31.754050512021497
20
-40.797541599297801
30
0
10
31.754050512021497
20
-40.367801051163951
30
0
0
ENDSEC
0
SECTION
2
OBJECTS
0
DICTIONARY
5
C
100
AcDbDictionary
3
ACAD_GROUP
350
D
3
ACAD_MLINESTYLE
350
17
0
DICTIONARY
5
D
100
AcDbDictionary
0
DICTIONARY
5
1A
330
C
100
AcDbDictionary
0
DICTIONARY
5
17
100
AcDbDictionary
0
ENDSEC
0
EOF
